<?xml version="1.0" encoding="UTF-8"?>
<svg version="1.1" xmlns="http://www.w3.org/2000/svg" width="256" height="256">
<path d="M0 0 C3.93569358 3.40894671 6.5666584 7.21075384 7.546875 12.33984375 C7.62929694 14.80222142 7.65430799 17.26673143 7.64453125 19.73046875 C7.6431163 20.4350824 7.64170135 21.13969604 7.64024353 21.86566162 C7.63466433 24.10709959 7.62211573 26.34843618 7.609375 28.58984375 C7.60435731 30.1132798 7.59979487 31.63671743 7.59570312 33.16015625 C7.58470174 36.88675147 7.56745146 40.61328771 7.546875 44.33984375 C6.79921875 43.84613281 6.0515625 43.35242187 5.28125 42.84375 C4.29640625 42.20308594 3.3115625 41.56242187 2.296875 40.90234375 C0.83507812 39.94521484 0.83507812 39.94521484 -0.65625 38.96875 C-4.98460053 36.44790898 -8.24399515 36.21830649 -13.203125 36.27734375 C-14.18796875 36.28636719 -15.1728125 36.29539063 -16.1875 36.3046875 C-16.93515625 36.31628906 -17.6828125 36.32789063 -18.453125 36.33984375 C-18.453125 37.65984375 -18.453125 38.97984375 -18.453125 40.33984375 C-17.40125 40.37851563 -17.40125 40.37851563 -16.328125 40.41796875 C-10.06098308 40.79263484 -4.47580869 41.3041503 0.546875 45.33984375 C6.27208255 52.14009028 7.70708383 57.40474864 7.64453125 66.16796875 C7.6431163 66.91697449 7.64170135 67.66598022 7.64024353 68.43768311 C7.63466159 70.82177787 7.62211245 73.20577753 7.609375 75.58984375 C7.60435766 77.20963406 7.59979516 78.82942584 7.59570312 80.44921875 C7.58469808 84.41279687 7.56744591 88.3763042 7.546875 92.33984375 C4.00564673 92.48585989 0.46519856 92.57414935 -3.078125 92.65234375 C-4.07714844 92.69423828 -5.07617188 92.73613281 -6.10546875 92.77929688 C-14.45477691 92.91753045 -14.45477691 92.91753045 -18.078125 90.15234375 C-20.52559867 87.25401967 -21.3339474 85.73367575 -21.828125 82.02734375 C-21.95960937 81.14433594 -22.09109375 80.26132813 -22.2265625 79.3515625 C-22.33871094 78.35576172 -22.33871094 78.35576172 -22.453125 77.33984375 C-24.433125 76.84484375 -24.433125 76.84484375 -26.453125 76.33984375 C-26.76055493 82.18101238 -26.41519876 86.10684677 -23.453125 91.33984375 C-14.76920103 100.22112963 -4.73309841 98.657623 7.546875 99.33984375 C7.546875 113.85984375 7.546875 128.37984375 7.546875 143.33984375 C1.606875 143.66984375 -4.333125 143.99984375 -10.453125 144.33984375 C-16.67590532 145.67329668 -20.43961172 147.15282935 -24.3671875 152.23046875 C-26.64582733 156.65660367 -26.453125 161.46942873 -26.453125 166.33984375 C-25.133125 166.00984375 -23.813125 165.67984375 -22.453125 165.33984375 C-22.34097656 164.34404297 -22.34097656 164.34404297 -22.2265625 163.328125 C-22.09507813 162.44511719 -21.96359375 161.56210938 -21.828125 160.65234375 C-21.65410156 159.34716797 -21.65410156 159.34716797 -21.4765625 158.015625 C-20.03451979 154.24539883 -18.05576391 152.04712018 -14.453125 150.33984375 C-10.63650076 149.75387839 -6.92763727 149.86591259 -3.078125 150.02734375 C-1.54478516 150.06118164 -1.54478516 150.06118164 0.01953125 150.09570312 C2.53017081 150.15436293 5.03774879 150.23638447 7.546875 150.33984375 C7.62153601 155.03544718 7.67571601 159.73069818 7.71166992 164.42675781 C7.72667245 166.02122016 7.74708121 167.61564183 7.77319336 169.20996094 C7.80995634 171.51377452 7.82668655 173.81703835 7.83984375 176.12109375 C7.85532761 176.82351196 7.87081146 177.52593018 7.88676453 178.24963379 C7.88887216 184.57554111 6.19542436 189.65331887 2.859375 195.08984375 C-3.32977497 201.11171939 -10.05618545 202.03113274 -18.453125 202.33984375 C-18.783125 203.32984375 -19.113125 204.31984375 -19.453125 205.33984375 C-17.77214594 207.02082281 -15.75795047 206.59152197 -13.453125 206.65234375 C-4.92072091 206.57487705 0.62273911 202.98308087 7.546875 198.33984375 C7.64664206 202.7322806 7.71876058 207.12409647 7.76660156 211.51733398 C7.78656958 213.00801093 7.8137542 214.49861105 7.84863281 215.98901367 C8.2331629 232.8574439 8.2331629 232.8574439 3.546875 239.33984375 C-3.06081741 245.55567473 -9.86419768 245.77629564 -18.4296875 245.61328125 C-27.19975626 245.2033891 -33.58494492 240.6308403 -39.453125 234.33984375 C-45.31683306 226.91347237 -47.43343501 218.722811 -46.453125 209.33984375 C-45.10171542 202.03768945 -42.2355932 196.93533154 -37.453125 191.33984375 C-36.958125 190.7365625 -36.463125 190.13328125 -35.953125 189.51171875 C-34.80010832 188.10975529 -33.62873605 186.72291557 -32.453125 185.33984375 C-32.783125 184.67984375 -33.113125 184.01984375 -33.453125 183.33984375 C-39.69038329 184.85190637 -43.45803914 190.15016944 -46.71875 195.36328125 C-51.59453327 204.56905116 -51.71226402 213.08945584 -51.453125 223.33984375 C-63.42983952 219.87889203 -71.72831959 213.98093018 -78.046875 203.1171875 C-83.2114423 192.91716709 -84.33362369 181.67920851 -80.953125 170.65234375 C-80.53546875 169.50185547 -80.53546875 169.50185547 -80.109375 168.328125 C-79.29641104 166.21400155 -79.29641104 166.21400155 -79.453125 163.33984375 C-80.773125 163.33984375 -82.093125 163.33984375 -83.453125 163.33984375 C-84.10027633 165.42276805 -84.74579666 167.50619914 -85.390625 169.58984375 C-85.75027344 170.75 -86.10992187 171.91015625 -86.48046875 173.10546875 C-87.20379137 175.51073433 -87.87854911 177.89638419 -88.453125 180.33984375 C-93.86415252 180.00165453 -97.69508494 177.00980474 -101.453125 173.33984375 C-108.09889004 164.11598021 -109.71533217 155.50274852 -108.453125 144.33984375 C-106.23728178 136.62910682 -101.19316468 130.1411645 -94.28515625 126.05859375 C-89.37118678 123.69041569 -84.8746037 122.73413311 -79.453125 122.33984375 C-79.453125 120.68984375 -79.453125 119.03984375 -79.453125 117.33984375 C-87.69581947 118.288745 -94.26174346 120.17138808 -101.453125 124.33984375 C-108.93802405 114.27394503 -109.65565614 103.55517772 -108.453125 91.33984375 C-106.29651943 80.5183051 -99.85002718 72.56272213 -90.95703125 66.3359375 C-90.46074219 66.00722656 -89.96445313 65.67851563 -89.453125 65.33984375 C-87.453125 66.33984375 -87.453125 66.33984375 -86.3828125 69.28125 C-86.03476563 70.47621094 -85.68671875 71.67117187 -85.328125 72.90234375 C-84.97492188 74.09988281 -84.62171875 75.29742187 -84.2578125 76.53125 C-83.99226563 77.45808594 -83.72671875 78.38492188 -83.453125 79.33984375 C-82.133125 79.33984375 -80.813125 79.33984375 -79.453125 79.33984375 C-79.99528774 76.44830911 -80.64498054 73.71913465 -81.515625 70.90234375 C-84.39340181 59.23746218 -82.71100877 47.73718098 -76.7578125 37.39453125 C-70.40348885 27.95308679 -62.48720269 22.13834171 -51.453125 19.33984375 C-51.49953125 20.19964844 -51.5459375 21.05945313 -51.59375 21.9453125 C-51.9612735 33.98170702 -50.20144092 44.19659673 -42.19140625 53.52734375 C-40.07550719 55.73358456 -38.03523487 57.69016244 -35.453125 59.33984375 C-34.463125 59.33984375 -33.473125 59.33984375 -32.453125 59.33984375 C-33.02291233 55.87613653 -34.07594519 54.48792541 -36.703125 52.21484375 C-42.64735599 46.53969318 -45.87046152 39.37937486 -46.65625 31.234375 C-46.84554147 22.82667907 -44.87990201 14.90910013 -39.453125 8.33984375 C-29.59781713 -1.80761752 -13.45110959 -8.36230485 0 0 Z M-55.453125 97.33984375 C-55.783125 98.65984375 -56.113125 99.97984375 -56.453125 101.33984375 C-55.91042969 101.77554688 -55.36773437 102.21125 -54.80859375 102.66015625 C-48.66490575 107.77436139 -45.21149559 111.9828398 -44.453125 120.26171875 C-44.453125 126.52705908 -46.54979652 131.46068315 -50.453125 136.33984375 C-52.38379449 138.13328428 -54.36361664 139.72522366 -56.453125 141.33984375 C-56.123125 142.65984375 -55.793125 143.97984375 -55.453125 145.33984375 C-50.10626632 145.01579171 -46.89711363 142.17608621 -43.453125 138.33984375 C-38.0397472 130.94563097 -37.19876764 123.29513279 -38.453125 114.33984375 C-40.5807556 107.1664103 -44.9883932 101.2212533 -51.453125 97.33984375 C-52.773125 97.33984375 -54.093125 97.33984375 -55.453125 97.33984375 Z " fill="#D8CFBC" transform="translate(112.453125,6.66015625)"/>
<path d="M0 0 C6.94170784 -0.07399328 13.88318765 -0.12852782 20.82519531 -0.16479492 C23.1881917 -0.179909 25.55115991 -0.20040076 27.9140625 -0.22631836 C31.30475809 -0.26258629 34.69508379 -0.27969999 38.0859375 -0.29296875 C39.14743011 -0.30845261 40.20892273 -0.32393646 41.30258179 -0.33988953 C42.77388046 -0.34022942 42.77388046 -0.34022942 44.27490234 -0.34057617 C45.57396011 -0.35056892 45.57396011 -0.35056892 46.89926147 -0.36076355 C47.93912704 -0.18218559 47.93912704 -0.18218559 49 0 C51.44339703 3.66509555 51.28220382 6.3998701 51.25878906 10.63671875 C51.2622937 11.4126236 51.26579834 12.18852844 51.26940918 12.98794556 C51.27821684 15.55455452 51.2723808 18.12088819 51.265625 20.6875 C51.26697193 22.46964572 51.26891269 24.25179108 51.27142334 26.03393555 C51.27437329 29.76972958 51.2700811 33.50542801 51.26074219 37.24121094 C51.24934772 42.03319407 51.25590788 46.82495319 51.26788712 51.6169281 C51.27510919 55.29717705 51.27281619 58.97737275 51.26763153 62.65762329 C51.266296 64.42469306 51.2679394 66.19176764 51.27259064 67.95883179 C51.27766157 70.42711213 51.26993777 72.89502809 51.25878906 75.36328125 C51.26283752 76.09584137 51.26688599 76.82840149 51.27105713 77.5831604 C51.24009117 81.27800734 51.10672116 82.83991827 49 86 C46.89926147 86.36076355 46.89926147 86.36076355 44.27490234 86.34057617 C43.29403656 86.34034958 42.31317078 86.34012299 41.30258179 86.33988953 C40.24108917 86.32440567 39.17959656 86.30892181 38.0859375 86.29296875 C37.00116119 86.28872391 35.91638489 86.28447906 34.79873657 86.28010559 C31.32390833 86.263273 27.84965382 86.22561189 24.375 86.1875 C22.02344586 86.17245911 19.67188265 86.15876967 17.3203125 86.14648438 C11.54665294 86.11335439 5.77342383 86.06154027 0 86 C0 81.38 0 76.76 0 72 C17.325 71.505 17.325 71.505 35 71 C35 52.52 35 34.04 35 15 C23.45 14.67 11.9 14.34 0 14 C0 9.38 0 4.76 0 0 Z " fill="#D8CEBB" transform="translate(126,85)"/>
<path d="M0 0 C9.9 0 19.8 0 30 0 C30 14.52 30 29.04 30 44 C20.1 44 10.2 44 0 44 C0 29.48 0 14.96 0 0 Z " fill="#D8CEBC" transform="translate(126,106)"/>
<path d="M0 0 C2.64 0 5.28 0 8 0 C7.89816406 1.26714844 7.79632813 2.53429687 7.69140625 3.83984375 C7.03851452 12.84414315 7.03851452 12.84414315 10.50341797 20.75097656 C14.61903588 23.93372108 19.27787368 25.88717946 24 28 C25.53266582 31.06533164 25.10276471 34.26754272 25.0625 37.625 C25.05798828 38.33140625 25.05347656 39.0378125 25.04882812 39.765625 C25.03703875 41.51045275 25.01910324 43.255237 25 45 C25.78890625 45.29777344 26.5778125 45.59554687 27.390625 45.90234375 C30.53918622 47.22681337 31.4417952 47.96150065 33 51 C34.10017871 55.44302942 34.34472561 58.92526722 32.9375 63.3125 C30.54021301 66.63776905 28.70910097 68.21413657 25 70 C20.68468967 70.67735912 17.1707386 70.48356594 13.125 68.8125 C9.90944148 66.06981774 8.32903778 63.93803252 7.609375 59.69921875 C7.28339975 54.8169986 7.66586373 51.72610708 10.8125 47.875 C12.39453125 46.1796875 12.39453125 46.1796875 14 45 C14.99 45 15.98 45 17 45 C17.68123957 40.92804532 17.62910923 37.82766393 16 34 C13.48514199 32.26548429 10.70236559 31.09840085 7.9375 29.8125 C4.75291438 28.25733319 2.23306944 26.78870594 0 24 C-2.09503554 16.26751301 -0.97558773 7.85535739 0 0 Z " fill="#D8CFBC" transform="translate(140,177)"/>
<path d="M0 0 C3.70910097 1.78586343 5.54021301 3.36223095 7.9375 6.6875 C9.34631782 11.07969673 9.20906201 14.56404952 8 19 C5.18935048 23.65210955 5.18935048 23.65210955 1.86328125 24.625 C1.24839844 24.74875 0.63351563 24.8725 0 25 C0.04640625 26.03640625 0.0928125 27.0728125 0.140625 28.140625 C0.17815275 29.51038779 0.21455184 30.88018182 0.25 32.25 C0.30027344 33.27287109 0.30027344 33.27287109 0.3515625 34.31640625 C0.41544071 37.60613405 0.28101765 39.59902757 -1.62890625 42.32421875 C-4.35463613 44.25064069 -7.10057175 45.30291296 -10.1875 46.5625 C-13.42137789 48.33071999 -15.5646406 49.5383193 -16.64892578 53.17871094 C-17.44448308 58.78372397 -17.29298419 64.36005427 -17 70 C-19.64 70 -22.28 70 -25 70 C-27.06837981 49.18402142 -27.06837981 49.18402142 -23.77246094 44.11035156 C-20.34942059 41.00842195 -16.3313813 39.52110776 -12 38 C-11.01 37.34 -10.02 36.68 -9 36 C-8.41651248 33.3443272 -8.41651248 33.3443272 -8.3125 30.375 C-8.24675781 29.37210938 -8.18101562 28.36921875 -8.11328125 27.3359375 C-8.07589844 26.56507812 -8.03851563 25.79421875 -8 25 C-8.90492188 24.82791016 -8.90492188 24.82791016 -9.828125 24.65234375 C-12.65375246 23.8036391 -14.21621425 22.24455956 -16.015625 19.9453125 C-17.9517601 16.11914075 -17.63133734 12.14878825 -17 8 C-15.70483047 4.79615959 -14.48002642 3.4094343 -11.875 1.1875 C-7.8292614 -0.48356594 -4.31531033 -0.67735912 0 0 Z " fill="#D8CFBB" transform="translate(165,9)"/>
<path d="M0 0 C3.4480321 1.23608698 5.41819999 2.36001999 7.875 5.0625 C9.88797947 10.31861307 9.88797947 15.68138693 7.875 20.9375 C4.51138344 24.63747822 0.93675689 26.15432083 -4 26.4375 C-8.24108949 26.25875676 -10.79335476 24.82490176 -14 22 C-14.66 20.35 -15.32 18.7 -16 17 C-30.52 17 -45.04 17 -60 17 C-60 14.36 -60 11.72 -60 9 C-45.48 9 -30.96 9 -16 9 C-15.34 7.35 -14.68 5.7 -14 4 C-9.49720978 0.03325623 -5.78275902 -0.94647952 0 0 Z " fill="#D8CEBB" transform="translate(243,115)"/>
<path d="M0 0 C2.41854446 -0.13536629 4.82949783 -0.23420279 7.25 -0.3125 C8.27287109 -0.3753418 8.27287109 -0.3753418 9.31640625 -0.43945312 C12.95824351 -0.52784723 14.60617398 -0.36975516 17.30078125 2.16015625 C19.53971425 5.9020052 21.45417222 9.74295494 23.33984375 13.671875 C24.81698864 16.24196664 24.81698864 16.24196664 27.69140625 16.828125 C28.45324219 16.88484375 29.21507812 16.9415625 30 17 C30.309375 15.88625 30.309375 15.88625 30.625 14.75 C32.4973035 11.005393 34.24680792 9.84247611 38 8 C42.62078835 7.18164929 46.05861998 7.59904184 50.375 9.4375 C53.90961457 12.88795708 55.27561466 16.13509394 56 21 C55.25642213 26.57683405 53.30167476 29.43275752 49 33 C44.25101245 34.58299585 40.43540528 34.55207896 35.75 32.75 C33.05514747 31.03509384 31.59300147 29.74350254 30 27 C30 26.34 30 25.68 30 25 C29.39671875 25.05800781 28.7934375 25.11601562 28.171875 25.17578125 C21.63556116 25.54476671 21.63556116 25.54476671 18.8125 23.125 C17.9153125 21.578125 17.9153125 21.578125 17 20 C16.22462891 18.76830078 16.22462891 18.76830078 15.43359375 17.51171875 C11 10.40356729 11 10.40356729 11 8 C7.37 8 3.74 8 0 8 C0 5.36 0 2.72 0 0 Z " fill="#D8CFBC" transform="translate(183,157)"/>
<path d="M0 0 C3.97462975 2.61964233 5.2330654 5.1509245 6.625 9.625 C6.79337945 13.91867585 5.90680476 17.09931964 3.75 20.8125 C0.42018205 23.98375519 -2.24730464 25.06993055 -6.75 25.3125 C-11.20398416 25.0946829 -13.89250759 23.84243218 -17.25 20.8125 C-18.625 18.0625 -18.625 18.0625 -19.25 15.8125 C-21.6203869 15.77379619 -21.6203869 15.77379619 -24.25 16.8125 C-25.88229864 19.13889319 -27.16299059 21.24321639 -28.4375 23.75 C-32.09375 30.65625 -32.09375 30.65625 -34.25 32.8125 C-36.83064129 32.95747985 -39.29943884 32.99927545 -41.875 32.9375 C-42.58140625 32.92847656 -43.2878125 32.91945312 -44.015625 32.91015625 C-45.76056098 32.88657603 -47.50532295 32.85070461 -49.25 32.8125 C-49.25 30.1725 -49.25 27.5325 -49.25 24.8125 C-45.62 24.8125 -41.99 24.8125 -38.25 24.8125 C-37.59 23.1625 -36.93 21.5125 -36.25 19.8125 C-35.28505166 18.06353114 -34.2841629 16.3339542 -33.25 14.625 C-32.734375 13.76519531 -32.21875 12.90539062 -31.6875 12.01953125 C-30.25 9.8125 -30.25 9.8125 -28.25 7.8125 C-26.0859375 7.6171875 -26.0859375 7.6171875 -23.625 7.6875 C-22.39910156 7.71457031 -22.39910156 7.71457031 -21.1484375 7.7421875 C-20.20871094 7.77699219 -20.20871094 7.77699219 -19.25 7.8125 C-19.0025 7.049375 -18.755 6.28625 -18.5 5.5 C-17.11694005 2.52642111 -16.01995517 1.49126071 -13.25 -0.1875 C-8.51800479 -1.76483174 -4.69388532 -1.71507348 0 0 Z " fill="#D8CFBC" transform="translate(232.25,66.1875)"/>
<path d="M0 0 C2.64 0 5.28 0 8 0 C8 2.97 8 5.94 8 9 C10.64 9 13.28 9 16 9 C16.226875 8.2575 16.45375 7.515 16.6875 6.75 C18.36596924 3.23320731 19.58434395 1.92130653 23 0 C28.10994235 -0.84454807 31.87939995 -0.58031074 36.5 1.8125 C40.40843201 5.232378 41.60713199 7.89271587 42 13 C41.30084814 17.42796178 40.41214017 19.54860839 37.375 22.875 C33.1185358 25.55499598 31.01908878 26 26 26 C22.24189903 24.6991189 20.49112509 23.71763067 18.23828125 20.42578125 C16.17817745 17.71858205 16.17817745 17.71858205 12.87109375 17.36328125 C11.73800781 17.34652344 10.60492188 17.32976562 9.4375 17.3125 C3.26920821 17.17947214 3.26920821 17.17947214 0 15 C-0.22137393 12.37302936 -0.28162025 9.99106036 -0.1875 7.375 C-0.17396484 6.66859375 -0.16042969 5.9621875 -0.14648438 5.234375 C-0.1111104 3.48925872 -0.05730221 1.74453392 0 0 Z " fill="#D8CFBB" transform="translate(156,177)"/>
<path d="M0 0 C3.17037054 3.54779561 4.34659226 6.2135494 4.625 10.9375 C3.97105503 15.2971331 3.33157735 17.26625152 0.125 20.3125 C-4.6582599 23.42161894 -8.73070685 23.71542708 -14.375 22.9375 C-17.70566281 21.27549261 -19.90705194 19.17421986 -21.25 15.625 C-21.29125 15.068125 -21.3325 14.51125 -21.375 13.9375 C-24.015 13.9375 -26.655 13.9375 -29.375 13.9375 C-29.375 16.9075 -29.375 19.8775 -29.375 22.9375 C-32.015 22.9375 -34.655 22.9375 -37.375 22.9375 C-37.45576963 20.47851345 -37.51537143 18.02216258 -37.5625 15.5625 C-37.58763672 14.86382812 -37.61277344 14.16515625 -37.63867188 13.4453125 C-37.66796875 11.4140625 -37.66796875 11.4140625 -37.375 7.9375 C-33.83083865 5.57472577 -32.19107205 5.74504332 -28 5.6875 C-23.48844466 5.54683262 -23.48844466 5.54683262 -19.5859375 3.61328125 C-18.45092593 2.10115293 -17.4088191 0.5205355 -16.375 -1.0625 C-10.82312872 -4.51366323 -5.24798047 -3.20709918 0 0 Z " fill="#D8CFBB" transform="translate(193.375,56.0625)"/>
<path d="M0 0 C2.27057377 -0.05398987 4.54151288 -0.09278742 6.8125 -0.125 C8.07707031 -0.14820313 9.34164062 -0.17140625 10.64453125 -0.1953125 C14 0 14 0 17 2 C17.25 4.5625 17.25 4.5625 17 7 C16 8 16 8 12.40234375 8.09765625 C10.91403133 8.0909822 9.42573568 8.07902183 7.9375 8.0625 C6.79958008 8.05573242 6.79958008 8.05573242 5.63867188 8.04882812 C3.75908129 8.0370068 1.87953101 8.01907078 0 8 C0 5.36 0 2.72 0 0 Z " fill="#D7CFBD" transform="translate(183,140)"/>
<path d="M0 0 C2.64590014 -0.02684679 5.29153096 -0.04676357 7.9375 -0.0625 C8.69224609 -0.07087891 9.44699219 -0.07925781 10.22460938 -0.08789062 C12.14994313 -0.09652441 14.07535581 -0.05224333 16 0 C17 1 17 1 17.25 3.4375 C17.1675 4.283125 17.085 5.12875 17 6 C13.2632157 8.49118953 11.25548181 8.2065226 6.8125 8.125 C5.54019531 8.10695313 4.26789063 8.08890625 2.95703125 8.0703125 C1.49330078 8.03550781 1.49330078 8.03550781 0 8 C0 5.36 0 2.72 0 0 Z " fill="#D7CFBD" transform="translate(183,108)"/>
</svg>
