<?xml version="1.0" encoding="UTF-8"?>
<svg version="1.1" xmlns="http://www.w3.org/2000/svg" width="256" height="256">
<path d="M0 0 C0.99673737 -0.00997513 1.99347473 -0.01995026 3.02041626 -0.03022766 C4.11294205 -0.03089233 5.20546783 -0.03155701 6.33110046 -0.03224182 C7.48257568 -0.04056534 8.6340509 -0.04888885 9.82041931 -0.0574646 C13.63871105 -0.08162086 17.45683214 -0.09034388 21.27519226 -0.09693909 C23.25515394 -0.10363698 25.23511564 -0.11033702 27.21507615 -0.117374 C33.44369934 -0.13885016 39.67226804 -0.1481805 45.90092468 -0.15138245 C52.32046495 -0.15501585 58.73952656 -0.18489571 65.15892059 -0.22678703 C70.67412014 -0.2615127 76.18916127 -0.27693129 81.70446938 -0.27762848 C84.99684542 -0.27842069 88.28862424 -0.28950452 91.58091164 -0.31562614 C95.25587814 -0.34246126 98.92952373 -0.33773685 102.60453796 -0.32521057 C103.69099106 -0.34004486 104.77744415 -0.35487915 105.89682007 -0.37016296 C114.12904468 -0.29020202 114.12904468 -0.29020202 117.82174683 2.62411499 C120.94723931 6.1634731 121.28682181 8.59572082 121.30908203 13.15020752 C121.31981499 14.6579348 121.31981499 14.6579348 121.33076477 16.19612122 C121.33345367 17.29799774 121.33614258 18.39987427 121.33891296 19.53514099 C121.34548416 20.69636978 121.35205536 21.85759857 121.35882568 23.05401611 C121.37857006 26.90474 121.39022304 30.75542489 121.40019226 34.60618591 C121.40426779 35.91985327 121.40834332 37.23352062 121.41254234 38.58699608 C121.43158768 44.82123075 121.4458204 51.05545362 121.45415431 57.28971177 C121.46392645 64.48061497 121.49024768 71.67121032 121.53065521 78.86200505 C121.56083453 84.42389936 121.57562486 89.9857055 121.57893533 95.54768008 C121.58128367 98.86793134 121.59219349 102.18777856 121.6153965 105.50795937 C121.63968819 109.21388523 121.63884072 112.91900399 121.63188171 116.62498474 C121.6510968 118.26869049 121.6510968 118.26869049 121.67070007 119.94560242 C121.62918856 126.0051694 121.35743486 129.7455397 117.16191101 134.27415466 C114.13421228 136.14339196 111.8506203 136.52625676 108.31745911 136.53485107 C107.34458954 136.54193588 106.37171997 136.54902069 105.36936951 136.55632019 C104.30849121 136.55384277 103.24761292 136.55136536 102.15458679 136.54881287 C101.03222626 136.5539238 99.90986572 136.55903473 98.75349426 136.56430054 C95.03801665 136.57821678 91.32272412 136.57723811 87.60722351 136.57493591 C85.02656485 136.5788219 82.44590682 136.58315637 79.86524963 136.58792114 C74.45320798 136.59538787 69.04123821 136.59522704 63.62919617 136.58982849 C57.38073462 136.58379124 51.13249839 136.59609401 44.88407528 136.61739856 C38.86553445 136.63716204 32.84711132 136.64018545 26.82853317 136.63666344 C24.27126919 136.63717703 21.71400163 136.6424218 19.15675735 136.65247536 C15.58033643 136.66480898 12.00443685 136.65806578 8.42802429 136.64646912 C6.84277954 136.65793472 6.84277954 136.65793472 5.22550964 136.66963196 C-0.12319971 136.63129045 -4.38888492 136.59171632 -8.83808899 133.27415466 C-12.80212344 127.98489502 -12.26847524 122.09229696 -12.24214172 115.76438904 C-12.24900497 114.61247574 -12.25586823 113.46056244 -12.26293945 112.27374268 C-12.28121887 108.47167078 -12.27736847 104.67001101 -12.27168274 100.86790466 C-12.27624361 98.22284307 -12.28154889 95.57778267 -12.28756714 92.932724 C-12.29758691 87.39138352 -12.29430643 81.85015982 -12.28413391 76.30882263 C-12.2726491 69.91142343 -12.286738 63.51444328 -12.31353039 57.11709929 C-12.33838262 50.95116498 -12.34086166 44.78542362 -12.33441353 38.6194458 C-12.3342601 36.00077619 -12.3403221 33.38209859 -12.352705 30.76345825 C-12.36757574 27.10329459 -12.35696563 23.44405496 -12.33979797 19.78392029 C-12.35429993 18.16131035 -12.35429993 18.16131035 -12.36909485 16.50592041 C-12.30965546 10.45652446 -11.93614327 6.84641217 -7.83808899 2.27415466 C-4.60669031 0.11988888 -3.7271035 0.0199921 0 0 Z M-1.83808899 8.27415466 C-3.86929606 11.32096527 -4.08468774 11.8753379 -4.03340149 15.28587341 C-4.02695618 16.04319763 -4.02051086 16.80052185 -4.01387024 17.58079529 C-3.99711243 18.36647888 -3.98035461 19.15216248 -3.96308899 19.96165466 C-3.95406555 20.75893982 -3.94504211 21.55622498 -3.93574524 22.37767029 C-3.91220484 24.34329367 -3.87633446 26.30876241 -3.83808899 28.27415466 C-2.20650597 28.28961586 -2.20650597 28.28961586 -0.54196167 28.3053894 C9.68550532 28.40294826 19.91290907 28.50566525 30.14027309 28.61349392 C35.39884738 28.66876841 40.65742719 28.72219551 45.9160614 28.77146912 C50.98649165 28.81904608 56.05685198 28.8713862 61.12719917 28.92709541 C63.0661604 28.94754929 65.00514083 28.96625723 66.94413567 28.98322868 C69.65018055 29.00720583 72.356092 29.03726911 75.0620575 29.0688324 C75.87197647 29.07458786 76.68189545 29.08034332 77.51635742 29.08627319 C83.04785885 29.1601025 83.04785885 29.1601025 84.16191101 30.27415466 C84.16191101 31.92415466 84.16191101 33.57415466 84.16191101 35.27415466 C55.12191101 35.60415466 26.08191101 35.93415466 -3.83808899 36.27415466 C-3.92531215 52.01925567 -3.92531215 52.01925567 -3.98457336 67.76438904 C-4.00252355 74.18397944 -4.02378383 80.60344178 -4.06440735 87.02293396 C-4.0969461 92.19707838 -4.11493046 97.37108551 -4.12272072 102.54532433 C-4.12827409 104.52174733 -4.13911816 106.49816262 -4.15527916 108.47452736 C-4.17698055 111.23773708 -4.18005898 114.00037573 -4.17866516 116.76365662 C-4.18945099 117.58508652 -4.20023682 118.40651642 -4.21134949 119.25283813 C-4.28267529 123.36465805 -4.28267529 123.36465805 -2.60020161 126.98406696 C-0.34804407 128.63292908 0.93890014 128.65123604 3.71647644 128.65510559 C4.65023605 128.66356506 5.58399567 128.67202454 6.54605103 128.68074036 C7.56848404 128.67466766 8.59091705 128.66859497 9.64433289 128.66233826 C10.72259842 128.66759521 11.80086395 128.67285217 12.9118042 128.67826843 C16.48490274 128.69149913 20.05755774 128.6827192 23.63066101 128.67259216 C26.10783474 128.67461201 28.58500788 128.67752269 31.06217957 128.68128967 C36.92345169 128.6862848 42.78456216 128.67576781 48.6458106 128.65983737 C53.32262959 128.64857316 57.99925922 128.65255671 62.67607117 128.66526794 C69.11806747 128.68262779 75.5598804 128.68539818 82.00189209 128.67560196 C84.46115156 128.67359672 86.92041878 128.67607051 89.37966919 128.68304062 C92.8131544 128.69063566 96.24604813 128.6790776 99.67948914 128.66233826 C100.70192215 128.66841095 101.72435516 128.67448364 102.777771 128.68074036 C103.71153061 128.67228088 104.64529022 128.66382141 105.60734558 128.65510559 C106.41923592 128.65397451 107.23112625 128.65284344 108.06761932 128.65167809 C110.71372406 128.17468316 111.59527453 127.43817299 113.16191101 125.27415466 C113.44257982 122.36484075 113.54067715 119.67213828 113.50248718 116.76365662 C113.50292526 115.89515076 113.50336334 115.0266449 113.5038147 114.13182068 C113.50172313 111.25846447 113.47837475 108.38569031 113.45487976 105.51243591 C113.44928512 103.52132486 113.4450144 101.53020968 113.4420166 99.53909302 C113.43055749 94.29632686 113.40108106 89.05380969 113.36790466 83.81114197 C113.3372268 78.46225859 113.32351615 73.11333502 113.30839539 67.76438904 C113.2762124 57.2675172 113.22343569 46.77089558 113.16191101 36.27415466 C106.56191101 35.94415466 99.96191101 35.61415466 93.16191101 35.27415466 C92.16191101 31.27415466 92.16191101 31.27415466 93.16191101 29.27415466 C103.06191101 28.77915466 103.06191101 28.77915466 113.16191101 28.27415466 C113.20316101 25.34540466 113.24441101 22.41665466 113.28691101 19.39915466 C113.30511902 18.47763611 113.32332703 17.55611755 113.34208679 16.60667419 C113.34708191 15.88077087 113.35207703 15.15486755 113.35722351 14.40696716 C113.36769714 13.66333923 113.37817078 12.9197113 113.38896179 12.15354919 C113.32847071 10.02925231 113.32847071 10.02925231 111.16191101 8.27415466 C109.07824382 7.96781222 109.07824382 7.96781222 106.64494324 8.01345825 C105.21895561 8.00283104 105.21895561 8.00283104 103.76416016 7.99198914 C102.71785934 7.99446655 101.67155853 7.99694397 100.59355164 7.99949646 C99.4943187 7.99438553 98.39508575 7.9892746 97.26254272 7.98400879 C93.61436073 7.97006254 89.96636656 7.97107321 86.31816101 7.97337341 C83.79232207 7.96948954 81.26648379 7.96515552 78.74064636 7.96038818 C73.44110225 7.95291533 68.14162765 7.95308766 62.84208679 7.95848083 C56.71060152 7.96452454 50.57934549 7.95220149 44.44789934 7.93091077 C38.55537252 7.91119974 32.66291703 7.90811746 26.77035522 7.91164589 C24.26002463 7.9111308 21.74969052 7.90585809 19.23937988 7.89583397 C15.7361612 7.88356174 12.23347981 7.89020569 8.73027039 7.90184021 C7.16081917 7.8903746 7.16081917 7.8903746 5.55966187 7.87867737 C4.13367424 7.88919884 4.13367424 7.88919884 2.67887878 7.89993286 C1.85001915 7.89976512 1.02115952 7.89959738 0.16718292 7.89942455 C-0.49455681 8.02308549 -1.15629654 8.14674643 -1.83808899 8.27415466 Z " fill="#D8CFBC" transform="translate(124.83808898925781,109.72584533691406)"/>
<path d="M0 0 C0.97286957 -0.00708481 1.94573914 -0.01416962 2.9480896 -0.02146912 C4.53940704 -0.01775299 4.53940704 -0.01775299 6.16287231 -0.01396179 C7.28523285 -0.01907272 8.40759338 -0.02418365 9.56396484 -0.02944946 C13.27944246 -0.0433657 16.99473499 -0.04238704 20.7102356 -0.04008484 C23.29089426 -0.04397083 25.87155228 -0.0483053 28.45220947 -0.05307007 C33.86425112 -0.0605368 39.2762209 -0.06037596 44.68826294 -0.05497742 C50.93672449 -0.04894017 57.18496072 -0.06124293 63.43338382 -0.08254749 C69.45192466 -0.10231097 75.47034779 -0.10533437 81.48892593 -0.10181236 C84.04618992 -0.10232595 86.60345748 -0.10757073 89.16070175 -0.11762428 C92.73712267 -0.1299579 96.31302226 -0.12321471 99.88943481 -0.11161804 C101.47467957 -0.12308365 101.47467957 -0.12308365 103.09194946 -0.13478088 C108.44065882 -0.09643937 112.70634403 -0.05686525 117.1555481 3.26069641 C120.29814965 7.80706587 120.58778247 12.05023833 120.54373169 17.42158508 C120.55161713 18.61536018 120.55161713 18.61536018 120.55966187 19.83325195 C120.57280412 22.44859268 120.56414703 25.06331889 120.5539856 27.67866516 C120.55600739 29.5013643 120.55891971 31.32406266 120.56268311 33.14675903 C120.56709811 36.95882399 120.56069972 40.77067756 120.54666138 44.5827179 C120.52953344 49.47223486 120.53943861 54.3612591 120.55737877 59.25075817 C120.56820779 63.01080047 120.56477496 66.77072547 120.55699539 70.53077126 C120.55499283 72.33412548 120.55745462 74.13749031 120.56443405 75.94083214 C120.57203811 78.45684019 120.5604612 80.97204338 120.54373169 83.48799133 C120.54980438 84.23453979 120.55587708 84.98108826 120.56213379 85.7502594 C120.49965619 90.8123955 120.49965619 90.8123955 118.63128662 93.24649048 C118.14429291 93.58117844 117.65729919 93.91586639 117.1555481 94.26069641 C115.5055481 93.60069641 113.8555481 92.94069641 112.1555481 92.26069641 C112.1555481 74.11069641 112.1555481 55.96069641 112.1555481 37.26069641 C105.8855481 37.26069641 99.6155481 37.26069641 93.1555481 37.26069641 C92.1655481 36.27069641 91.1755481 35.28069641 90.1555481 34.26069641 C90.4855481 32.61069641 90.8155481 30.96069641 91.1555481 29.26069641 C98.0855481 29.26069641 105.0155481 29.26069641 112.1555481 29.26069641 C111.8255481 22.66069641 111.4955481 16.06069641 111.1555481 9.26069641 C73.2055481 9.26069641 35.2555481 9.26069641 -3.8444519 9.26069641 C-4.1744519 15.86069641 -4.5044519 22.46069641 -4.8444519 29.26069641 C-2.18390747 29.25545959 0.47663696 29.25022278 3.21780396 29.24482727 C11.9868858 29.22829221 20.75596832 29.21722553 29.52506161 29.20888424 C34.84420022 29.20365519 40.16332293 29.19655714 45.48245239 29.18525696 C50.61118795 29.17442886 55.73990815 29.16841974 60.86865425 29.16581917 C62.82996424 29.16396478 64.79127334 29.1603439 66.75257683 29.15496635 C69.48970257 29.14775695 72.22676407 29.14670543 74.96389771 29.14717102 C76.19280228 29.14177811 76.19280228 29.14177811 77.4465332 29.13627625 C83.04149593 29.14664425 83.04149593 29.14664425 84.1555481 30.26069641 C84.3430481 32.69819641 84.3430481 32.69819641 84.1555481 35.26069641 C81.58438586 37.83185865 79.8894174 37.49642642 76.38557434 37.50953674 C75.17608879 37.49875092 75.17608879 37.49875092 73.94216919 37.48774719 C73.0933165 37.48803925 72.24446381 37.4883313 71.36988831 37.4886322 C68.5561511 37.48723569 65.7426767 37.47165945 62.9289856 37.45600891 C60.98128402 37.45227992 59.03358058 37.44943241 57.08587646 37.44743347 C51.95330651 37.43978802 46.8208493 37.42013173 41.68832397 37.39802551 C36.45345587 37.37758669 31.21856958 37.36843596 25.9836731 37.35835266 C15.70758183 37.33688668 5.43157433 37.30273977 -4.8444519 37.26069641 C-4.73712407 48.84764553 -4.6245266 60.43453011 -4.50511265 72.02136135 C-4.44983752 77.40100445 -4.39641032 82.78065293 -4.34713745 88.16035461 C-4.29956143 93.34749312 -4.24722134 98.53456326 -4.19151115 103.72162056 C-4.17105686 105.70523957 -4.15234898 107.68887735 -4.13537788 109.67252922 C-4.11140168 112.44083857 -4.08133826 115.20901743 -4.04977417 117.97724915 C-4.04401871 118.8058696 -4.03826324 119.63449005 -4.03233337 120.48822021 C-4.33246535 124.17733545 -4.33246535 124.17733545 -2.8444519 127.26069641 C-0.20827164 127.3751671 2.4027843 127.42553477 5.04006958 127.4342804 C6.27904999 127.44431091 6.27904999 127.44431091 7.5430603 127.45454407 C9.34262534 127.46862768 11.1422086 127.48051109 12.94180107 127.49049187 C15.78631576 127.50684578 18.63069522 127.53008038 21.47514343 127.5553894 C29.56458855 127.62632518 37.65408891 127.68635806 45.74368286 127.73750305 C50.68563557 127.76923107 55.62743364 127.81049098 60.56926155 127.85769844 C62.45714609 127.87375645 64.34506631 127.88606035 66.2329998 127.89460564 C68.86937098 127.90671072 71.50537621 127.93083958 74.14163208 127.9577179 C74.92768326 127.95830704 75.71373444 127.95889618 76.52360535 127.95950317 C81.92765247 128.03280079 81.92765247 128.03280079 84.1555481 130.26069641 C84.3430481 132.82319641 84.3430481 132.82319641 84.1555481 135.26069641 C82.10589692 137.31034758 77.78686588 136.43890537 74.96731567 136.4535675 C74.10873962 136.461745 73.25016357 136.46992249 72.36557007 136.47834778 C69.51041369 136.50325752 66.6553073 136.51973423 63.80007935 136.53413391 C62.33984124 136.54211943 62.33984124 136.54211943 60.85010338 136.55026627 C55.69500896 136.57702533 50.53993897 136.59638916 45.38479614 136.61079407 C40.05924612 136.62742564 34.73431692 136.6721831 29.40900135 136.72316551 C25.31601758 136.75683069 21.22318103 136.76837089 17.13007164 136.77402115 C15.16726642 136.78073839 13.20447104 136.7959727 11.24180031 136.81991196 C8.49093882 136.85154338 5.7417489 136.85160311 2.99075317 136.8441925 C2.18168015 136.86059784 1.37260712 136.87700317 0.53901672 136.89390564 C-3.52430921 136.84917575 -6.09473223 136.47464184 -9.33415222 133.91172791 C-12.65914035 130.4003351 -12.96890408 128.03296481 -12.99162292 123.38464355 C-12.99877823 122.37949203 -13.00593353 121.37434052 -13.01330566 120.33872986 C-13.01599457 119.23685333 -13.01868347 118.13497681 -13.02145386 116.99971008 C-13.02802505 115.83848129 -13.03459625 114.6772525 -13.04136658 113.48083496 C-13.06111095 109.63011107 -13.07276393 105.77942618 -13.08273315 101.92866516 C-13.08884645 99.95816413 -13.08884645 99.95816413 -13.09508324 97.947855 C-13.11412857 91.71362033 -13.1283613 85.47939746 -13.13669521 79.2451393 C-13.14646734 72.05423611 -13.17278857 64.86364075 -13.2131961 57.67284602 C-13.24337542 52.11095172 -13.25816576 46.54914558 -13.26147622 40.98717099 C-13.26382457 37.66691974 -13.27473438 34.34707252 -13.29793739 31.02689171 C-13.32222908 27.32096585 -13.32138161 23.61584708 -13.31442261 19.90986633 C-13.32723267 18.8140625 -13.34004272 17.71825867 -13.35324097 16.58924866 C-13.31172945 10.52968167 -13.03997576 6.78931137 -8.8444519 2.26069641 C-5.81675318 0.39145911 -3.53316119 0.00859432 0 0 Z " fill="#D8CFBC" transform="translate(22.844451904296875,9.739303588867188)"/>
<path d="M0 0 C0.74664413 -0.00365067 1.49328827 -0.00730133 2.26255798 -0.01106262 C4.73191028 -0.0191721 7.20060717 -0.00555515 9.66992188 0.0090332 C11.38480631 0.00955176 13.09969135 0.00903422 14.8145752 0.00752258 C18.40918854 0.00761232 22.00357769 0.01804549 25.59814453 0.03613281 C30.20854351 0.05882008 34.81861483 0.0593643 39.42905426 0.05261517 C42.97034625 0.04927557 46.51156339 0.05590508 50.05284119 0.0657444 C51.75292062 0.06959686 53.45300837 0.07074442 55.15309143 0.06915855 C57.52800395 0.06878818 59.90249454 0.08139992 62.27734375 0.09765625 C62.98185165 0.09517883 63.68635956 0.09270142 64.41221619 0.09014893 C68.04849974 0.12992542 69.52281682 0.29507775 72.63867188 2.37231445 C73.02685547 4.31176758 73.02685547 4.31176758 73.03710938 6.65356445 C73.04097656 7.49532227 73.04484375 8.33708008 73.04882812 9.2043457 C73.03722656 10.08477539 73.025625 10.96520508 73.01367188 11.87231445 C73.02527344 12.75274414 73.036875 13.63317383 73.04882812 14.5402832 C73.04496094 15.38204102 73.04109375 16.22379883 73.03710938 17.09106445 C73.03372559 17.86385742 73.0303418 18.63665039 73.02685547 19.43286133 C72.63867188 21.37231445 72.63867188 21.37231445 69.63867188 23.37231445 C67.14742025 23.5661675 64.76849304 23.64541893 62.27734375 23.63110352 C61.53069962 23.63460815 60.78405548 23.63811279 60.01478577 23.64172363 C57.54557002 23.65052953 55.07664056 23.6446959 52.60742188 23.63793945 C50.89253687 23.63928643 49.17765225 23.64122724 47.46276855 23.64373779 C43.86820847 23.64668751 40.27374776 23.64239633 36.67919922 23.63305664 C32.06881551 23.62166218 27.45866465 23.62822246 22.84828949 23.64020157 C19.30700929 23.64742429 15.76578441 23.64513034 12.22450256 23.63994598 C10.52441887 23.63861063 8.82433017 23.64025322 7.12425232 23.64490509 C4.74936596 23.64997711 2.37485812 23.64225075 0 23.63110352 C-1.05676186 23.63717621 -1.05676186 23.63717621 -2.13487244 23.64337158 C-5.77446832 23.61167986 -7.2421929 23.45173793 -10.36132812 21.37231445 C-10.74951172 19.54052734 -10.74951172 19.54052734 -10.75976562 17.3449707 C-10.76363281 16.5528418 -10.7675 15.76071289 -10.77148438 14.94458008 C-10.75988281 14.11635742 -10.74828125 13.28813477 -10.73632812 12.43481445 C-10.74792969 11.61045898 -10.75953125 10.78610352 -10.77148438 9.93676758 C-10.76761719 9.14334961 -10.76375 8.34993164 -10.75976562 7.5324707 C-10.75638184 6.80680908 -10.75299805 6.08114746 -10.74951172 5.33349609 C-9.6120558 -0.41316015 -4.91374414 -0.05331292 0 0 Z M-2.36132812 8.37231445 C-2.36132812 10.68231445 -2.36132812 12.99231445 -2.36132812 15.37231445 C19.74867188 15.37231445 41.85867187 15.37231445 64.63867188 15.37231445 C64.63867188 13.06231445 64.63867188 10.75231445 64.63867188 8.37231445 C42.52867187 8.37231445 20.41867188 8.37231445 -2.36132812 8.37231445 Z " fill="#D8CFBC" transform="translate(148.361328125,151.627685546875)"/>
<path d="M0 0 C1.09256355 0.00607269 1.09256355 0.00607269 2.2071991 0.01226807 C2.97481064 0.00876343 3.74242218 0.00525879 4.53329468 0.00164795 C7.07768219 -0.00717455 9.621793 -0.00131847 12.16618347 0.00543213 C13.92973382 0.00408563 15.69328381 0.00214522 17.45683289 -0.00036621 C21.15572132 -0.00331817 24.85451327 0.00098247 28.5533905 0.01031494 C33.30178253 0.02170954 38.04994849 0.01515045 42.79833221 0.00317001 C46.44079806 -0.00404665 50.08321005 -0.00176156 53.72567749 0.0034256 C55.47682726 0.00476263 57.22798186 0.0031125 58.97912598 -0.00153351 C61.42377228 -0.0065956 63.86804916 0.00110682 66.31266785 0.01226807 C67.04104355 0.0082196 67.76941925 0.00417114 68.51986694 0 C73.5314046 0.04252826 73.5314046 0.04252826 75.75993347 2.27105713 C76.01872253 4.11871338 76.01872253 4.11871338 76.02555847 6.33355713 C76.02942566 7.52851807 76.02942566 7.52851807 76.03337097 8.74761963 C76.0256366 9.580354 76.01790222 10.41308838 76.00993347 11.27105713 C76.02153503 12.52015869 76.02153503 12.52015869 76.03337097 13.79449463 C76.03079285 14.59113525 76.02821472 15.38777588 76.02555847 16.20855713 C76.02330261 16.93945557 76.02104675 17.670354 76.01872253 18.42340088 C75.75993347 20.27105713 75.75993347 20.27105713 73.75993347 22.27105713 C71.24121355 22.46933163 68.83245681 22.5438517 66.31266785 22.52984619 C65.5450563 22.53335083 64.77744476 22.53685547 63.98657227 22.54046631 C61.44218476 22.54928881 58.89807395 22.54343272 56.35368347 22.53668213 C54.59013312 22.53802863 52.82658313 22.53996904 51.06303406 22.54248047 C47.36414562 22.54543243 43.66535368 22.54113179 39.96647644 22.53179932 C35.21808441 22.52040472 30.46991846 22.52696381 25.72153473 22.53894424 C22.07906888 22.54616091 18.4366569 22.54387581 14.79418945 22.53868866 C13.04303969 22.53735162 11.29188508 22.53900176 9.54074097 22.54364777 C7.09609466 22.54870985 4.65181779 22.54100744 2.2071991 22.52984619 C1.47882339 22.53389465 0.75044769 22.53794312 0 22.54211426 C-5.01153766 22.499586 -5.01153766 22.499586 -7.24006653 20.27105713 C-7.49885559 18.42340088 -7.49885559 18.42340088 -7.50569153 16.20855713 C-7.50826965 15.4119165 -7.51084778 14.61527588 -7.51350403 13.79449463 C-7.50576965 12.96176025 -7.49803528 12.12902588 -7.49006653 11.27105713 C-7.4978009 10.43832275 -7.50553528 9.60558838 -7.51350403 8.74761963 C-7.5109259 7.950979 -7.50834778 7.15433838 -7.50569153 6.33355713 C-7.50343567 5.60265869 -7.50117981 4.87176025 -7.49885559 4.11871338 C-6.87765381 -0.31643289 -3.73934633 0.03173235 0 0 Z M0.75993347 8.27105713 C0.75993347 10.25105713 0.75993347 12.23105713 0.75993347 14.27105713 C22.86993347 14.27105713 44.97993347 14.27105713 67.75993347 14.27105713 C67.75993347 12.29105713 67.75993347 10.31105713 67.75993347 8.27105713 C45.64993347 8.27105713 23.53993347 8.27105713 0.75993347 8.27105713 Z " fill="#D8CFBC" transform="translate(42.24006652832031,52.72894287109375)"/>
<path d="M0 0 C1.19109375 -0.02900391 2.3821875 -0.05800781 3.609375 -0.08789062 C14.91624954 -0.16830056 23.94120751 2.05212554 32.18359375 10.05859375 C38.61496656 17.52519759 40.11709731 25.71485946 41.125 35.3125 C41.65609375 34.79558594 42.1871875 34.27867188 42.734375 33.74609375 C43.44078125 33.08738281 44.1471875 32.42867187 44.875 31.75 C45.57109375 31.08871094 46.2671875 30.42742187 46.984375 29.74609375 C49.125 28.3125 49.125 28.3125 51.328125 28.53515625 C53.125 29.3125 53.125 29.3125 54.125 30.3125 C54.44951295 33.23311651 54.48858724 34.77860795 52.81152344 37.24121094 C52.20856445 37.83708008 51.60560547 38.43294922 50.984375 39.046875 C50.32566406 39.70300781 49.66695312 40.35914063 48.98828125 41.03515625 C48.29089844 41.70417969 47.59351563 42.37320313 46.875 43.0625 C45.85212891 44.08923828 45.85212891 44.08923828 44.80859375 45.13671875 C38.99174865 50.8406154 38.99174865 50.8406154 35.125 51.3125 C33.30078125 50.1953125 33.30078125 50.1953125 31.4375 48.4375 C30.41076172 47.47070312 30.41076172 47.47070312 29.36328125 46.484375 C28.62464844 45.76765625 27.88601562 45.0509375 27.125 44.3125 C26.29355469 43.55453125 25.46210938 42.7965625 24.60546875 42.015625 C23.78691406 41.24734375 22.96835938 40.4790625 22.125 39.6875 C21.361875 38.97335938 20.59875 38.25921875 19.8125 37.5234375 C18.125 35.3125 18.125 35.3125 17.75 32.6640625 C18.125 30.3125 18.125 30.3125 20.125 28.3125 C22.97067839 28.3125 24.61291825 28.87753174 26.78515625 30.72265625 C28.27402065 32.21152065 29.70371041 33.75899742 31.125 35.3125 C31.67677232 28.96711831 30.24596518 23.87516148 27.125 18.3125 C22.73610777 13.11970177 17.04812555 9.72063833 10.25024414 9.01342773 C6.93612727 8.86635229 3.62961767 8.78991947 0.3125 8.75 C-1.94415843 8.71567336 -4.20071177 8.67313187 -6.45703125 8.62109375 C-7.94553589 8.60260376 -7.94553589 8.60260376 -9.46411133 8.58374023 C-11.875 8.3125 -11.875 8.3125 -13.875 6.3125 C-14.0625 3.75 -14.0625 3.75 -13.875 1.3125 C-11.21016835 -1.35233165 -3.57620983 0.02811486 0 0 Z " fill="#D8CFBC" transform="translate(162.875,52.6875)"/>
<path d="M0 0 C1.01775513 -0.00315216 2.03551025 -0.00630432 3.08410645 -0.009552 C4.19137085 -0.00752777 5.29863525 -0.00550354 6.43945312 -0.00341797 C7.56766479 -0.00437469 8.69587646 -0.00533142 9.85827637 -0.00631714 C12.24910538 -0.00699915 14.63993624 -0.00514344 17.03076172 -0.00097656 C20.70479464 0.00437137 24.37870529 -0.0009209 28.05273438 -0.00732422 C30.3691409 -0.00666344 32.68554734 -0.00538229 35.00195312 -0.00341797 C36.66284973 -0.00645432 36.66284973 -0.00645432 38.3572998 -0.009552 C39.37505493 -0.00639984 40.39281006 -0.00324768 41.44140625 0 C42.79256531 0.00119339 42.79256531 0.00119339 44.17102051 0.00241089 C46.22070312 0.12939453 46.22070312 0.12939453 47.22070312 1.12939453 C47.34570312 4.12939453 47.34570312 4.12939453 47.22070312 7.12939453 C45.58278796 8.7673097 43.71550228 8.26506996 41.45727539 8.2746582 C39.93548424 8.28422798 39.93548424 8.28422798 38.38294983 8.29399109 C37.27882248 8.29510391 36.17469513 8.29621674 35.03710938 8.29736328 C33.91126938 8.30069168 32.78542938 8.30402008 31.62547302 8.30744934 C29.23884491 8.31252347 26.85220967 8.31485752 24.46557617 8.31469727 C20.80245338 8.31688304 17.1396319 8.33503193 13.4765625 8.35400391 C11.16341249 8.35693779 8.85026105 8.35892262 6.53710938 8.35986328 C4.8839547 8.37064156 4.8839547 8.37064156 3.19740295 8.38163757 C1.67088356 8.37702263 1.67088356 8.37702263 0.11352539 8.37231445 C-1.23430275 8.37445198 -1.23430275 8.37445198 -2.60935974 8.37663269 C-4.77929688 8.12939453 -4.77929688 8.12939453 -6.77929688 6.12939453 C-6.10376463 0.59003016 -5.4226981 0.00478951 0 0 Z " fill="#D7CFBC" transform="translate(144.779296875,180.87060546875)"/>
<path d="M0 0 C1.49164673 -0.00945648 1.49164673 -0.00945648 3.01342773 -0.019104 C4.09052002 -0.01505554 5.1676123 -0.01100708 6.27734375 -0.00683594 C7.37957275 -0.00874939 8.48180176 -0.01066284 9.61743164 -0.01263428 C11.95101143 -0.01399706 14.28459878 -0.01029416 16.61816406 -0.00195312 C20.20004222 0.00874485 23.78141878 -0.00184552 27.36328125 -0.01464844 C29.6263032 -0.01332686 31.88932483 -0.0107645 34.15234375 -0.00683594 C35.76798218 -0.01290863 35.76798218 -0.01290863 37.41625977 -0.019104 C38.41069092 -0.01279968 39.40512207 -0.00649536 40.4296875 0 C41.3074585 0.00159119 42.18522949 0.00318237 43.08959961 0.00482178 C45.21484375 0.25878906 45.21484375 0.25878906 47.21484375 2.25878906 C47.40234375 4.82128906 47.40234375 4.82128906 47.21484375 7.25878906 C46.21484375 8.25878906 46.21484375 8.25878906 44.12046814 8.37904358 C43.19891434 8.37682297 42.27736053 8.37460236 41.32788086 8.37231445 C40.28687729 8.37223892 39.24587372 8.37216339 38.17332458 8.37208557 C37.04104935 8.36692429 35.90877411 8.361763 34.7421875 8.35644531 C33.58940811 8.35503036 32.43662872 8.35361542 31.24891663 8.35215759 C27.55003311 8.34653911 23.85120911 8.33398348 20.15234375 8.32128906 C17.65169358 8.31627644 15.15104246 8.31171313 12.65039062 8.30761719 C6.50518787 8.29656368 0.36002006 8.27980758 -5.78515625 8.25878906 C-6.41015625 5.38378906 -6.41015625 5.38378906 -6.78515625 2.25878906 C-4.2757132 -0.25065399 -3.46751538 0.00628577 0 0 Z " fill="#D7CEBC" transform="translate(41.78515625,80.7412109375)"/>
<path d="M0 0 C6.96003447 -0.02526838 13.9200572 -0.04283222 20.88012695 -0.05493164 C23.24992312 -0.05997341 25.61971615 -0.06680665 27.98950195 -0.07543945 C31.38754039 -0.0875119 34.78553785 -0.09322971 38.18359375 -0.09765625 C39.25024765 -0.10281754 40.31690155 -0.10797882 41.4158783 -0.11329651 C42.88729027 -0.11340981 42.88729027 -0.11340981 44.38842773 -0.11352539 C45.25668686 -0.115746 46.12494598 -0.11796661 47.01951599 -0.12025452 C49 0 49 0 50 1 C50.25 3.4375 50.25 3.4375 50 6 C46.87047425 8.0863505 46.13949507 8.2537096 42.57617188 8.2746582 C41.23963562 8.28895622 41.23963562 8.28895622 39.87609863 8.30354309 C38.91667358 8.30263168 37.95724854 8.30172028 36.96875 8.30078125 C35.98128784 8.30506638 34.99382568 8.3093515 33.97644043 8.31376648 C31.88843554 8.31951012 29.80041063 8.32000979 27.71240234 8.31567383 C24.51234964 8.3125122 21.31321973 8.33597867 18.11328125 8.36132812 C16.08593867 8.36360089 14.0585936 8.36430472 12.03125 8.36328125 C10.59211243 8.37709587 10.59211243 8.37709587 9.12390137 8.39118958 C8.2328772 8.38496078 7.34185303 8.37873199 6.42382812 8.37231445 C5.24826355 8.37325859 5.24826355 8.37325859 4.0489502 8.3742218 C2 8 2 8 0.16101074 6.78923035 C-1 5 -1 5 -0.6875 2.3125 C-0.460625 1.549375 -0.23375 0.78625 0 0 Z " fill="#D8CFBC" transform="translate(139,224)"/>
<path d="M0 0 C1.40166664 -0.00956978 1.40166664 -0.00956978 2.83164978 -0.01933289 C3.84828201 -0.02044571 4.86491425 -0.02155853 5.91235352 -0.02270508 C6.94940933 -0.02603348 7.98646515 -0.02936188 9.0549469 -0.03279114 C11.25326085 -0.03786493 13.45158254 -0.04019932 15.64990234 -0.04003906 C19.02332177 -0.04222471 22.39641394 -0.06037347 25.76977539 -0.0793457 C27.90063364 -0.08227962 30.03149345 -0.08426443 32.16235352 -0.08520508 C33.17696152 -0.09239059 34.19156952 -0.09957611 35.23692322 -0.10697937 C36.17451981 -0.10390274 37.11211639 -0.10082611 38.078125 -0.09765625 C38.90561752 -0.09908127 39.73311005 -0.10050629 40.5856781 -0.10197449 C42.60375977 0.14526367 42.60375977 0.14526367 44.60375977 2.14526367 C44.04820421 6.70081923 44.04820421 6.70081923 42.60375977 8.14526367 C41.14119799 8.24867618 39.67371712 8.28376689 38.20751953 8.29052734 C36.80585289 8.30009712 36.80585289 8.30009712 35.37586975 8.30986023 C34.35923752 8.31097305 33.34260529 8.31208588 32.29516602 8.31323242 C31.2581102 8.31656082 30.22105438 8.31988922 29.15257263 8.32331848 C26.95425868 8.32839227 24.75593699 8.33072667 22.55761719 8.33056641 C19.18419776 8.33275205 15.81110559 8.35090081 12.43774414 8.36987305 C10.30688589 8.37280697 8.17602608 8.37479177 6.04516602 8.37573242 C5.03055801 8.38291794 4.01595001 8.39010345 2.97059631 8.39750671 C2.03299973 8.39443008 1.09540314 8.39135345 0.12939453 8.38818359 C-0.69809799 8.38960861 -1.52559052 8.39103363 -2.37815857 8.39250183 C-4.39624023 8.14526367 -4.39624023 8.14526367 -6.39624023 6.14526367 C-5.7514374 0.85788039 -5.21120758 0.02402824 0 0 Z " fill="#D7CEBC" transform="translate(41.396240234375,123.854736328125)"/>
<path d="M0 0 C1.6874269 0.00015917 3.37485866 0.00585622 5.06225586 0.01586914 C6.39189613 0.01799156 6.39189613 0.01799156 7.74839783 0.02015686 C10.59133215 0.02577324 13.43418892 0.03832848 16.27709961 0.05102539 C18.19962452 0.05603828 20.12215065 0.06060155 22.04467773 0.06469727 C26.7680151 0.07574798 31.49129419 0.09302356 36.21459961 0.11352539 C37.33959961 2.42602539 37.33959961 2.42602539 38.21459961 5.11352539 C37.55459961 6.10352539 36.89459961 7.09352539 36.21459961 8.11352539 C33.18723909 8.40498529 30.36773205 8.5092971 27.33959961 8.47680664 C26.01919678 8.4775544 26.01919678 8.4775544 24.67211914 8.47831726 C22.80930323 8.47597471 20.94648429 8.46623551 19.08374023 8.44970703 C16.22603164 8.42611975 13.36925574 8.42914387 10.51147461 8.43579102 C8.70417736 8.4302143 6.89688405 8.42310446 5.08959961 8.41430664 C3.80206787 8.41567375 3.80206787 8.41567375 2.48852539 8.41706848 C-3.55438231 8.34454347 -3.55438231 8.34454347 -5.78540039 6.11352539 C-5.0583487 0.15170153 -5.0583487 0.15170153 0 0 Z " fill="#D8CEBC" transform="translate(129.785400390625,123.886474609375)"/>
<path d="M0 0 C0.83446152 0.00045822 1.66892303 0.00091644 2.52867126 0.00138855 C4.29134545 0.00440794 6.05401704 0.0122849 7.81665039 0.0246582 C10.52044075 0.04292212 13.22388875 0.04516779 15.92773438 0.04492188 C17.63932589 0.04983693 19.35091508 0.0556652 21.0625 0.0625 C21.87396988 0.06361282 22.68543976 0.06472565 23.52149963 0.06587219 C29.2326913 0.11439253 29.2326913 0.11439253 31.46484375 1.23046875 C31.50738731 3.23001621 31.50565158 5.23088511 31.46484375 7.23046875 C29.542272 9.1530405 26.68399267 8.35955299 24.12609863 8.36941528 C23.23757202 8.36739105 22.34904541 8.36536682 21.43359375 8.36328125 C20.52734253 8.36423798 19.62109131 8.3651947 18.68737793 8.36618042 C16.76733328 8.36686228 14.84728634 8.36500757 12.92724609 8.36083984 C9.97748671 8.35549167 7.02787961 8.36078463 4.078125 8.3671875 C2.21744758 8.36652672 0.35677025 8.36524556 -1.50390625 8.36328125 C-2.83669617 8.3663176 -2.83669617 8.3663176 -4.19641113 8.36941528 C-10.42020637 8.34541863 -10.42020637 8.34541863 -11.53515625 7.23046875 C-11.78515625 4.79296875 -11.78515625 4.79296875 -11.53515625 2.23046875 C-7.67039594 -0.34603812 -4.47795033 -0.03975114 0 0 Z " fill="#D8CFBC" transform="translate(32.53515625,23.76953125)"/>
<path d="M0 0 C1.21880859 -0.01224609 2.43761719 -0.02449219 3.69335938 -0.03710938 C5.43649414 -0.04000977 5.43649414 -0.04000977 7.21484375 -0.04296875 C8.28726318 -0.04707764 9.35968262 -0.05118652 10.46459961 -0.05541992 C13.0625 0.1875 13.0625 0.1875 15.0625 2.1875 C14.50694444 6.74305556 14.50694444 6.74305556 13.0625 8.1875 C8.75602364 8.44092236 4.43804946 8.37272638 0.125 8.375 C-1.09380859 8.38724609 -2.31261719 8.39949219 -3.56835938 8.41210938 C-5.31149414 8.41500977 -5.31149414 8.41500977 -7.08984375 8.41796875 C-8.6984729 8.42413208 -8.6984729 8.42413208 -10.33959961 8.43041992 C-12.9375 8.1875 -12.9375 8.1875 -14.9375 6.1875 C-13.87751684 -2.50436188 -7.40312928 0.00390255 0 0 Z " fill="#D8CFBC" transform="translate(159.9375,212.8125)"/>
<path d="M0 0 C1.21880859 -0.020625 2.43761719 -0.04125 3.69335938 -0.0625 C4.85544922 -0.06765625 6.01753906 -0.0728125 7.21484375 -0.078125 C8.28726318 -0.0874707 9.35968262 -0.09681641 10.46459961 -0.10644531 C11.7505603 0.06999512 11.7505603 0.06999512 13.0625 0.25 C15.0625 3.25 15.0625 3.25 14.75 5.375 C14.0625 7.25 14.0625 7.25 13.0625 8.25 C8.75602364 8.50342236 4.43804946 8.43522638 0.125 8.4375 C-1.09380859 8.44974609 -2.31261719 8.46199219 -3.56835938 8.47460938 C-5.31149414 8.47750977 -5.31149414 8.47750977 -7.08984375 8.48046875 C-8.6984729 8.48663208 -8.6984729 8.48663208 -10.33959961 8.49291992 C-12.9375 8.25 -12.9375 8.25 -14.9375 6.25 C-13.87876737 -2.43160753 -7.40321557 0.03122073 0 0 Z " fill="#D7CEBC" transform="translate(159.9375,201.75)"/>
<path d="M0 0 C9.24 0 18.48 0 28 0 C29 5 29 5 27.90234375 6.78759766 C25.34980225 8.41438424 23.58071784 8.38791582 20.5625 8.3984375 C19.50289062 8.40230469 18.44328125 8.40617188 17.3515625 8.41015625 C16.24554688 8.39855469 15.13953125 8.38695312 14 8.375 C12.89398438 8.38660156 11.78796875 8.39820313 10.6484375 8.41015625 C9.58882812 8.40628906 8.52921875 8.40242187 7.4375 8.3984375 C6.46683594 8.39505371 5.49617187 8.39166992 4.49609375 8.38818359 C2 8 2 8 0.09765625 6.78759766 C-1 5 -1 5 0 0 Z " fill="#D8CFBC" transform="translate(146,192)"/>
<path d="M0 0 C1.084021 0.00523682 2.16804199 0.01047363 3.28491211 0.01586914 C5.03964844 0.02070312 5.03964844 0.02070312 6.82983398 0.02563477 C8.67738281 0.03820312 8.67738281 0.03820312 10.56225586 0.05102539 C12.41560547 0.05779297 12.41560547 0.05779297 14.30639648 0.06469727 C17.37089703 0.07652931 20.43530307 0.09301366 23.49975586 0.11352539 C24.62475586 2.42602539 24.62475586 2.42602539 25.49975586 5.11352539 C24.50975586 6.59852539 24.50975586 6.59852539 23.49975586 8.11352539 C20.91772461 8.48583984 20.91772461 8.48583984 17.68725586 8.47680664 C15.95088867 8.47583984 15.95088867 8.47583984 14.17944336 8.47485352 C12.96514648 8.45874023 11.75084961 8.44262695 10.49975586 8.42602539 C9.28545898 8.42924805 8.07116211 8.4324707 6.82006836 8.43579102 C-2.23342866 8.38034087 -2.23342866 8.38034087 -4.50024414 6.11352539 C-3.77559882 0.17143379 -3.77559882 0.17143379 0 0 Z " fill="#D8CEBC" transform="translate(46.500244140625,91.886474609375)"/>
<path d="M0 0 C1.10601562 -0.01611328 2.21203125 -0.03222656 3.3515625 -0.04882812 C4.41117188 -0.04947266 5.47078125 -0.05011719 6.5625 -0.05078125 C7.53316406 -0.05376221 8.50382812 -0.05674316 9.50390625 -0.05981445 C12.36883408 0.36751486 13.24045899 1.07197335 15 3.3125 C14.34 4.9625 13.68 6.6125 13 8.3125 C4.09 8.3125 -4.82 8.3125 -14 8.3125 C-14.33 6.3325 -14.66 4.3525 -15 2.3125 C-10.32754625 -0.80246916 -5.49414246 -0.01600857 0 0 Z " fill="#D8CFBB" transform="translate(57,112.6875)"/>
<path d="M0 0 C8.91 0 17.82 0 27 0 C27.66 1.65 28.32 3.3 29 5 C27.24045899 7.24052665 26.36883408 7.94498514 23.50390625 8.37231445 C22.53324219 8.3693335 21.56257813 8.36635254 20.5625 8.36328125 C18.97308594 8.36231445 18.97308594 8.36231445 17.3515625 8.36132812 C16.24554688 8.34521484 15.13953125 8.32910156 14 8.3125 C12.89398438 8.31572266 11.78796875 8.31894531 10.6484375 8.32226562 C2.40061924 8.26707949 2.40061924 8.26707949 -1 6 C-0.67 4.02 -0.34 2.04 0 0 Z " fill="#D8CFBB" transform="translate(43,103)"/>
</svg>
