<?xml version="1.0" encoding="UTF-8"?>
<svg version="1.1" xmlns="http://www.w3.org/2000/svg" width="256" height="256">
<path d="M0 0 C0.90688694 0.00223072 1.81377388 0.00446144 2.74814224 0.00675976 C4.18169241 0.00441978 4.18169241 0.00441978 5.64420319 0.00203252 C8.87254975 -0.00198191 12.10084995 0.00121387 15.32919693 0.00434887 C17.6331116 0.00299503 19.93702605 0.00121519 22.24094009 -0.00096118 C28.51761272 -0.00553752 34.794269 -0.00374514 41.07094193 -0.0005821 C47.62349875 0.00194048 54.17605412 -0.00039575 60.72861099 -0.00196826 C72.440835 -0.0041075 84.1530521 -0.00078928 95.86527491 0.00429107 C106.4951797 0.00875912 117.12507358 0.00798319 127.75497818 0.00337231 C140.08463486 -0.00197332 152.41428458 -0.00397436 164.74394226 -0.00101542 C171.27598457 0.00054782 177.80801935 0.00073982 184.34006119 -0.00255191 C190.4794884 -0.00542939 196.61889489 -0.00345722 202.75831985 0.00234234 C205.01870565 0.00367061 207.27909318 0.00327471 209.5394783 0.00107968 C212.61101005 -0.00162923 215.68247424 0.0017461 218.75400162 0.00675976 C219.66088856 0.00452904 220.5677755 0.00229832 221.50214386 0 C227.63692212 0.01959359 227.63692212 0.01959359 228.75107193 1.13374341 C228.85315557 3.51982511 228.88995012 5.87711405 228.8847847 8.2638551 C228.88705025 9.01875558 228.88931581 9.77365606 228.89165002 10.55143231 C228.89801872 13.10028756 228.89715883 15.64909003 228.8963356 18.19795239 C228.8993253 20.01749248 228.90272739 21.83703194 228.90651321 23.65657055 C228.91537655 28.6131025 228.9176923 33.5696172 228.918329 38.52615631 C228.91927613 42.65663539 228.92295214 46.78711041 228.9265011 50.91758794 C228.93465449 60.65834301 228.93708452 70.39908883 228.93637466 80.13984692 C228.9357736 90.20490207 228.94632918 100.26990367 228.96211833 110.33494526 C228.97517147 118.96167944 228.9805595 127.58839606 228.97991925 136.21514004 C228.97966361 141.37398009 228.98255096 146.53277257 228.99309731 151.69160283 C229.00274097 156.54161674 229.00288328 161.39153728 228.99558067 166.24155438 C228.99453017 168.02581746 228.99692509 169.81008624 229.00294113 171.59433949 C229.01059865 174.02188741 229.00605814 176.44910778 228.99831009 178.87664807 C229.00345365 179.5899657 229.00859722 180.30328333 229.01389664 181.03821665 C228.97934318 185.90547216 228.97934318 185.90547216 226.75107193 188.13374341 C224.10063089 188.32169951 221.55556379 188.38558201 218.90488052 188.36079419 C218.09504211 188.36108624 217.2852037 188.36137829 216.45082474 188.3616792 C213.76694497 188.3602829 211.08334086 188.34470775 208.39950943 188.32905591 C206.54148892 188.32532684 204.68346645 188.32247936 202.82544327 188.32048047 C197.92960579 188.31283564 193.03388654 188.2931799 188.13809586 188.27107251 C183.14452082 188.25063233 178.15092672 188.24148267 173.15732193 188.23139966 C163.35518659 188.20993478 153.55313908 188.17578863 143.75107193 188.13374341 C143.75107193 191.76374341 143.75107193 195.39374341 143.75107193 199.13374341 C145.04206802 199.11279614 146.33306412 199.09184887 147.6631813 199.07026684 C152.47882252 198.99755694 157.29441574 198.95183116 162.11044693 198.91401684 C164.18995718 198.89397181 166.26941156 198.86672827 168.34872818 198.83198559 C171.3475668 198.78315393 174.34565656 198.76070313 177.34482193 198.74311841 C178.26597794 198.72247326 179.18713394 198.70182812 180.13620377 198.68055737 C186.11504069 198.67850542 190.81844092 199.59375564 195.75107193 203.13374341 C200.08837892 208.61172799 200.298342 213.18476003 200.06357193 220.00874341 C200.05390396 220.87499341 200.04423599 221.74124341 200.03427505 222.63374341 C199.92015987 228.96465547 199.92015987 228.96465547 198.75107193 230.13374341 C196.48779738 230.23301905 194.22135662 230.26006782 191.95590591 230.26072705 C191.23705184 230.26228704 190.51819777 230.26384703 189.77756023 230.26545429 C187.35074165 230.26946679 184.92398481 230.2662737 182.49716568 230.26313794 C180.76467222 230.26449187 179.03217905 230.26627175 177.29968643 230.268448 C172.5808136 230.27302331 167.86196253 230.27123237 163.14308929 230.26806891 C158.21611088 230.26554581 153.2891344 230.26788271 148.36215591 230.26945508 C140.08651773 230.27127692 131.81088845 230.26887008 123.53525162 230.2641145 C113.95302332 230.25867185 104.3708163 230.2604345 94.78858852 230.2659409 C86.57715389 230.27047162 78.36572568 230.27112279 70.1542902 230.26850224 C65.2430963 230.26693923 60.33191241 230.26674634 55.42071915 230.27003872 C50.80464934 230.27291683 46.1886071 230.27094286 41.57254028 230.26514447 C39.87332454 230.26381654 38.1741065 230.26421153 36.47489166 230.26640713 C34.16530857 230.26911738 31.85581523 230.26573908 29.54623795 230.26072705 C28.25057404 230.26035002 26.95491013 230.259973 25.61998367 230.25958455 C22.75107193 230.13374341 22.75107193 230.13374341 21.75107193 229.13374341 C21.44383486 226.10205511 21.47255999 223.05407373 21.43857193 220.00874341 C21.40956802 219.16569653 21.38056412 218.32264966 21.3506813 217.45405591 C21.29026697 211.46838903 21.99231281 207.88102657 25.75107193 203.13374341 C31.5738488 198.9549271 37.19013994 198.58696846 44.15732193 198.74311841 C45.12262833 198.7487782 46.08793472 198.75443799 47.08249283 198.76026928 C50.1392091 198.78250378 53.19471521 198.83267565 56.25107193 198.88374341 C58.33438823 198.90382512 60.41772306 198.92207295 62.50107193 198.93843091 C67.58486533 198.98232616 72.66776408 199.05126337 77.75107193 199.13374341 C77.75107193 195.50374341 77.75107193 191.87374341 77.75107193 188.13374341 C76.71568283 188.13818463 75.68029373 188.14262585 74.61352921 188.14720166 C64.87207803 188.18768554 55.13064384 188.21769782 45.38912773 188.23736775 C40.38050846 188.24782007 35.37195691 188.26200561 30.36337662 188.28462231 C25.5328886 188.30629915 20.70246587 188.31830111 15.87193298 188.32349789 C14.02587608 188.32720295 12.17982287 188.33443765 10.33379364 188.34520352 C7.75487069 188.35964997 5.17622002 188.36172424 2.59726334 188.36079419 C1.82834259 188.36798474 1.05942184 188.37517529 0.26720047 188.38258374 C-5.02082375 188.36184773 -5.02082375 188.36184773 -7.24892807 186.13374341 C-7.44409501 183.67737281 -7.51388535 181.33396422 -7.49616623 178.87664807 C-7.49858064 178.1201876 -7.50099506 177.36372713 -7.50348264 176.58434361 C-7.50914217 174.03618929 -7.50043968 171.48828316 -7.49184799 168.94013989 C-7.49292031 167.11882979 -7.49485823 165.29752002 -7.49760056 163.47621167 C-7.50245978 158.51977595 -7.49478008 153.56342987 -7.48464751 148.607005 C-7.47588575 143.43045837 -7.47762408 138.25391471 -7.47800827 133.07736218 C-7.47707085 124.38398239 -7.468376 115.69063745 -7.45473862 106.9972688 C-7.43900734 96.93161829 -7.43374064 86.86600596 -7.43447417 76.80034405 C-7.43508352 67.13502891 -7.42998692 57.46972626 -7.42168236 47.80441487 C-7.41814243 43.68280514 -7.4163181 39.56119984 -7.41578865 35.43958867 C-7.41478757 30.59122191 -7.40871025 25.74288747 -7.39862251 20.89453137 C-7.39569009 19.10985079 -7.39447363 17.32516649 -7.39505005 15.54048359 C-7.39553719 13.11490586 -7.38992028 10.68942008 -7.38264084 8.2638551 C-7.38418944 7.54830675 -7.38573804 6.83275839 -7.38733357 6.09552675 C-7.35484992 -0.40419208 -6.36213871 0.02031975 0 0 Z M-0.24892807 7.13374341 C-0.24892807 59.60374341 -0.24892807 112.07374341 -0.24892807 166.13374341 C73.01107193 166.13374341 146.27107193 166.13374341 221.75107193 166.13374341 C221.75107193 113.66374341 221.75107193 61.19374341 221.75107193 7.13374341 C148.49107193 7.13374341 75.23107193 7.13374341 -0.24892807 7.13374341 Z M-0.24892807 173.13374341 C-0.24892807 175.77374341 -0.24892807 178.41374341 -0.24892807 181.13374341 C73.01107193 181.13374341 146.27107193 181.13374341 221.75107193 181.13374341 C221.75107193 178.49374341 221.75107193 175.85374341 221.75107193 173.13374341 C148.49107193 173.13374341 75.23107193 173.13374341 -0.24892807 173.13374341 Z M84.75107193 188.13374341 C84.75107193 191.76374341 84.75107193 195.39374341 84.75107193 199.13374341 C101.91107193 199.13374341 119.07107193 199.13374341 136.75107193 199.13374341 C136.75107193 195.50374341 136.75107193 191.87374341 136.75107193 188.13374341 C119.59107193 188.13374341 102.43107193 188.13374341 84.75107193 188.13374341 Z M30.75107193 209.13374341 C27.73412157 213.05824373 27.73412157 213.05824373 28.75107193 223.13374341 C82.87107193 223.13374341 136.99107193 223.13374341 192.75107193 223.13374341 C193.67088843 213.11753617 193.67088843 213.11753617 190.93857193 209.00874341 C187.33690727 205.92160227 184.30321235 206.00570531 179.72937393 205.99330151 C177.84084198 205.98473629 177.84084198 205.98473629 175.91415787 205.97599804 C174.51620875 205.9747527 173.11825952 205.9736276 171.72031021 205.97261059 C170.25016531 205.96798201 168.78002161 205.9629573 167.3098793 205.95756543 C163.31398136 205.94444421 159.31810021 205.93799714 155.32218409 205.93355477 C152.82606435 205.9306239 150.32994921 205.92651909 147.83383179 205.9220506 C140.02501831 205.90837707 132.21621533 205.89870942 124.40739071 205.8948487 C115.391244 205.89036663 106.37524879 205.87281128 97.35914814 205.84384811 C90.39091115 205.82223983 83.42271682 205.8121449 76.45444667 205.81080759 C72.2920435 205.80975904 68.12978278 205.80384071 63.96741486 205.78598797 C60.05218298 205.76952174 56.13720086 205.76734463 52.22194672 205.77612698 C50.78563646 205.77689811 49.34931286 205.77254462 47.91303635 205.76266873 C45.95097737 205.74996954 43.98881826 205.75761037 42.02673721 205.76625073 C40.92909105 205.76478417 39.83144489 205.76331761 38.70053673 205.76180661 C35.31630725 206.1885686 33.47258059 207.10485749 30.75107193 209.13374341 Z " fill="#D7CFBC" transform="translate(17.24892807006836,12.866256594657898)"/>
<path d="M0 0 C3.88867735 3.05538935 5.70008496 6.26433321 6.625 11.0625 C6.72729108 13.28646412 6.77342059 15.51322293 6.78613281 17.73950195 C6.79358017 18.73300659 6.79358017 18.73300659 6.80117798 19.74658203 C6.81574705 21.9313258 6.822593 24.11599694 6.828125 26.30078125 C6.83388105 27.82529196 6.83963872 29.34980266 6.84539795 30.87431335 C6.85589318 34.06945125 6.86174541 37.2645641 6.86523438 40.4597168 C6.87071416 44.54175104 6.89473716 48.62345091 6.92320633 52.70538044 C6.94188651 55.85478158 6.94704117 59.00410306 6.94857025 62.15355492 C6.95158549 63.65776585 6.95957569 65.16197576 6.97275543 66.66613197 C6.98992849 68.77678042 6.98790889 70.88662332 6.98144531 72.99731445 C6.98691376 74.79456718 6.98691376 74.79456718 6.99249268 76.62812805 C6.41498338 82.02519271 4.84440668 85.84309332 0.9375 89.75 C-14.88747179 101.52223511 -37.06712203 101.48679862 -55.7578125 98.75390625 C-65.1071383 96.9668321 -74.15841252 93.49532273 -80.8125 86.5 C-83.55774437 82.21741879 -83.50740469 78.41662788 -83.53613281 73.38549805 C-83.54109772 72.72316162 -83.54606262 72.0608252 -83.55117798 71.37841797 C-83.56574705 69.1936742 -83.572593 67.00900306 -83.578125 64.82421875 C-83.58388105 63.29970804 -83.58963872 61.77519734 -83.59539795 60.25068665 C-83.60589318 57.05554875 -83.61174541 53.8604359 -83.61523438 50.6652832 C-83.62071416 46.58324896 -83.64473716 42.50154909 -83.67320633 38.41961956 C-83.69188651 35.27021842 -83.69704117 32.12089694 -83.69857025 28.97144508 C-83.70158549 27.46723415 -83.70957569 25.96302424 -83.72275543 24.45886803 C-83.73992849 22.34821958 -83.73790889 20.23837668 -83.73144531 18.12768555 C-83.73509094 16.92951706 -83.73873657 15.73134857 -83.74249268 14.49687195 C-83.04517257 7.98012542 -80.48966037 3.26788742 -75.375 -0.9375 C-54.23351773 -14.37365844 -20.99754642 -12.05414702 0 0 Z M-74.1015625 7.57421875 C-75.54938787 9.05070648 -75.54938787 9.05070648 -76 11.375 C-75.15832386 14.99420742 -73.58048486 16.3699529 -70.70703125 18.640625 C-56.42466474 27.34880157 -34.79537721 27.26285266 -18.875 23.8125 C-12.44118995 21.98773097 -5.45275105 19.66940769 -1.375 14.0625 C-1.0333883 11.22029066 -0.87632774 9.70278916 -2.66796875 7.40234375 C-20.11126573 -5.50929257 -57.0143146 -7.3867879 -74.1015625 7.57421875 Z M-75.375 24.0625 C-76.12500239 31.93421141 -76.12500239 31.93421141 -73.4375 39.0625 C-58.37435427 48.89965639 -39.88191472 49.70801186 -22.5546875 46.7578125 C-15.20071182 45.14969497 -8.31954922 42.75556517 -2.375 38.0625 C-0.99273984 35.29797967 -1.27974613 33.0163637 -1.3125 29.9375 C-1.32152344 28.84179688 -1.33054687 27.74609375 -1.33984375 26.6171875 C-1.35144531 25.77414063 -1.36304688 24.93109375 -1.375 24.0625 C-2.20902344 24.40023437 -3.04304688 24.73796875 -3.90234375 25.0859375 C-25.29962572 33.5664181 -48.741657 34.78397371 -70.375 26.0625 C-71.30699219 25.69125 -72.23898438 25.32 -73.19921875 24.9375 C-73.91722656 24.64875 -74.63523437 24.36 -75.375 24.0625 Z M-75.375 46.0625 C-76.31478812 54.63042382 -76.31478812 54.63042382 -73 62.125 C-71.32070143 63.19868657 -71.32070143 63.19868657 -69.375 64.0625 C-68.63636719 64.42601562 -67.89773437 64.78953125 -67.13671875 65.1640625 C-51.24674299 72.2093787 -30.83432825 72.36722617 -14.375 67.0625 C-7.04914282 64.22099296 -7.04914282 64.22099296 -1.375 59.0625 C-1.0113838 55.86111932 -1.0113838 55.86111932 -1.1875 52.375 C-1.21457031 51.19550781 -1.24164063 50.01601562 -1.26953125 48.80078125 C-1.32173828 47.44533203 -1.32173828 47.44533203 -1.375 46.0625 C-2.055625 46.38863281 -2.73625 46.71476562 -3.4375 47.05078125 C-23.09739356 55.91341944 -46.04729874 56.86706494 -66.5234375 50.0078125 C-69.54971376 48.81984732 -72.46857793 47.51571104 -75.375 46.0625 Z M-75.375 69.0625 C-76.25614532 76.28849033 -76.25614532 76.28849033 -74.23828125 83.0546875 C-62.58215987 93.94878642 -43.20321607 92.66607547 -28.53027344 92.25048828 C-19.53957111 91.71483053 -11.71124611 89.43148458 -4.375 84.0625 C-3.76011719 83.61261719 -3.14523438 83.16273438 -2.51171875 82.69921875 C-0.74457638 80.15477664 -1.08939376 77.91629342 -1.1875 74.875 C-1.21457031 73.78832031 -1.24164063 72.70164062 -1.26953125 71.58203125 C-1.32173828 70.33486328 -1.32173828 70.33486328 -1.375 69.0625 C-2.06722656 69.34996094 -2.75945312 69.63742188 -3.47265625 69.93359375 C-6.55479122 71.13243225 -9.65364202 72.14646096 -12.8125 73.125 C-14.45025391 73.63740234 -14.45025391 73.63740234 -16.12109375 74.16015625 C-34.45835237 79.24527839 -56.42025315 77.61337666 -73.375 69.0625 C-74.035 69.0625 -74.695 69.0625 -75.375 69.0625 Z " fill="#D8CFBB" transform="translate(166.375,72.9375)"/>
<path d="M0 0 C3.46252455 1.40681282 5.47419966 3.66094776 7.85546875 6.43359375 C8.33072998 6.97016602 8.80599121 7.50673828 9.2956543 8.05957031 C16.08261495 15.7791856 22.5412182 23.75889397 28.60546875 32.05859375 C27.94546875 33.37859375 27.28546875 34.69859375 26.60546875 36.05859375 C22.97546875 36.05859375 19.34546875 36.05859375 15.60546875 36.05859375 C15.60768936 36.90828232 15.60990997 37.75797089 15.61219788 38.63340759 C15.63219889 46.623961 15.64744191 54.61450605 15.65728092 62.6050787 C15.66250921 66.7135366 15.66960588 70.82197389 15.6809082 74.93041992 C15.691739 78.89206203 15.69774599 82.85368427 15.70034599 86.81534004 C15.70219989 88.33007686 15.70581985 89.84481254 15.71119881 91.35954094 C15.71841182 93.47401188 15.71945958 95.58839969 15.71899414 97.70288086 C15.72121475 98.90867294 15.72343536 100.11446503 15.72572327 101.35679626 C15.60546875 104.05859375 15.60546875 104.05859375 14.60546875 105.05859375 C12.39896219 105.15871776 10.18924489 105.18940555 7.98046875 105.19140625 C7.31837402 105.19236298 6.6562793 105.1933197 5.97412109 105.19430542 C4.57193914 105.19498701 3.16975405 105.19313417 1.76757812 105.18896484 C-0.38548838 105.18361621 -2.53834627 105.18891045 -4.69140625 105.1953125 C-6.05078171 105.19465171 -7.41015705 105.19337054 -8.76953125 105.19140625 C-10.01476562 105.19027832 -11.26 105.18915039 -12.54296875 105.18798828 C-15.39453125 105.05859375 -15.39453125 105.05859375 -16.39453125 104.05859375 C-16.48874865 101.94178058 -16.51195886 99.82178617 -16.50805664 97.70288086 C-16.50820267 97.03949203 -16.50834869 96.37610321 -16.50849915 95.69261169 C-16.50780006 93.49035419 -16.5000079 91.2881803 -16.4921875 89.0859375 C-16.49032331 87.56279039 -16.48889941 86.03964268 -16.48789978 84.51649475 C-16.48407471 80.50021724 -16.47424453 76.48397567 -16.4631958 72.4677124 C-16.45298144 68.37236009 -16.44840211 64.27700199 -16.44335938 60.18164062 C-16.43262225 52.14060847 -16.41554597 44.09960558 -16.39453125 36.05859375 C-20.02453125 36.05859375 -23.65453125 36.05859375 -27.39453125 36.05859375 C-28.05453125 34.73859375 -28.71453125 33.41859375 -29.39453125 32.05859375 C-23.8458358 24.67335826 -17.87483308 17.68428149 -11.81640625 10.71826172 C-10.52399888 9.20971342 -9.26946931 7.66892021 -8.01953125 6.125 C-7.33890625 5.29871094 -6.65828125 4.47242188 -5.95703125 3.62109375 C-5.09271484 2.54021484 -5.09271484 2.54021484 -4.2109375 1.4375 C-2.39453125 0.05859375 -2.39453125 0.05859375 0 0 Z M-3.34765625 12 C-4.105625 12.86496094 -4.86359375 13.72992188 -5.64453125 14.62109375 C-6.44246094 15.52988281 -7.24039063 16.43867187 -8.0625 17.375 C-8.83207031 18.26058594 -9.60164063 19.14617188 -10.39453125 20.05859375 C-11.34779297 21.12400391 -11.34779297 21.12400391 -12.3203125 22.2109375 C-15.34779175 25.18829936 -15.34779175 25.18829936 -16.39453125 29.05859375 C-14.08453125 29.38859375 -11.77453125 29.71859375 -9.39453125 30.05859375 C-9.39453125 52.49859375 -9.39453125 74.93859375 -9.39453125 98.05859375 C-3.45453125 98.05859375 2.48546875 98.05859375 8.60546875 98.05859375 C8.60546875 75.61859375 8.60546875 53.17859375 8.60546875 30.05859375 C12.07046875 29.56359375 12.07046875 29.56359375 15.60546875 29.05859375 C13.50223509 24.48645631 10.38862272 21.07603074 7.10546875 17.30859375 C6.51121094 16.61121094 5.91695312 15.91382813 5.3046875 15.1953125 C4.73363281 14.53660156 4.16257812 13.87789062 3.57421875 13.19921875 C3.05279297 12.59625977 2.53136719 11.99330078 1.99414062 11.37207031 C-0.36219743 9.14332581 -1.13825859 9.80385872 -3.34765625 12 Z " fill="#D8CFBC" transform="translate(65.39453125,26.94140625)"/>
<path d="M0 0 C3.94723499 0.87266835 5.88556405 3.45123715 8.41796875 6.40234375 C9.20022827 7.28224976 9.20022827 7.28224976 9.99829102 8.17993164 C14.03753114 12.75814918 17.94513019 17.44739235 21.75390625 22.21875 C23.355255 24.20246162 25.01499813 26.08165952 26.73046875 27.96484375 C28.66796875 30.58984375 28.66796875 30.58984375 29.04296875 33.40234375 C28.66796875 35.58984375 28.66796875 35.58984375 27.66796875 36.58984375 C24.03796875 36.58984375 20.40796875 36.58984375 16.66796875 36.58984375 C16.66796875 59.02984375 16.66796875 81.46984375 16.66796875 104.58984375 C13.80961389 106.01902118 11.35539156 105.71965184 8.1640625 105.72265625 C6.86662109 105.72394531 5.56917969 105.72523438 4.23242188 105.7265625 C3.21740601 105.72342041 3.21740601 105.72342041 2.18188477 105.72021484 C0.1101146 105.71485577 -1.96143964 105.72016893 -4.03320312 105.7265625 C-5.32935547 105.72527344 -6.62550781 105.72398437 -7.9609375 105.72265625 C-9.1579126 105.72152832 -10.3548877 105.72040039 -11.58813477 105.71923828 C-14.33203125 105.58984375 -14.33203125 105.58984375 -15.33203125 104.58984375 C-15.42624865 102.47303058 -15.44945886 100.35303617 -15.44555664 98.23413086 C-15.44570267 97.57074203 -15.44584869 96.90735321 -15.44599915 96.22386169 C-15.44530006 94.02160419 -15.4375079 91.8194303 -15.4296875 89.6171875 C-15.42782331 88.09404039 -15.42639941 86.57089268 -15.42539978 85.04774475 C-15.42157471 81.03146724 -15.41174453 77.01522567 -15.4006958 72.9989624 C-15.39048144 68.90361009 -15.38590211 64.80825199 -15.38085938 60.71289062 C-15.37012225 52.67185847 -15.35304597 44.63085558 -15.33203125 36.58984375 C-18.96203125 36.58984375 -22.59203125 36.58984375 -26.33203125 36.58984375 C-26.99203125 35.26984375 -27.65203125 33.94984375 -28.33203125 32.58984375 C-23.71066164 26.43886589 -18.80297796 20.57534261 -13.75268555 14.77636719 C-10.22426814 10.70481699 -6.96771246 6.52217619 -3.9296875 2.06640625 C-2.33203125 0.58984375 -2.33203125 0.58984375 0 0 Z M-2.28515625 12.53125 C-3.043125 13.39621094 -3.80109375 14.26117188 -4.58203125 15.15234375 C-5.37996094 16.06113281 -6.17789063 16.96992187 -7 17.90625 C-7.76957031 18.79183594 -8.53914063 19.67742188 -9.33203125 20.58984375 C-10.28529297 21.65525391 -10.28529297 21.65525391 -11.2578125 22.7421875 C-14.28529175 25.71954936 -14.28529175 25.71954936 -15.33203125 29.58984375 C-13.02203125 29.91984375 -10.71203125 30.24984375 -8.33203125 30.58984375 C-8.33203125 53.02984375 -8.33203125 75.46984375 -8.33203125 98.58984375 C-2.39203125 98.58984375 3.54796875 98.58984375 9.66796875 98.58984375 C9.66796875 76.14984375 9.66796875 53.70984375 9.66796875 30.58984375 C13.13296875 30.09484375 13.13296875 30.09484375 16.66796875 29.58984375 C15.12435805 25.99638444 12.94178541 23.50796171 10.29296875 20.65234375 C7.91681288 18.08148614 5.63786403 15.55066414 3.50390625 12.7734375 C2.89804688 12.05285156 2.2921875 11.33226562 1.66796875 10.58984375 C-0.55459781 10.35485179 -0.55459781 10.35485179 -2.28515625 12.53125 Z " fill="#D8CFBC" transform="translate(190.33203125,26.41015625)"/>
<path d="M0 0 C0.33 1.65 0.66 3.3 1 5 C-2.48563351 7.39014869 -4.74528094 8.47274656 -9 8 C-10 7 -10 7 -10.0625 4.4375 C-10.041875 3.633125 -10.02125 2.82875 -10 2 C-6.5980513 -0.09350689 -3.94727588 -0.17942163 0 0 Z " fill="#D8CEBC" transform="translate(160,149)"/>
<path d="M0 0 C0.33 1.65 0.66 3.3 1 5 C-2.48563351 7.39014869 -4.74528094 8.47274656 -9 8 C-10 7 -10 7 -10.0625 4.4375 C-10.041875 3.633125 -10.02125 2.82875 -10 2 C-6.5980513 -0.09350689 -3.94727588 -0.17942163 0 0 Z " fill="#D7CFBC" transform="translate(160,127)"/>
<path d="M0 0 C0.33 1.65 0.66 3.3 1 5 C-2.48563351 7.39014869 -4.74528094 8.47274656 -9 8 C-10 7 -10 7 -10.0625 4.4375 C-10.041875 3.633125 -10.02125 2.82875 -10 2 C-6.5980513 -0.09350689 -3.94727588 -0.17942163 0 0 Z " fill="#D7CFBB" transform="translate(160,104)"/>
</svg>
