<?xml version="1.0" encoding="UTF-8"?>
<svg version="1.1" xmlns="http://www.w3.org/2000/svg" width="256" height="256">
<path d="M0 0 C0.93342224 -0.00335861 1.86684448 -0.00671722 2.82855225 -0.01017761 C5.9247774 -0.01970387 9.02094859 -0.02163145 12.1171875 -0.02270508 C14.26188174 -0.02591609 16.40657576 -0.02928004 18.55126953 -0.03279114 C23.0504609 -0.03878632 27.54963304 -0.0406306 32.04882812 -0.04003906 C37.8262733 -0.03993733 43.60359588 -0.05359975 49.38101196 -0.07081127 C53.81095959 -0.08190474 58.24087731 -0.0839591 62.6708374 -0.08342934 C64.80157901 -0.08461308 66.93232131 -0.08905673 69.06304932 -0.0967617 C72.03691313 -0.10650977 75.01050726 -0.10370435 77.984375 -0.09765625 C78.87171326 -0.10327576 79.75905151 -0.10889526 80.67327881 -0.11468506 C86.76387121 -0.08305262 86.76387121 -0.08305262 88.9921875 2.14526367 C89.1799576 4.64488613 89.24412821 7.03270564 89.21923828 9.5324707 C89.21953033 10.29354126 89.21982239 11.05461182 89.22012329 11.83874512 C89.21872731 14.36030384 89.20315368 16.88156892 89.1875 19.40307617 C89.18377082 21.14899535 89.1809234 22.89491661 89.17892456 24.64083862 C89.17128061 29.24076087 89.15162563 33.84055724 89.1295166 38.44042969 C89.10907454 43.13238827 89.09992636 47.82436716 89.08984375 52.51635742 C89.06838042 61.72604821 89.03423533 70.93564548 88.9921875 80.14526367 C90.19343262 80.13479004 91.39467773 80.12431641 92.63232422 80.11352539 C97.07890862 80.0773908 101.52547998 80.0543871 105.97216797 80.03540039 C107.89862244 80.02532785 109.82506158 80.01166924 111.75146484 79.99438477 C114.51664002 79.97019126 117.2816135 79.95879331 120.046875 79.94995117 C120.9115036 79.9396286 121.7761322 79.92930603 122.66696167 79.91867065 C124.77672271 79.91827261 126.88599468 80.02261124 128.9921875 80.14526367 C132.74102511 83.89410128 131.48659794 90.41548866 131.52758789 95.52856445 C131.55435408 97.74268302 131.62917194 99.95189481 131.70507812 102.16479492 C131.72175177 103.58794 131.73551258 105.01112275 131.74609375 106.43432617 C131.77002197 107.72032715 131.7939502 109.00632812 131.81860352 110.33129883 C130.0724588 118.38987277 122.11287665 124.06117282 116.14501953 129.37597656 C108.45127674 136.31367966 100.87208312 143.36195108 93.35042 150.48580265 C88.81611589 154.77059618 84.2503979 159.00352232 79.58105469 163.14111328 C54.32816555 184.90681113 54.32816555 184.90681113 44.24039268 215.39909649 C43.95456964 224.39974018 44.5882661 233.32666972 45.70602417 242.25340271 C45.80045807 243.53771683 45.89489197 244.82203094 45.9921875 246.14526367 C43.53215963 248.60529155 42.14424911 248.39078372 38.78552246 248.42315674 C38.08028442 248.41910828 37.37504639 248.41505981 36.6484375 248.41088867 C35.92354126 248.41280212 35.19864502 248.41471558 34.45178223 248.41668701 C32.91853488 248.41804854 31.385276 248.41435431 29.85205078 248.40600586 C27.50136491 248.39530545 25.15144327 248.40590176 22.80078125 248.41870117 C21.31249831 248.41737957 19.82421584 248.41481716 18.3359375 248.41088867 C17.63069946 248.41493713 16.92546143 248.4189856 16.19885254 248.42315674 C11.22211236 248.37518853 11.22211236 248.37518853 8.9921875 246.14526367 C9.18154252 244.10846717 9.38867781 242.07177219 9.68467712 240.04772186 C12.09183136 223.21744624 12.91424285 205.55180899 2.38017273 191.34589386 C-7.14422395 179.7295629 -18.27713018 169.55086329 -29.43539715 159.53302336 C-34.58647949 154.89989021 -39.60615823 150.13327369 -44.62055016 145.35318995 C-53.17343357 137.20221336 -61.80253321 129.14092579 -70.56375122 121.21386719 C-71.27046967 120.57080627 -71.97718811 119.92774536 -72.70532227 119.26519775 C-73.32254654 118.70734211 -73.93977081 118.14948647 -74.57569885 117.5747261 C-78.48075498 113.67689925 -77.17581879 107.83985361 -77.19335938 102.69213867 C-77.19327881 101.94641602 -77.19319824 101.20069336 -77.19311523 100.43237305 C-77.19530393 98.1541889 -77.21347054 95.87648725 -77.23242188 93.59838867 C-77.23535543 92.155682 -77.23734048 90.71297302 -77.23828125 89.27026367 C-77.24239014 87.9528418 -77.24649902 86.63541992 -77.25073242 85.27807617 C-77.0078125 82.14526367 -77.0078125 82.14526367 -75.0078125 80.14526367 C-71.99472299 79.96979885 -69.07470796 79.91398922 -66.0625 79.94995117 C-64.73498215 79.95419601 -64.73498215 79.95419601 -63.38064575 79.95852661 C-60.54789838 79.96974127 -57.71546466 79.99484797 -54.8828125 80.02026367 C-52.96484831 80.03029182 -51.04687917 80.03941796 -49.12890625 80.04760742 C-44.42175374 80.06968478 -39.71483634 80.10422322 -35.0078125 80.14526367 C-35.03112892 79.15713684 -35.03112892 79.15713684 -35.05491638 78.14904785 C-35.21020704 71.27077914 -35.31553333 64.39301105 -35.39233398 57.51342773 C-35.42745965 54.94876873 -35.47517186 52.38424914 -35.53588867 49.82006836 C-35.62114666 46.12603311 -35.66058247 42.43385587 -35.69140625 38.73901367 C-35.74559975 37.02917297 -35.74559975 37.02917297 -35.80088806 35.28479004 C-35.80365903 29.62187853 -35.51804217 26.01476101 -31.73583984 21.63720703 C-30.51647497 20.44882812 -29.27575005 19.28167448 -28.0078125 18.14526367 C-27.24106201 17.33581299 -26.47431152 16.5263623 -25.68432617 15.69238281 C-24.69009644 14.69646118 -24.69009644 14.69646118 -23.67578125 13.68041992 C-22.94037109 12.9437207 -22.20496094 12.20702148 -21.44726562 11.44799805 C-20.70412109 10.7087207 -19.96097656 9.96944336 -19.1953125 9.20776367 C-18.43283203 8.44141602 -17.67035156 7.67506836 -16.88476562 6.88549805 C-16.15580078 6.15782227 -15.42683594 5.43014648 -14.67578125 4.68041992 C-14.01860107 4.02436768 -13.3614209 3.36831543 -12.68432617 2.69238281 C-8.95534564 -0.74879232 -4.79573418 -0.0024493 0 0 Z M-3.0078125 8.14526367 C-3.3378125 15.40526367 -3.6678125 22.66526367 -4.0078125 30.14526367 C-9.44942174 35.58687291 -19.32015261 31.79582459 -27.0078125 32.14526367 C-27.0078125 47.98526367 -27.0078125 63.82526367 -27.0078125 80.14526367 C8.6321875 80.14526367 44.2721875 80.14526367 80.9921875 80.14526367 C80.9921875 56.38526367 80.9921875 32.62526367 80.9921875 8.14526367 C53.2721875 8.14526367 25.5521875 8.14526367 -3.0078125 8.14526367 Z M-14.07421875 16.07885742 C-14.89792969 16.90514648 -15.72164062 17.73143555 -16.5703125 18.58276367 C-17.39660156 19.40647461 -18.22289062 20.23018555 -19.07421875 21.07885742 C-21.12168785 22.79529647 -21.12168785 22.79529647 -21.0078125 24.14526367 C-17.7078125 24.14526367 -14.4078125 24.14526367 -11.0078125 24.14526367 C-11.0078125 20.84526367 -11.0078125 17.54526367 -11.0078125 14.14526367 C-12.35777971 14.03138832 -12.35777971 14.03138832 -14.07421875 16.07885742 Z M-69.0078125 88.14526367 C-69.0078125 95.07526367 -69.0078125 102.00526367 -69.0078125 109.14526367 C-5.6478125 109.14526367 57.7121875 109.14526367 122.9921875 109.14526367 C122.9921875 102.21526367 122.9921875 95.28526367 122.9921875 88.14526367 C59.6321875 88.14526367 -3.7278125 88.14526367 -69.0078125 88.14526367 Z M-62.0078125 117.14526367 C-57.46257477 122.56744211 -57.46257477 122.56744211 -52.55961609 127.42436218 C-51.94699417 127.97621689 -51.33437225 128.52807159 -50.70318604 129.09664917 C-50.05307556 129.67560944 -49.40296509 130.2545697 -48.7331543 130.85107422 C-41.53415573 137.34277592 -34.44222727 143.93780219 -27.40393353 150.60335064 C-23.15958912 154.61380084 -18.88593002 158.57585841 -14.51538086 162.44873047 C17.15935004 190.60679925 17.15935004 190.60679925 18.66601467 211.44026279 C19.02403324 221.11395871 18.19274608 230.55126419 16.9921875 240.14526367 C23.9221875 240.14526367 30.8521875 240.14526367 37.9921875 240.14526367 C37.61698975 237.37539062 37.24179199 234.60551758 36.85522461 231.75170898 C35.13250591 214.49787505 34.93717722 198.24048208 46.29345703 184.22924805 C54.96537872 174.16798826 64.85774561 165.24719398 74.75512695 156.41937256 C79.4726642 152.16599868 84.06523017 147.78172778 88.66992188 143.40698242 C96.07093983 136.39884166 103.53591917 129.46983592 111.11677551 122.65632629 C112.08644257 121.7799778 112.08644257 121.7799778 113.07569885 120.88592529 C113.64222451 120.37746944 114.20875017 119.8690136 114.79244328 119.34514999 C116.11003165 118.31020474 116.11003165 118.31020474 115.9921875 117.14526367 C57.2521875 117.14526367 -1.4878125 117.14526367 -62.0078125 117.14526367 Z " fill="#D7CEBC" transform="translate(101.0078125,3.854736328125)"/>
<path d="M0 0 C1.06605469 0.00410889 2.13210937 0.00821777 3.23046875 0.01245117 C4.38804687 0.01438477 5.545625 0.01631836 6.73828125 0.01831055 C7.95257813 0.03055664 9.166875 0.04280273 10.41796875 0.05541992 C11.63226563 0.05606445 12.8465625 0.05670898 14.09765625 0.05737305 C23.13747451 0.1026728 23.13747451 0.1026728 25.41796875 1.24291992 C26.44409473 4.32129787 26.53887094 6.40866288 26.53149414 9.63232422 C26.53141861 10.73323898 26.53134308 11.83415375 26.53126526 12.96842957 C26.52610397 14.15600357 26.52094269 15.34357758 26.515625 16.56713867 C26.51421005 17.7836763 26.5127951 19.00021393 26.51133728 20.25361633 C26.50573187 24.14590902 26.49317842 28.03814456 26.48046875 31.93041992 C26.47545445 34.5664868 26.47089142 37.20255458 26.46679688 39.83862305 C26.45576068 46.30674409 26.43849237 52.77482231 26.41796875 59.24291992 C30.37796875 59.24291992 34.33796875 59.24291992 38.41796875 59.24291992 C39.3828125 61.71948242 39.3828125 61.71948242 39.41796875 65.24291992 C37.33489826 68.41133408 34.67391242 70.96460644 31.98046875 73.61791992 C31.27986328 74.33463867 30.57925781 75.05135742 29.85742188 75.78979492 C27.72883301 77.95950647 25.5766751 80.10320512 23.41796875 82.24291992 C21.96825859 83.69294962 20.51902088 85.14345186 19.0703125 86.59448242 C17.85297107 87.81073485 16.63553347 89.02689103 15.41796875 90.24291992 C14.89485107 90.81179932 14.3717334 91.38067871 13.83276367 91.96679688 C12.41796875 93.24291992 12.41796875 93.24291992 10.12890625 93.30932617 C6.22237826 91.77260839 3.89995302 89.19168887 1.04296875 86.18041992 C0.46861084 85.58986816 -0.10574707 84.99931641 -0.69750977 84.39086914 C-4.26706363 80.69648449 -7.76908737 76.94739461 -11.078125 73.01635742 C-12.14089002 71.76312282 -13.24154245 70.5415579 -14.3671875 69.34448242 C-14.93308594 68.7334668 -15.49898437 68.12245117 -16.08203125 67.49291992 C-16.58734375 66.96182617 -17.09265625 66.43073242 -17.61328125 65.88354492 C-18.58203125 64.24291992 -18.58203125 64.24291992 -18.30078125 62.10229492 C-17.58203125 60.24291992 -17.58203125 60.24291992 -16.58203125 59.24291992 C-14.56238926 59.17047939 -12.54036001 59.15914804 -10.51953125 59.18041992 C-8.86244141 59.19395508 -8.86244141 59.19395508 -7.171875 59.20776367 C-6.31722656 59.21936523 -5.46257812 59.2309668 -4.58203125 59.24291992 C-4.58647247 58.5332608 -4.5909137 57.82360168 -4.5954895 57.09243774 C-4.63552605 50.41194925 -4.66599513 43.73149412 -4.68565559 37.05091286 C-4.69610295 33.61616533 -4.7102793 30.18151675 -4.73291016 26.74682617 C-4.75875188 22.80022354 -4.76849618 18.85366129 -4.77734375 14.90698242 C-4.78766632 13.67049957 -4.79798889 12.43401672 -4.80862427 11.1600647 C-4.80877533 10.0190329 -4.80892639 8.8780011 -4.80908203 7.70239258 C-4.81352325 6.69423492 -4.81796448 5.68607727 -4.82254028 4.64736938 C-4.47222561 1.14515608 -3.47152229 0.32660407 0 0 Z M3.41796875 8.24291992 C3.08796875 27.05291992 2.75796875 45.86291992 2.41796875 65.24291992 C0.43796875 65.90291992 -1.54203125 66.56291992 -3.58203125 67.24291992 C-1.9233962 71.56796828 1.28900975 74.33710818 4.54296875 77.49291992 C5.10628906 78.0472168 5.66960937 78.60151367 6.25 79.17260742 C7.63482903 80.53396477 9.02580079 81.88906851 10.41796875 83.24291992 C11.49111328 82.1678418 11.49111328 82.1678418 12.5859375 81.07104492 C14.41522686 79.24111031 16.25202376 77.4198233 18.09375 75.60229492 C18.96386719 74.74120117 19.83398438 73.88010742 20.73046875 72.99291992 C22.05498047 71.68581055 22.05498047 71.68581055 23.40625 70.35229492 C25.53299491 68.60812187 25.53299491 68.60812187 25.41796875 67.24291992 C21.95296875 66.74791992 21.95296875 66.74791992 18.41796875 66.24291992 C18.41796875 47.10291992 18.41796875 27.96291992 18.41796875 8.24291992 C13.46796875 8.24291992 8.51796875 8.24291992 3.41796875 8.24291992 Z " fill="#D9D0BA" transform="translate(212.58203125,158.757080078125)"/>
<path d="M0 0 C1.21429688 -0.01224609 2.42859375 -0.02449219 3.6796875 -0.03710938 C5.41605469 -0.04000977 5.41605469 -0.04000977 7.1875 -0.04296875 C8.78658203 -0.04913208 8.78658203 -0.04913208 10.41796875 -0.05541992 C13 0.1875 13 0.1875 15 2.1875 C15.24050903 4.59194946 15.24050903 4.59194946 15.22705078 7.64697266 C15.22689972 8.78800446 15.22674866 9.92903625 15.22659302 11.10464478 C15.21627045 12.34112762 15.20594788 13.57761047 15.1953125 14.8515625 C15.1924826 16.11390717 15.18965271 17.37625183 15.18673706 18.67684937 C15.17742131 22.03396944 15.15944835 25.39081912 15.1373291 28.74786377 C15.1168755 32.17303122 15.1077364 35.59822659 15.09765625 39.0234375 C15.07556458 45.74486671 15.04206377 52.46616773 15 59.1875 C15.84304687 59.16429687 16.68609375 59.14109375 17.5546875 59.1171875 C19.19824219 59.09011719 19.19824219 59.09011719 20.875 59.0625 C22.51082031 59.02769531 22.51082031 59.02769531 24.1796875 58.9921875 C27 59.1875 27 59.1875 29 61.1875 C28.91559816 64.7263484 28.07137494 66.10488783 25.7421875 68.80078125 C24.79601563 69.69152344 23.84984375 70.58226562 22.875 71.5 C19.55230353 74.68561181 16.3002787 77.86730621 13.3125 81.375 C12.20951699 82.64686079 11.10531881 83.91766862 10 85.1875 C9.34257813 85.94804687 8.68515625 86.70859375 8.0078125 87.4921875 C2.92376049 93.03668196 2.92376049 93.03668196 -1.0625 93.6875 C-4.62954243 91.86603153 -6.45245528 89.72193449 -8.94921875 86.6328125 C-11.31086351 83.81683228 -13.87844412 81.25658029 -16.5 78.6875 C-18.33459988 76.85543409 -20.16800633 75.02217202 -22 73.1875 C-22.75796875 72.43855469 -23.5159375 71.68960938 -24.296875 70.91796875 C-29.0142166 65.98362944 -29.0142166 65.98362944 -28.9375 61.6875 C-28.628125 60.8625 -28.31875 60.0375 -28 59.1875 C-24.04 59.1875 -20.08 59.1875 -16 59.1875 C-16.00523682 57.53709717 -16.01047363 55.88669434 -16.01586914 54.1862793 C-16.03394027 48.07544495 -16.04543979 41.96461297 -16.05493164 35.85375977 C-16.059967 33.20662031 -16.06679563 30.55948365 -16.07543945 27.91235352 C-16.08753979 24.11213493 -16.09323622 20.31195305 -16.09765625 16.51171875 C-16.10281754 15.32414474 -16.10797882 14.13657074 -16.11329651 12.91300964 C-16.11337204 11.81209488 -16.11344757 10.71118011 -16.11352539 9.5769043 C-16.115746 8.60649704 -16.11796661 7.63608978 -16.12025452 6.63627625 C-16 4.1875 -16 4.1875 -15 1.1875 C-10.65149046 -0.98675477 -4.77642634 0.00253526 0 0 Z M-8 8.1875 C-8 27.3275 -8 46.4675 -8 66.1875 C-11.465 66.6825 -11.465 66.6825 -15 67.1875 C-10.40525596 72.58632424 -5.72323727 77.90083087 -1 83.1875 C4.24284116 78.8184657 9.51941304 74.35472236 14 69.1875 C14 68.5275 14 67.8675 14 67.1875 C12.02 66.5275 10.04 65.8675 8 65.1875 C7.67 46.3775 7.34 27.5675 7 8.1875 C2.05 8.1875 -2.9 8.1875 -8 8.1875 Z " fill="#D9D0BA" transform="translate(33,158.8125)"/>
<path d="M0 0 C0.75625168 -0.0049649 1.51250336 -0.00992981 2.29167175 -0.01504517 C4.79870506 -0.02967593 7.30567512 -0.03646975 9.81274414 -0.04199219 C11.55147809 -0.04774222 13.29021202 -0.05349997 15.02894592 -0.05926514 C18.67652686 -0.06977727 22.32408573 -0.07561876 25.97167969 -0.07910156 C30.65051999 -0.08459137 35.32907002 -0.10862875 40.00781918 -0.13707352 C43.59970458 -0.15567539 47.19151966 -0.16090415 50.78344917 -0.16243744 C52.50866854 -0.16546929 54.23388652 -0.17351569 55.95905876 -0.18662262 C58.37006768 -0.20363474 60.78036205 -0.2018152 63.19140625 -0.1953125 C63.90683594 -0.20452728 64.62226563 -0.21374207 65.359375 -0.22323608 C68.2833015 -0.19847128 70.2090735 -0.15519655 72.64283752 1.55059814 C73.66040039 3.16113281 73.66040039 3.16113281 73.41040039 5.28613281 C72.66040039 7.16113281 72.66040039 7.16113281 71.66040039 8.16113281 C69.17625091 8.26678564 66.71976206 8.30791556 64.23486328 8.30639648 C63.4576442 8.3097551 62.68042511 8.31311371 61.87965393 8.3165741 C59.2974388 8.32611242 56.71528831 8.32802864 54.13305664 8.32910156 C52.34565707 8.33231214 50.55825777 8.33567605 48.77085876 8.33918762 C45.01894522 8.34518611 41.26705473 8.34702679 37.51513672 8.34643555 C32.69835216 8.34633388 27.88171487 8.35998734 23.06496525 8.37720776 C19.37189551 8.38830529 15.67886162 8.39035545 11.9857769 8.38982582 C10.20950246 8.39100929 8.43322719 8.39545146 6.65696907 8.40315819 C4.17631733 8.41291298 1.69598854 8.41009807 -0.78466797 8.40405273 C-1.52396545 8.40967224 -2.26326294 8.41529175 -3.02496338 8.42108154 C-8.11128397 8.38944845 -8.11128397 8.38944845 -10.33959961 6.16113281 C-10.08959961 3.59863281 -10.08959961 3.59863281 -9.33959961 1.16113281 C-6.34905526 -0.33413936 -3.28014714 0.00511077 0 0 Z " fill="#D7CEBC" transform="translate(96.339599609375,67.8388671875)"/>
<path d="M0 0 C1.1199662 -0.00306656 1.1199662 -0.00306656 2.26255798 -0.00619507 C4.73192799 -0.00920447 7.20063116 0.00927886 9.66992188 0.02832031 C11.38480463 0.0313779 13.09968987 0.03325402 14.8145752 0.03399658 C18.40919494 0.03860071 22.0035908 0.05303035 25.59814453 0.07519531 C30.2084804 0.10347771 34.81863988 0.11440679 39.42905426 0.11887741 C42.97033456 0.12303234 46.51157912 0.13285045 50.05284119 0.1447525 C51.75292169 0.1504544 53.45300562 0.15521338 55.15309143 0.15901947 C57.52790369 0.16588655 59.90257616 0.17952118 62.27734375 0.1953125 C63.33410561 0.19698929 63.33410561 0.19698929 64.41221619 0.19869995 C67.43227898 0.22532581 69.74854432 0.39306946 72.63867188 1.35644531 C73.26367188 3.73144531 73.26367188 3.73144531 73.63867188 6.35644531 C71.13848776 8.85662943 69.6600989 8.59158258 66.24946594 8.60528564 C65.12413704 8.59449982 65.12413704 8.59449982 63.97607422 8.58349609 C63.18574295 8.58378815 62.39541168 8.5840802 61.58113098 8.5843811 C58.96217974 8.58298493 56.34351107 8.56741037 53.72460938 8.55175781 C51.9114294 8.5480287 50.09824741 8.54518125 48.2850647 8.54318237 C43.50759336 8.53553789 38.73024321 8.51588243 33.95281982 8.49377441 C29.07989135 8.47333351 24.20694334 8.46418442 19.33398438 8.45410156 C9.7688269 8.43263728 0.20375946 8.39849154 -9.36132812 8.35644531 C-10.04882812 6.04394531 -10.04882812 6.04394531 -10.36132812 3.35644531 C-8.15260833 -0.68901243 -4.08929398 -0.05348692 0 0 Z " fill="#D7CFBC" transform="translate(96.361328125,48.6435546875)"/>
<path d="M0 0 C1.64510941 0.00015915 3.29022379 0.00585551 4.93530273 0.01586914 C6.23164894 0.01799156 6.23164894 0.01799156 7.55418396 0.02015686 C10.32578941 0.025773 13.09731528 0.0383282 15.86889648 0.05102539 C17.74324428 0.05603831 19.61759334 0.06060158 21.49194336 0.06469727 C26.09679192 0.07574767 30.70158069 0.09302309 35.30639648 0.11352539 C36.43139648 4.86352539 36.43139648 4.86352539 35.30639648 7.11352539 C29.77051115 7.13817314 24.23465748 7.15636035 18.69873047 7.16845703 C16.81395919 7.17349783 14.92919184 7.18033037 13.04443359 7.18896484 C10.34138013 7.20104156 7.63837818 7.20675608 4.93530273 7.21118164 C4.08738663 7.21634293 3.23947052 7.22150421 2.36585999 7.2268219 C0.3456858 7.22701734 -1.67438286 7.1755875 -3.69360352 7.11352539 C-4.69360352 6.11352539 -4.69360352 6.11352539 -4.81860352 3.61352539 C-4.61868772 -0.38479043 -4.18339841 0.12857957 0 0 Z " fill="#D7CEBB" transform="translate(133.693603515625,30.886474609375)"/>
</svg>
