<?xml version="1.0" encoding="UTF-8"?>
<svg version="1.1" xmlns="http://www.w3.org/2000/svg" width="256" height="256">
<path d="M0 0 C64.68 0 129.36 0 196 0 C196 23 196 23 192 29 C190.09228516 30.26538086 190.09228516 30.26538086 188.1640625 31.02734375 C183.90430064 32.94059324 180.81286674 35.44085213 177.375 38.5625 C176.15581641 39.63918161 174.93440101 40.71334052 173.7109375 41.78515625 C173.09573242 42.32414551 172.48052734 42.86313477 171.84667969 43.41845703 C168.97424801 45.87847983 165.99353068 48.19012757 163 50.5 C157.54030907 54.72925183 152.26801422 59.13550511 147.0456543 63.65356445 C142.65029028 67.45454202 138.19071644 71.16544905 133.67578125 74.82421875 C131.76681967 76.37646927 129.86960587 77.94321373 127.98046875 79.51953125 C126.50513672 80.74736328 126.50513672 80.74736328 125 82 C124.113125 82.7425 123.22625 83.485 122.3125 84.25 C120 86 120 86 117 87 C117 94.59 117 102.18 117 110 C114.36 110 111.72 110 109 110 C108.70709956 105.68895621 108.53120625 101.38048713 108.375 97.0625 C108.24931641 95.24395508 108.24931641 95.24395508 108.12109375 93.38867188 C107.87941416 84.47069491 107.87941416 84.47069491 111.0793457 80.27099609 C113.61551345 77.97802251 116.20587059 75.96688476 119 74 C120.48306641 72.74703125 120.48306641 72.74703125 121.99609375 71.46875 C123.20458984 70.49421875 123.20458984 70.49421875 124.4375 69.5 C125.82388672 68.37658203 125.82388672 68.37658203 127.23828125 67.23046875 C128.14964844 66.49441406 129.06101563 65.75835937 130 65 C131.70950953 63.60560743 133.41782467 62.2097494 135.125 60.8125 C136.02605469 60.07515625 136.92710937 59.3378125 137.85546875 58.578125 C141.72028406 55.41128191 145.57939627 52.23751414 149.4375 49.0625 C150.10475098 48.51376221 150.77200195 47.96502441 151.45947266 47.3996582 C157.66185386 42.2924709 163.82735607 37.14386994 170 32 C122.48 32 74.96 32 26 32 C34.27822989 39.09562562 42.53711782 46.13888539 51 53 C54.6704613 55.99536873 58.33580827 58.99696754 62 62 C62.66402832 62.54382324 63.32805664 63.08764648 64.01220703 63.64794922 C66.23849906 65.47218178 68.46313799 67.29841478 70.6875 69.125 C71.3882666 69.69887451 72.0890332 70.27274902 72.81103516 70.86401367 C73.49601074 71.42709229 74.18098633 71.9901709 74.88671875 72.5703125 C75.48701904 73.06289551 76.08731934 73.55547852 76.70581055 74.06298828 C77.46289307 74.70220215 78.21997559 75.34141602 79 76 C79.66093658 76.41977615 80.32187317 76.83955231 81.00283813 77.27204895 C84.58170621 79.806169 86.67468743 81.66890613 87.73783875 86.01904297 C88.0217495 89.77371765 88.05767137 93.48542942 88 97.24609375 C88.00752765 98.62616761 88.01856968 100.00622635 88.03295898 101.38624573 C88.06127189 104.9986133 88.04218652 108.60919829 88.01287842 112.22149658 C87.99141135 115.91535805 88.01524912 119.60890518 88.03515625 123.30273438 C88.06751862 130.53559987 88.04975973 137.76718347 88 145 C88.56509277 144.66677734 89.13018555 144.33355469 89.71240234 143.99023438 C92.26398724 142.48899331 94.819419 140.9944274 97.375 139.5 C98.26445312 138.97535156 99.15390625 138.45070312 100.0703125 137.91015625 C100.92109375 137.41386719 101.771875 136.91757813 102.6484375 136.40625 C103.82672119 135.71499023 103.82672119 135.71499023 105.02880859 135.00976562 C107 134 107 134 109 134 C109 128.39 109 122.78 109 117 C111.64 117 114.28 117 117 117 C117.79125915 124.25898338 118.59206738 131.8097468 117 139 C113.86120945 142.86862315 110.49298649 144.41462182 105.890625 146.19042969 C103.91083807 147.03817936 102.21000329 148.0527384 100.40625 149.2265625 C99.51993896 149.79528076 99.51993896 149.79528076 98.61572266 150.37548828 C98.04128418 150.74657715 97.4668457 151.11766602 96.875 151.5 C90.11368885 155.79814401 88.23915775 155 79 155 C79 132.56 79 110.12 79 87 C77.02 86.01 77.02 86.01 75 85 C73.00141637 83.38575937 71.05758858 81.75179705 69.125 80.0625 C64.52785959 76.10332476 59.86009989 72.27596517 55.0625 68.5625 C49.58255776 64.30846488 44.28715891 59.87842952 39.03930664 55.34228516 C33.77418719 50.79214541 28.42478678 46.3590715 23 42 C22.42685059 41.5364209 21.85370117 41.0728418 21.26318359 40.59521484 C19.40965221 39.09875434 17.54949035 37.6109173 15.6875 36.125 C15.11257812 35.6602124 14.53765625 35.1954248 13.9453125 34.71655273 C11.25103601 32.58215128 8.91242297 30.95912366 5.76953125 29.4921875 C3 28 3 28 0 23 C0 15.41 0 7.82 0 0 Z M8 8 C8 11.96 8 15.92 8 20 C10.87596917 22.87596917 12.87874735 22.25161791 16.90869141 22.25396729 C17.62769434 22.25708727 18.34669727 22.26020725 19.08748817 22.26342177 C21.50892844 22.27143129 23.93012015 22.26506676 26.3515625 22.25878906 C28.08258207 22.26149762 29.81360048 22.26505778 31.5446167 22.26940918 C36.2552547 22.27855158 40.96580541 22.27498133 45.67644501 22.26865101 C50.59761293 22.26360057 55.5187732 22.26827979 60.43994141 22.27142334 C68.70541735 22.27506578 76.9708576 22.2702566 85.23632812 22.26074219 C94.80324222 22.24985711 104.37007108 22.25338249 113.93698311 22.264395 C122.13911737 22.27345996 130.34122592 22.27475703 138.54336357 22.26951766 C143.44731926 22.2663936 148.35123485 22.26600054 153.25518799 22.27259064 C157.86473852 22.278352 162.47417877 22.27438949 167.08371735 22.26280212 C168.77928738 22.26014904 170.47486663 22.26093162 172.17043304 22.26532745 C174.47751849 22.27075892 176.7842462 22.26397836 179.09130859 22.25396729 C180.38475189 22.25321323 181.67819519 22.25245918 183.01083374 22.25168228 C186.11621926 22.31397168 186.11621926 22.31397168 188 20 C188 16.04 188 12.08 188 8 C128.6 8 69.2 8 8 8 Z " fill="#D8CFBC" transform="translate(30,101)"/>
<path d="M0 0 C8.085 0.495 16.17 0.99 24.5 1.5 C24.5 32.52 24.5 63.54 24.5 95.5 C-0.58 95.5 -25.66 95.5 -51.5 95.5 C-51.995 84.445 -52.49 73.39 -53 62 C-53.21849609 58.56400391 -53.43699219 55.12800781 -53.66210938 51.58789062 C-54.1915109 37.51396713 -53.73202518 25.58740315 -44.20385742 14.49316406 C-31.32873253 0.72514852 -18.49857741 -1.61916286 0 0 Z M-42.5 28.5 C-45.24657786 38.55489579 -44.29944955 48.90235816 -43.6875 59.1875 C-43.295625 68.530625 -42.90375 77.87375 -42.5 87.5 C-23.03 87.5 -3.56 87.5 16.5 87.5 C16.5 61.76 16.5 36.02 16.5 9.5 C7.1878125 8.9121875 7.1878125 8.9121875 -2.3125 8.3125 C-4.22780518 8.13952393 -6.14311035 7.96654785 -8.11645508 7.78833008 C-23.49890302 6.96154192 -35.56733597 14.61264483 -42.5 28.5 Z " fill="#D7CEBB" transform="translate(186.5,-1.5)"/>
<path d="M0 0 C0 31.02 0 62.04 0 94 C-25.08 94 -50.16 94 -76 94 C-76 80.14 -76 66.28 -76 52 C-73.36 52 -70.72 52 -68 52 C-68 63.22 -68 74.44 -68 86 C-48.53 86 -29.06 86 -9 86 C-9 60.26 -9 34.52 -9 8 C-34.63227079 5.57769495 -34.63227079 5.57769495 -57.49169922 15.00732422 C-63.93043337 21.74154627 -68.35429951 28.16982213 -68.6875 37.6875 C-68.61034907 40.18697112 -68.3652434 42.51952093 -68 45 C-70.64 45 -73.28 45 -76 45 C-78.29460636 34.80174949 -77.89219229 26.43201303 -72.484375 17.26171875 C-54.97266565 -7.85009445 -27.67468306 -1.69436835 0 0 Z " fill="#D7CEBB" transform="translate(121,0)"/>
<path d="M0 0 C2.64 0 5.28 0 8 0 C8.33 13.86 8.66 27.72 9 42 C10.32 41.01 11.64 40.02 13 39 C15.475 41.475 15.475 41.475 18 44 C16.38989473 48.07376031 13.46177729 50.76507069 10.375 53.75 C9.859375 54.25660156 9.34375 54.76320312 8.8125 55.28515625 C7.54616661 56.52803902 6.2736856 57.76465276 5 59 C1.18683522 57.41043716 -1.372784 54.99239303 -4.3125 52.125 C-5.66794922 50.82949219 -5.66794922 50.82949219 -7.05078125 49.5078125 C-9 47 -9 47 -8.953125 44.8203125 C-7.54779425 42.13636114 -5.42801522 40.74319041 -3 39 C-2.34 39.66 -1.68 40.32 -1 41 C-0.67 27.47 -0.34 13.94 0 0 Z " fill="#D8CFBC" transform="translate(228,26)"/>
<path d="M0 0 C2.64 0 5.28 0 8 0 C8.495 20.295 8.495 20.295 9 41 C9.99 40.34 10.98 39.68 12 39 C14.5625 41.25 14.5625 41.25 17 44 C17 47.23940166 15.67292704 48.36534203 13.49609375 50.796875 C12.48411419 51.78901182 11.46429231 52.77320132 10.4375 53.75 C9.91736328 54.25660156 9.39722656 54.76320312 8.86132812 55.28515625 C7.58089916 56.53034405 6.29132446 57.76611502 5 59 C0.92623969 57.38989473 -1.76507069 54.46177729 -4.75 51.375 C-5.25660156 50.859375 -5.76320313 50.34375 -6.28515625 49.8125 C-7.52803902 48.54616661 -8.76465276 47.2736856 -10 46 C-8.47427344 42.67364118 -7.06655496 41.04436998 -4 39 C-3.01 39.99 -2.02 40.98 -1 42 C-0.67 28.14 -0.34 14.28 0 0 Z " fill="#D8CFBA" transform="translate(20,26)"/>
<path d="M0 0 C15.18 0 30.36 0 46 0 C46 2.64 46 5.28 46 8 C30.82 8 15.64 8 0 8 C0 5.36 0 2.72 0 0 Z " fill="#D7CFBC" transform="translate(150,67)"/>
<path d="M0 0 C15.18 0 30.36 0 46 0 C46 2.64 46 5.28 46 8 C30.82 8 15.64 8 0 8 C0 5.36 0 2.72 0 0 Z " fill="#D7CFBC" transform="translate(60,67)"/>
<path d="M0 0 C15.18 0 30.36 0 46 0 C46 2.64 46 5.28 46 8 C30.82 8 15.64 8 0 8 C0 5.36 0 2.72 0 0 Z " fill="#D7CFBC" transform="translate(60,52)"/>
<path d="M0 0 C15.18 0 30.36 0 46 0 C46 2.64 46 5.28 46 8 C30.82 8 15.64 8 0 8 C0 5.36 0 2.72 0 0 Z " fill="#D7CFBC" transform="translate(150,37)"/>
<path d="M0 0 C6.6 0 13.2 0 20 0 C20 2.64 20 5.28 20 8 C13.4 8 6.8 8 0 8 C0 5.36 0 2.72 0 0 Z " fill="#D7CFBC" transform="translate(150,52)"/>
<path d="M0 0 C6.6 0 13.2 0 20 0 C20 2.64 20 5.28 20 8 C13.4 8 6.8 8 0 8 C0 5.36 0 2.72 0 0 Z " fill="#D7CFBC" transform="translate(86,37)"/>
<path d="M0 0 C6.27 0 12.54 0 19 0 C19 2.64 19 5.28 19 8 C12.73 8 6.46 8 0 8 C0 5.36 0 2.72 0 0 Z " fill="#D7CFBC" transform="translate(177,52)"/>
<path d="M0 0 C6.27 0 12.54 0 19 0 C19 2.64 19 5.28 19 8 C12.73 8 6.46 8 0 8 C0 5.36 0 2.72 0 0 Z " fill="#D7CFBC" transform="translate(60,37)"/>
<path d="M0 0 C2.97 0 5.94 0 9 0 C9 2.64 9 5.28 9 8 C6.03 8 3.06 8 0 8 C0 5.36 0 2.72 0 0 Z " fill="#D7CEBB" transform="translate(97,15)"/>
<path d="M0 0 C2.97 0 5.94 0 9 0 C9 2.64 9 5.28 9 8 C6.03 8 3.06 8 0 8 C0 5.36 0 2.72 0 0 Z " fill="#D7CEBB" transform="translate(82,15)"/>
<path d="M0 0 C2.64 0 5.28 0 8 0 C8 2.64 8 5.28 8 8 C5.36 8 2.72 8 0 8 C0 5.36 0 2.72 0 0 Z " fill="#D7CEBC" transform="translate(188,15)"/>
<path d="M0 0 C2.64 0 5.28 0 8 0 C8 2.64 8 5.28 8 8 C5.36 8 2.72 8 0 8 C0 5.36 0 2.72 0 0 Z " fill="#D7CEBC" transform="translate(173,15)"/>
</svg>
