<?xml version="1.0" encoding="UTF-8"?>
<svg version="1.1" xmlns="http://www.w3.org/2000/svg" width="256" height="256">
<path d="M0 0 C4.90239986 2.27611422 7.62337705 5.15873102 10 10 C10.60116146 13.66253833 10.86807649 17.29294942 11 21 C11.78761719 21.20753906 12.57523438 21.41507813 13.38671875 21.62890625 C23.15761077 24.39250766 32.91338942 28.10042538 40.5625 35 C42.75634974 37.23126126 42.75634974 37.23126126 45.1875 37 C47.3671458 35.7974368 48.51658567 35.03236144 50 33 C50.17119249 29.22059664 49.92899083 25.53746984 49.71484375 21.76171875 C50.13345799 16.23945147 52.57701916 13.3518318 56.5 9.625 C61.66500009 7.22696425 66.4002288 7.24618465 72 8 C76.8846525 10.26787438 79.73212562 13.1153475 82 18 C82.75381535 23.5997712 82.77303575 28.33499991 80.375 33.5 C76.66137889 37.40907485 73.78534652 39.88022833 68.2734375 40.25 C66.98695313 40.1675 65.70046875 40.085 64.375 40 C59.07517595 39.53942083 59.07517595 39.53942083 54.4765625 41.75 C52.8095805 43.82545052 52.8095805 43.82545052 53.046875 45.96484375 C54.19560657 48.41766812 55.61335869 50.40284506 57.25 52.5625 C65.11865079 63.60113894 71.1244216 78.22583542 70 92 C72.64 92 75.28 92 78 92 C78.061875 91.319375 78.12375 90.63875 78.1875 89.9375 C79.67872867 84.5461348 82.66275553 80.44643856 87.5 77.5625 C93.13017737 75.12523985 99.00741793 75.04030776 105 76 C110.14339532 78.1095375 114.94730346 81.61935609 117.40234375 86.7578125 C119.06224766 92.98516443 119.30497705 99.73525175 116.89453125 105.765625 C114.00472157 110.44510234 110.45811497 114.52298322 105 116 C98.34389554 116.80860604 91.64121675 116.96989545 85.72265625 113.4765625 C82.35764061 110.59226338 79.93000869 106.96967697 78 103 C78 102.01 78 101.02 78 100 C75.36 100 72.72 100 70 100 C70.0825 101.010625 70.165 102.02125 70.25 103.0625 C70.1793622 113.11072725 66.46486913 122.68328556 62.0625 131.5625 C61.57716797 132.54379883 61.57716797 132.54379883 61.08203125 133.54492188 C59.40496238 136.77594146 57.62603995 139.56633114 55.24609375 142.328125 C52.76539765 144.69731852 52.76539765 144.69731852 53 147.1875 C54.2025632 149.3671458 54.96763856 150.51658567 57 152 C60.77940336 152.17119249 64.46253016 151.92899083 68.23828125 151.71484375 C73.76054853 152.13345799 76.6481682 154.57701916 80.375 158.5 C82.77303575 163.66500009 82.75381535 168.4002288 82 174 C79.73212562 178.8846525 76.8846525 181.73212562 72 184 C66.4002288 184.75381535 61.66500009 184.77303575 56.5 182.375 C52.59092515 178.66137889 50.11977167 175.78534652 49.75 170.2734375 C49.8325 168.98695313 49.915 167.70046875 50 166.375 C50.49701933 161.04990457 50.49701933 161.04990457 48.125 156.5390625 C46.16733593 154.80447428 46.16733593 154.80447428 44 155 C35.53757848 163.00440386 29.71456983 172.71834739 27 184 C27.886875 184.04125 28.77375 184.0825 29.6875 184.125 C33.18626537 185.04920217 34.90385547 186.15197856 37.09375 189.05078125 C39.11516188 193.39855938 38.63567386 198.63529324 37.4140625 203.1796875 C36.77819536 205.0851074 36.77819536 205.0851074 38 207 C38.61072034 211.85086439 38.96063374 216.48870338 35.9375 220.5625 C32.51975534 223.39850089 30.38334042 223.8281043 26 224 C25.95875 224.969375 25.9175 225.93875 25.875 226.9375 C24.85492665 233.84046209 20.31550268 239.26139943 14.9375 243.4375 C8.30096181 248.20115011 2.25009511 248.39396657 -5.6875 248.4375 C-6.72583984 248.47037109 -7.76417969 248.50324219 -8.83398438 248.53710938 C-17.18008376 248.59466868 -23.90271005 246.77784497 -30.14501953 241.0222168 C-34.89911327 235.99033686 -38 231.07392799 -38 224 C-39.051875 223.95875 -40.10375 223.9175 -41.1875 223.875 C-45.02328136 222.99465674 -46.77900895 222.13121083 -49.12890625 218.94921875 C-51.08478992 214.57260012 -50.63728294 209.37069253 -49.4140625 204.8203125 C-48.77819536 202.9148926 -48.77819536 202.9148926 -50 201 C-50.61511183 196.11425458 -50.96611852 191.50945421 -47.875 187.4375 C-44.75477323 184.79209034 -43.03467916 184.1876595 -39 184 C-41.48826461 173.74136522 -45.76279009 165.55558349 -53.58203125 158.375 C-55 157 -55 157 -56 155 C-58.46800047 156.15173355 -60.04783565 157.04783565 -62 159 C-62.06278821 162.74935308 -61.86470551 166.4583605 -61.6796875 170.203125 C-62.14639399 175.73530437 -64.56335466 178.63518693 -68.5 182.375 C-73.66500009 184.77303575 -78.4002288 184.75381535 -84 184 C-88.8846525 181.73212562 -91.73212562 178.8846525 -94 174 C-94.75381535 168.4002288 -94.77303575 163.66500009 -92.375 158.5 C-88.66137889 154.59092515 -85.78534652 152.11977167 -80.2734375 151.75 C-78.98695312 151.8325 -77.70046875 151.915 -76.375 152 C-71.07517595 152.46057917 -71.07517595 152.46057917 -66.4765625 150.25 C-64.8095805 148.17454948 -64.8095805 148.17454948 -65.046875 146.03515625 C-66.19560657 143.58233188 -67.61335869 141.59715494 -69.25 139.4375 C-77.11865079 128.39886106 -83.1244216 113.77416458 -82 100 C-84.64 100 -87.28 100 -90 100 C-90.061875 100.680625 -90.12375 101.36125 -90.1875 102.0625 C-91.67872867 107.4538652 -94.66275553 111.55356144 -99.5 114.4375 C-105.13017737 116.87476015 -111.00741793 116.95969224 -117 116 C-122.14339532 113.8904625 -126.94730346 110.38064391 -129.40234375 105.2421875 C-131.06224766 99.01483557 -131.30497705 92.26474825 -128.89453125 86.234375 C-126.00472157 81.55489766 -122.45811497 77.47701678 -117 76 C-110.34389554 75.19139396 -103.64121675 75.03010455 -97.72265625 78.5234375 C-94.35764061 81.40773662 -91.93000869 85.03032303 -90 89 C-90 89.99 -90 90.98 -90 92 C-87.36 92 -84.72 92 -82 92 C-82.0825 90.989375 -82.165 89.97875 -82.25 88.9375 C-82.1793622 78.88927275 -78.46486913 69.31671444 -74.0625 60.4375 C-73.73894531 59.78330078 -73.41539063 59.12910156 -73.08203125 58.45507812 C-71.40496238 55.22405854 -69.62603995 52.43366886 -67.24609375 49.671875 C-64.76539765 47.30268148 -64.76539765 47.30268148 -65 44.8125 C-66.2025632 42.6328542 -66.96763856 41.48341433 -69 40 C-72.77940336 39.82880751 -76.46253016 40.07100917 -80.23828125 40.28515625 C-85.76054853 39.86654201 -88.6481682 37.42298084 -92.375 33.5 C-94.77303575 28.33499991 -94.75381535 23.5997712 -94 18 C-91.73212562 13.1153475 -88.8846525 10.26787438 -84 8 C-78.4002288 7.24618465 -73.66500009 7.22696425 -68.5 9.625 C-64.59092515 13.33862111 -62.11977167 16.21465348 -61.75 21.7265625 C-61.8325 23.01304688 -61.915 24.29953125 -62 25.625 C-62.46057917 30.92482405 -62.46057917 30.92482405 -60.25 35.5234375 C-58.17342676 37.19198757 -58.17342676 37.19198757 -56.02734375 36.94921875 C-53.61408086 35.81930953 -51.68126202 34.43104839 -49.5625 32.8125 C-41.54915297 27.05993477 -32.69723237 22.90141811 -23 21 C-22.97421875 20.27554687 -22.9484375 19.55109375 -22.921875 18.8046875 C-22.47312995 11.15562415 -21.17396596 7.01526767 -15.5 1.625 C-10.33499991 -0.77303575 -5.5997712 -0.75381535 0 0 Z M-11.375 10.625 C-13.48706506 13.71186432 -13.61195145 15.3282913 -13 19 C-11.5 21.5 -11.5 21.5 -9 23 C-5.3282913 23.61195145 -3.71186432 23.48706506 -0.625 21.375 C1.48706506 18.28813568 1.61195145 16.6717087 1 13 C-0.5 10.5 -0.5 10.5 -3 9 C-6.6717087 8.38804855 -8.28813568 8.51293494 -11.375 10.625 Z M-83.375 18.625 C-85.48706506 21.71186432 -85.61195145 23.3282913 -85 27 C-83.5 29.5 -83.5 29.5 -81 31 C-77.3282913 31.61195145 -75.71186432 31.48706506 -72.625 29.375 C-70.51293494 26.28813568 -70.38804855 24.6717087 -71 21 C-72.5 18.5 -72.5 18.5 -75 17 C-78.6717087 16.38804855 -80.28813568 16.51293494 -83.375 18.625 Z M60.625 18.625 C58.51293494 21.71186432 58.38804855 23.3282913 59 27 C60.5 29.5 60.5 29.5 63 31 C66.6717087 31.61195145 68.28813568 31.48706506 71.375 29.375 C73.48706506 26.28813568 73.61195145 24.6717087 73 21 C71.5 18.5 71.5 18.5 69 17 C65.3282913 16.38804855 63.71186432 16.51293494 60.625 18.625 Z M-43 39 C-45.51853479 40.88141818 -47.72072279 42.8243263 -50 45 C-49.06409496 46.1055189 -48.12620142 47.20935453 -47.1875 48.3125 C-46.66542969 48.92738281 -46.14335938 49.54226562 -45.60546875 50.17578125 C-44.12827531 51.85424679 -42.59960869 53.43882034 -41 55 C-38.35159733 53.86497028 -37.07331641 53.09775521 -35.3125 50.75 C-33 49 -33 49 -30.74609375 49.1875 C-28.45996162 49.70268471 -26.23392488 50.29354512 -24 51 C-22.5393715 48.35261084 -22 47.10551666 -22 44 C-18.04 44 -14.08 44 -10 44 C-10 40.04 -10 36.08 -10 32 C-19.99621786 25.33585476 -33.85770531 33.49031576 -43 39 Z M-2 32 C-2 35.96 -2 39.92 -2 44 C1.96 44 5.92 44 10 44 C10.33 45.98 10.66 47.96 11 50 C14.81489674 51.46726798 17.29011622 50.43336419 21 49 C22.98 50.98 24.96 52.96 27 55 C30.21524305 53.59155282 32.32183868 51.89655214 34.75 49.375 C35.36359375 48.74335937 35.9771875 48.11171875 36.609375 47.4609375 C37.06828125 46.97882812 37.5271875 46.49671875 38 46 C29.06308663 36.19822405 10.74822757 24.4117693 -2 32 Z M-57 52 C-67.3463309 62.58694324 -73 77.29400882 -73 92 C-68.05 92 -63.1 92 -58 92 C-58 88.04 -58 84.08 -58 80 C-56.02 79.67 -54.04 79.34 -52 79 C-50.53273202 75.18510326 -51.56663581 72.70988378 -53 69 C-51.02 67.02 -49.04 65.04 -47 63 C-48.40301147 59.81326038 -50.07765071 57.67778594 -52.5625 55.25 C-53.18253906 54.63640625 -53.80257812 54.0228125 -54.44140625 53.390625 C-55.77622963 51.88904074 -55.77622963 51.88904074 -57 52 Z M-15 52 C-15.33 53.98 -15.66 55.96 -16 58 C-20.30536029 59.5248151 -22.21231704 60.16026103 -26.83984375 59.21875 C-29.29612532 58.87033521 -30.55825624 58.77490033 -32.78564453 59.90991211 C-34.52690143 61.31508743 -36.03378146 62.80441888 -37.5625 64.4375 C-38.10712891 64.94732422 -38.65175781 65.45714844 -39.21289062 65.98242188 C-41.41858573 68.23843703 -42.95394467 69.81439223 -43.07983398 73.05517578 C-42.79698189 75.04924835 -42.40154601 77.02640138 -42 79 C-42.3759286 81.55804288 -43.12952858 83.54219836 -44 86 C-46.97 86.495 -46.97 86.495 -50 87 C-50 92.94 -50 98.88 -50 105 C-48.02 105.33 -46.04 105.66 -44 106 C-42.4751849 110.30536029 -41.83973897 112.21231704 -42.78125 116.83984375 C-43.12966479 119.29612532 -43.22509967 120.55825624 -42.09008789 122.78564453 C-40.68491257 124.52690143 -39.19558112 126.03378146 -37.5625 127.5625 C-36.79776367 128.37944336 -36.79776367 128.37944336 -36.01757812 129.21289062 C-33.76156297 131.41858573 -32.18560777 132.95394467 -28.94482422 133.07983398 C-26.95075165 132.79698189 -24.97359862 132.40154601 -23 132 C-20.44195712 132.3759286 -18.45780164 133.12952858 -16 134 C-15.67 135.98 -15.34 137.96 -15 140 C-9.06 140 -3.12 140 3 140 C3.33 138.02 3.66 136.04 4 134 C8.30536029 132.4751849 10.21231704 131.83973897 14.83984375 132.78125 C17.29612532 133.12966479 18.55825624 133.22509967 20.78564453 132.09008789 C22.52690143 130.68491257 24.03378146 129.19558112 25.5625 127.5625 C26.10712891 127.05267578 26.65175781 126.54285156 27.21289062 126.01757812 C29.41858573 123.76156297 30.95394467 122.18560777 31.07983398 118.94482422 C30.79698189 116.95075165 30.40154601 114.97359862 30 113 C30.3759286 110.44195712 31.12952858 108.45780164 32 106 C33.98 105.67 35.96 105.34 38 105 C38 99.06 38 93.12 38 87 C36.02 86.67 34.04 86.34 32 86 C30.4751849 81.69463971 29.83973897 79.78768296 30.78125 75.16015625 C31.12966479 72.70387468 31.22509967 71.44174376 30.09008789 69.21435547 C28.68491257 67.47309857 27.19558112 65.96621854 25.5625 64.4375 C25.05267578 63.89287109 24.54285156 63.34824219 24.01757812 62.78710938 C21.76156297 60.58141427 20.18560777 59.04605533 16.94482422 58.92016602 C14.95075165 59.20301811 12.97359862 59.59845399 11 60 C8.44195712 59.6240714 6.45780164 58.87047142 4 58 C3.505 55.03 3.505 55.03 3 52 C-2.94 52 -8.88 52 -15 52 Z M41.93359375 53.96875 C41.10988281 54.8040625 40.28617188 55.639375 39.4375 56.5 C38.61121094 57.3353125 37.78492188 58.170625 36.93359375 59.03125 C35.97646484 60.00578125 35.97646484 60.00578125 35 61 C36.20488278 63.65621885 36.864079 64.89805925 39.25 66.6875 C41 69 41 69 40.8125 71.25390625 C40.29731529 73.54003838 39.70645488 75.76607512 39 78 C41.64738916 79.4606285 42.89448334 80 46 80 C46 83.96 46 87.92 46 92 C50.95 92 55.9 92 61 92 C61 77.29400882 55.3463309 62.58694324 45 52 C43.64498098 51.88503469 43.64498098 51.88503469 41.93359375 53.96875 Z M-120 90 C-121.61429923 93.22859847 -121.59570657 96.50993653 -121 100 C-119.26397895 103.02508145 -117.16419863 105.41790069 -114 107 C-108.87629602 107.60728845 -108.87629602 107.60728845 -104.17578125 105.953125 C-100.37247256 102.82207185 -99.11336633 101.13366332 -98.625 96.25 C-98.64941225 92.89941932 -99.24398646 91.15105468 -101.375 88.5625 C-104.9048586 85.11668565 -106.9283652 84.60444164 -111.89453125 84.640625 C-115.61593453 85.27581814 -117.40312849 87.33979016 -120 90 Z M88 90 C86.38570077 93.22859847 86.40429343 96.50993653 87 100 C88.73602105 103.02508145 90.83580137 105.41790069 94 107 C99.12370398 107.60728845 99.12370398 107.60728845 103.82421875 105.953125 C107.62752744 102.82207185 108.88663367 101.13366332 109.375 96.25 C109.35058775 92.89941932 108.75601354 91.15105468 106.625 88.5625 C103.0951414 85.11668565 101.0716348 84.60444164 96.10546875 84.640625 C92.38406547 85.27581814 90.59687151 87.33979016 88 90 Z M-73 100 C-73 114.70586499 -67.14915676 129.23574283 -57 140 C-55.8944811 139.06409496 -54.79064547 138.12620142 -53.6875 137.1875 C-52.76517578 136.40439453 -52.76517578 136.40439453 -51.82421875 135.60546875 C-50.14575321 134.12827531 -48.56117966 132.59960869 -47 131 C-48.13502972 128.35159733 -48.90224479 127.07331641 -51.25 125.3125 C-53 123 -53 123 -52.8125 120.74609375 C-52.29731529 118.45996162 -51.70645488 116.23392488 -51 114 C-53.64738916 112.5393715 -54.89448334 112 -58 112 C-58 108.04 -58 104.08 -58 100 C-62.95 100 -67.9 100 -73 100 Z M46 100 C46 103.96 46 107.92 46 112 C44.02 112.33 42.04 112.66 40 113 C38.53273202 116.81489674 39.56663581 119.29011622 41 123 C39.02 124.98 37.04 126.96 35 129 C36.40844718 132.21524305 38.10344786 134.32183868 40.625 136.75 C41.25664062 137.36359375 41.88828125 137.9771875 42.5390625 138.609375 C43.02117187 139.06828125 43.50328125 139.5271875 44 140 C53.11724334 131.95537352 59.29538405 118.96897003 61 107 C61 104.69 61 102.38 61 100 C56.05 100 51.1 100 46 100 Z M-43.1640625 138.96875 C-43.97617188 139.8040625 -44.78828125 140.639375 -45.625 141.5 C-46.85089844 142.75296875 -46.85089844 142.75296875 -48.1015625 144.03125 C-48.72804688 144.6809375 -49.35453125 145.330625 -50 146 C-48.62490118 149.33722812 -46.5634744 151.74694001 -44.16577148 154.41479492 C-36.15743267 163.34101765 -31.7406941 172.02298539 -30 184 C-26.62012335 184.29025658 -23.37091106 184.43736504 -20 184 C-17.6706919 181.75503458 -17.6706919 181.75503458 -16 179 C-14.02 178.01 -12.04 177.02 -10 176 C-10 166.76 -10 157.52 -10 148 C-13.96 148 -17.92 148 -22 148 C-22.33 146.02 -22.66 144.04 -23 142 C-26.81489674 140.53273202 -29.29011622 141.56663581 -33 143 C-33.40992187 142.566875 -33.81984375 142.13375 -34.2421875 141.6875 C-34.78101562 141.130625 -35.31984375 140.57375 -35.875 140 C-36.67550781 139.1646875 -36.67550781 139.1646875 -37.4921875 138.3125 C-40.02945224 136.1038965 -40.73943786 136.7629543 -43.1640625 138.96875 Z M27 137 C26.12071222 138.02055041 25.27060385 139.06641221 24.4375 140.125 C22.86328125 141.796875 22.86328125 141.796875 21 143 C17.7833547 142.93703141 15.00516152 142.10857069 12 141 C10.5393715 143.64738916 10 144.89448334 10 148 C6.04 148 2.08 148 -2 148 C-2.21581162 152.56501517 -2.37442951 157.11987341 -2.5 161.6875 C-2.56703125 162.98107422 -2.6340625 164.27464844 -2.703125 165.60742188 C-3.13309136 172.27231051 -3.13309136 172.27231051 -0.25390625 177.90478516 C1.85395403 179.24643247 1.85395403 179.24643247 4.07226562 180.11645508 C6 181 6 181 8 184 C10.43693311 184.36416047 10.43693311 184.36416047 13.125 184.1875 C14.49011719 184.14689453 14.49011719 184.14689453 15.8828125 184.10546875 C16.58148438 184.07066406 17.28015625 184.03585938 18 184 C18.15855469 183.24976563 18.31710938 182.49953125 18.48046875 181.7265625 C21.73276808 167.45956985 28.37308446 158.655629 38 148 C36.60249952 144.84164893 34.94801766 142.67727175 32.5 140.25 C31.8915625 139.63640625 31.283125 139.0228125 30.65625 138.390625 C29.10515723 136.78565912 29.10515723 136.78565912 27 137 Z M-83.375 162.625 C-85.48706506 165.71186432 -85.61195145 167.3282913 -85 171 C-83.5 173.5 -83.5 173.5 -81 175 C-77.3282913 175.61195145 -75.71186432 175.48706506 -72.625 173.375 C-70.51293494 170.28813568 -70.38804855 168.6717087 -71 165 C-72.5 162.5 -72.5 162.5 -75 161 C-78.6717087 160.38804855 -80.28813568 160.51293494 -83.375 162.625 Z M60.625 162.625 C58.51293494 165.71186432 58.38804855 167.3282913 59 171 C60.5 173.5 60.5 173.5 63 175 C66.6717087 175.61195145 68.28813568 175.48706506 71.375 173.375 C73.48706506 170.28813568 73.61195145 168.6717087 73 165 C71.5 162.5 71.5 162.5 69 161 C65.3282913 160.38804855 63.71186432 160.51293494 60.625 162.625 Z M-11.375 186.625 C-13.48706506 189.71186432 -13.61195145 191.3282913 -13 195 C-11.5 197.5 -11.5 197.5 -9 199 C-5.3282913 199.61195145 -3.71186432 199.48706506 -0.625 197.375 C1.48706506 194.28813568 1.61195145 192.6717087 1 189 C-0.5 186.5 -0.5 186.5 -3 185 C-6.6717087 184.38804855 -8.28813568 184.51293494 -11.375 186.625 Z M-41 194 C-40.65555119 196.47266765 -40.65555119 196.47266765 -40 199 C-36.69005287 200.65497356 -33.00877 200.10084335 -29.375 200.0625 C-28.57320312 200.05798828 -27.77140625 200.05347656 -26.9453125 200.04882812 C-24.96350994 200.03703168 -22.98174567 200.01909605 -21 200 C-21.33 197.36 -21.66 194.72 -22 192 C-24.60444348 191.94605295 -27.20776998 191.90635531 -29.8125 191.875 C-30.91948242 191.84986328 -30.91948242 191.84986328 -32.04882812 191.82421875 C-35.91246426 191.78925372 -37.70903668 191.80602445 -41 194 Z M10 192 C9.67 194.64 9.34 197.28 9 200 C11.77109307 200.05392397 14.54113818 200.09363455 17.3125 200.125 C18.09818359 200.14175781 18.88386719 200.15851563 19.69335938 200.17578125 C20.45068359 200.18222656 21.20800781 200.18867188 21.98828125 200.1953125 C23.03302612 200.21102295 23.03302612 200.21102295 24.09887695 200.22705078 C26.331173 200.10574595 26.331173 200.10574595 29 198 C28.65555119 195.52733235 28.65555119 195.52733235 28 193 C24.81175432 191.40587716 21.37103338 191.89825265 17.875 191.9375 C16.74384766 191.94426758 16.74384766 191.94426758 15.58984375 191.95117188 C13.72652873 191.96296501 11.86325445 191.98090058 10 192 Z M-41 210 C-40.65555119 212.47266765 -40.65555119 212.47266765 -40 215 C-37.2470582 216.3764709 -35.02663058 216.1348099 -31.94555664 216.14526367 C-30.03831566 216.15483345 -30.03831566 216.15483345 -28.09254456 216.16459656 C-26.69841551 216.16612516 -25.30428595 216.16723916 -23.91015625 216.16796875 C-22.48530544 216.17118095 -21.06045497 216.17454499 -19.63560486 216.17805481 C-16.64711746 216.18404716 -13.658659 216.1858946 -10.67016602 216.18530273 C-6.8388547 216.18520109 -3.00772862 216.19885513 0.82353878 216.21607494 C3.76690016 216.22718776 6.71021666 216.22922217 9.65359688 216.22869301 C11.06620485 216.22987414 12.47881394 216.23430338 13.89140129 216.24202538 C15.86629734 216.25181049 17.84124757 216.2476868 19.81616211 216.24291992 C20.94042099 216.24434494 22.06467987 216.24576996 23.2230072 216.24723816 C26.21193481 216.20445844 26.21193481 216.20445844 29 214 C28.65555119 211.52733235 28.65555119 211.52733235 28 209 C25.2470582 207.6235291 23.02663058 207.8651901 19.94555664 207.85473633 C18.03831566 207.84516655 18.03831566 207.84516655 16.09254456 207.83540344 C14.69841551 207.83387484 13.30428595 207.83276084 11.91015625 207.83203125 C10.48530544 207.82881905 9.06045497 207.82545501 7.63560486 207.82194519 C4.64711746 207.81595284 1.658659 207.8141054 -1.32983398 207.81469727 C-5.1611453 207.81479891 -8.99227138 207.80114487 -12.82353878 207.78392506 C-15.76690016 207.77281224 -18.71021666 207.77077783 -21.65359688 207.77130699 C-23.06620485 207.77012586 -24.47881394 207.76569662 -25.89140129 207.75797462 C-27.86629734 207.74818951 -29.84124757 207.7523132 -31.81616211 207.75708008 C-32.94042099 207.75565506 -34.06467987 207.75423004 -35.2230072 207.75276184 C-38.21193481 207.79554156 -38.21193481 207.79554156 -41 210 Z M-29 224 C-26.63734489 231.08796534 -24.30262588 234.78704625 -17.78515625 238.21875 C-10.56685768 241.37774281 -1.2767262 240.79986259 6 238 C11.54942655 235.10661263 14.35183447 231.61411091 17 226 C17 225.34 17 224.68 17 224 C1.82 224 -13.36 224 -29 224 Z " fill="#D8CFBB" transform="translate(134,4)"/>
<path d="M0 0 C8.34296853 4.97488123 13.53708251 11.86384564 16.109375 21.2578125 C16.89814221 30.10851435 17.06941889 38.555881 12.109375 46.2578125 C11.67367187 46.96421875 11.23796875 47.670625 10.7890625 48.3984375 C6.10935787 55.30291974 0.10880944 59.05772679 -7.890625 61.2578125 C-16.74132685 62.04657971 -25.1886935 62.21785639 -32.890625 57.2578125 C-33.59703125 56.82210937 -34.3034375 56.38640625 -35.03125 55.9375 C-41.93709584 51.25687115 -45.68778524 45.25759899 -47.890625 37.2578125 C-48.88914012 26.15803978 -48.24009702 16.5233259 -41.140625 7.4453125 C-30.84272373 -3.5807232 -13.59449082 -6.52353083 0 0 Z M-35.6640625 16.4140625 C-39.59616927 22.32474528 -39.58925777 28.37896674 -38.890625 35.2578125 C-37.11720067 41.90254164 -32.4439603 46.43149209 -26.890625 50.2578125 C-20.89175496 53.19843507 -14.0077897 53.35665038 -7.578125 51.640625 C-1.44929639 48.93532175 3.34890292 43.84917555 6.28125 37.8671875 C8.18743357 31.86091098 8.17376187 24.75489692 5.609375 18.9453125 C2.12900242 13.01257775 -3.3262443 8.32617506 -9.890625 6.2578125 C-21.61457462 4.83172388 -28.19804861 7.57163265 -35.6640625 16.4140625 Z " fill="#D8CFBD" transform="translate(143.890625,70.7421875)"/>
<path d="M0 0 C4.8846525 2.26787438 7.73212562 5.1153475 10 10 C10.75381535 15.5997712 10.77303575 20.33499991 8.375 25.5 C3.80134327 30.3143755 0.6912538 32.25156236 -6 32.5 C-12.6912538 32.25156236 -15.80134327 30.3143755 -20.375 25.5 C-22.77303575 20.33499991 -22.75381535 15.5997712 -22 10 C-17.52212837 0.3553534 -9.85292056 -1.32635469 0 0 Z M-11.375 10.625 C-13.48706506 13.71186432 -13.61195145 15.3282913 -13 19 C-11.5 21.5 -11.5 21.5 -9 23 C-5.3282913 23.61195145 -3.71186432 23.48706506 -0.625 21.375 C1.48706506 18.28813568 1.61195145 16.6717087 1 13 C-0.5 10.5 -0.5 10.5 -3 9 C-6.6717087 8.38804855 -8.28813568 8.51293494 -11.375 10.625 Z " fill="#D8CEBB" transform="translate(134,84)"/>
</svg>
