<?xml version="1.0" encoding="UTF-8"?>
<svg version="1.1" xmlns="http://www.w3.org/2000/svg" width="256" height="256">
<path d="M0 0 C4.96192175 2.22760649 8.8646294 5.6944654 11.71484375 10.34765625 C11.71484375 11.33765625 11.71484375 12.32765625 11.71484375 13.34765625 C8.74484375 14.00765625 5.77484375 14.66765625 2.71484375 15.34765625 C3.04484375 16.33765625 3.37484375 17.32765625 3.71484375 18.34765625 C5.0915625 18.29544922 5.0915625 18.29544922 6.49609375 18.2421875 C15.86252351 18.03557508 22.4859951 18.09682606 29.52734375 24.59765625 C33.69998696 29.14183618 35.85856233 33.56819437 35.90234375 39.78515625 C35.80953125 41.54859375 35.80953125 41.54859375 35.71484375 43.34765625 C34.6784375 43.33605469 33.64203125 43.32445312 32.57421875 43.3125 C31.20442889 43.30311788 29.83463707 43.29401813 28.46484375 43.28515625 C27.78292969 43.27677734 27.10101563 43.26839844 26.3984375 43.25976562 C23.02141821 43.24337233 19.94192736 43.29136857 16.71484375 44.34765625 C16.71484375 45.33765625 16.71484375 46.32765625 16.71484375 47.34765625 C17.75382812 47.30125 18.7928125 47.25484375 19.86328125 47.20703125 C30.80856507 46.86273249 39.78560958 47.77155925 48.1796875 55.5703125 C53.63762914 61.88930345 56.04226105 68.59861879 55.93359375 76.84375 C55.17804081 85.49213277 51.82318153 92.62479226 45.46484375 98.53515625 C41.82180832 101.54599464 38.1993127 102.93150816 33.71484375 104.34765625 C33.71484375 105.33765625 33.71484375 106.32765625 33.71484375 107.34765625 C34.76671875 107.18265625 35.81859375 107.01765625 36.90234375 106.84765625 C40.71484375 107.34765625 40.71484375 107.34765625 42.2578125 108.98828125 C46.78736331 116.16117695 47.63609283 122.92185005 46.71484375 131.34765625 C44.7663304 137.2821326 42.10970125 141.95660296 36.71484375 145.34765625 C32.61923075 143.52942447 29.78013654 140.82311562 26.51953125 137.80859375 C24.84274602 136.13792351 24.84274602 136.13792351 22.71484375 136.34765625 C22.77048026 138.18234457 22.77048026 138.18234457 23.71484375 140.34765625 C25.2055192 141.57908379 26.69827869 142.80841369 28.21484375 144.0078125 C31.77992045 147.19224299 32.63094365 150.60454108 33.15234375 155.22265625 C32.88008889 161.41349501 30.1695818 165.82679374 25.96484375 170.22265625 C21.00691025 173.464382 16.51075361 174.6746341 10.58984375 174.22265625 C5.14709043 172.99364744 1.9931062 170.95461476 -1.47265625 166.59765625 C-2.36984375 165.48390625 -2.36984375 165.48390625 -3.28515625 164.34765625 C-4.27515625 164.34765625 -5.26515625 164.34765625 -6.28515625 164.34765625 C-5.81090768 168.61589339 -3.32754222 170.52258356 -0.28515625 173.34765625 C0.33359375 173.80140625 0.95234375 174.25515625 1.58984375 174.72265625 C2.71484375 176.34765625 2.71484375 176.34765625 2.58984375 179.72265625 C1.55166844 184.02366825 0.74219565 186.91823302 -2.98046875 189.54296875 C-7.90536115 192.30477116 -11.68349622 193.07045109 -17.28515625 192.34765625 C-22.57627829 189.60034288 -26.37890869 186.06639892 -28.28515625 180.34765625 C-28.36874583 178.1367568 -28.39247389 175.92339547 -28.3828125 173.7109375 C-28.37958984 172.41220703 -28.37636719 171.11347656 -28.37304688 169.77539062 C-28.36469156 168.40364517 -28.35622662 167.03190038 -28.34765625 165.66015625 C-28.3426396 164.2766943 -28.33807698 162.89323062 -28.33398438 161.50976562 C-28.32218154 158.1223523 -28.30571644 154.73502592 -28.28515625 151.34765625 C-27.31731201 151.22358398 -26.34946777 151.09951172 -25.35229492 150.97167969 C-24.08619385 150.8018457 -22.82009277 150.63201172 -21.515625 150.45703125 C-20.25903076 150.29170898 -19.00243652 150.12638672 -17.70776367 149.95605469 C-13.36434835 149.18397458 -11.42555741 148.4031817 -8.28515625 145.34765625 C-5.1617114 140.33916099 -4.85324838 136.38059548 -4.89697266 130.66772461 C-4.8917157 129.8165657 -4.88645874 128.9654068 -4.88104248 128.0884552 C-4.86788834 125.2879476 -4.87656347 122.48801292 -4.88671875 119.6875 C-4.88469688 117.73507071 -4.88178451 115.78264216 -4.87802124 113.83021545 C-4.87360426 109.74407745 -4.88000953 105.65813654 -4.89404297 101.57202148 C-4.91114577 96.33744361 -4.90128271 91.10332685 -4.88332558 85.86876583 C-4.87248054 81.83928457 -4.87593721 77.80991249 -4.88370895 73.78042793 C-4.88570838 71.85033679 -4.88326074 69.92023569 -4.87627029 67.99015617 C-4.86864277 65.29256834 -4.88027769 62.59572575 -4.89697266 59.89819336 C-4.89089996 59.10273102 -4.88482727 58.30726868 -4.87857056 57.48770142 C-4.93138367 52.87626784 -5.62997029 50.10910105 -8.28515625 46.34765625 C-8.28515625 45.68765625 -8.28515625 45.02765625 -8.28515625 44.34765625 C-12.91953584 41.95056336 -16.76338744 41.14619468 -21.97265625 40.78515625 C-23.15214844 40.70136719 -24.33164063 40.61757812 -25.546875 40.53125 C-26.90232422 40.44037109 -26.90232422 40.44037109 -28.28515625 40.34765625 C-28.40260869 36.53542113 -28.47282228 32.72365943 -28.53515625 28.91015625 C-28.56867188 27.84087891 -28.6021875 26.77160156 -28.63671875 25.66992188 C-28.73042968 18.00905351 -27.97087189 11.23706682 -22.50488281 5.46899414 C-15.82287788 -0.58787717 -8.90784792 -2.54292411 0 0 Z M4.71484375 39.34765625 C2.22191706 43.08704628 2.20482563 46.02047129 2.71484375 50.34765625 C4.73482265 56.6202223 7.83604001 60.10858667 12.96484375 64.09765625 C16.79604926 65.8391133 20.54739095 66.08435313 24.71484375 66.34765625 C25.04484375 65.02765625 25.37484375 63.70765625 25.71484375 62.34765625 C24.81121094 62.033125 23.90757812 61.71859375 22.9765625 61.39453125 C21.79707031 60.9665625 20.61757812 60.53859375 19.40234375 60.09765625 C18.23058594 59.68 17.05882812 59.26234375 15.8515625 58.83203125 C12.57107047 57.27961908 11.35246013 56.5343692 9.71484375 53.34765625 C8.984375 50.11328125 8.984375 50.11328125 8.52734375 46.59765625 C8.28951172 44.84195313 8.28951172 44.84195313 8.046875 43.05078125 C7.93730469 42.15875 7.82773438 41.26671875 7.71484375 40.34765625 C6.72484375 40.01765625 5.73484375 39.68765625 4.71484375 39.34765625 Z M14.83984375 96.03515625 C11.11339788 101.84402775 10.12782365 107.62711708 11.40234375 114.41015625 C11.82399402 116.59577396 11.82399402 116.59577396 12.71484375 118.34765625 C13.70484375 118.67765625 14.69484375 119.00765625 15.71484375 119.34765625 C17.57062907 116.24062174 17.86059101 114.51184794 17.21484375 110.97265625 C16.66086862 106.85162177 16.80969118 104.15796139 18.71484375 100.34765625 C21.9394758 96.49601241 25.13746321 94.37021974 29.71484375 92.34765625 C29.38484375 91.02765625 29.05484375 89.70765625 28.71484375 88.34765625 C23.06770481 88.34765625 18.82267272 92.312077 14.83984375 96.03515625 Z M-4.28515625 149.34765625 C-4.28515625 150.66765625 -4.28515625 151.98765625 -4.28515625 153.34765625 C-3.6096875 153.59 -2.93421875 153.83234375 -2.23828125 154.08203125 C6.62169788 157.41092514 6.62169788 157.41092514 9.71484375 161.34765625 C10.70484375 161.01765625 11.69484375 160.68765625 12.71484375 160.34765625 C12.63851288 157.6760758 12.24987668 155.92421412 10.40625 153.9375 C5.78128243 150.27384208 1.52916243 149.49268461 -4.28515625 149.34765625 Z " fill="#D8CFBC" transform="translate(190.28515625,32.65234375)"/>
<path d="M0 0 C0.86032837 -0.0065712 1.72065674 -0.0131424 2.60705566 -0.01991272 C5.46158937 -0.03966563 8.31607043 -0.05131256 11.1706543 -0.0612793 C12.63138902 -0.06739259 12.63138902 -0.06739259 14.12163353 -0.07362938 C19.27558557 -0.09449832 24.42951092 -0.10879664 29.58349609 -0.11816406 C34.91014016 -0.12923204 40.23636689 -0.16363414 45.56286335 -0.20333576 C49.65580529 -0.22946615 53.74864725 -0.2378527 57.84166527 -0.24144554 C59.80527758 -0.24632053 61.76888516 -0.25796037 63.73241615 -0.27648354 C66.48080246 -0.30079958 69.22810183 -0.29992384 71.9765625 -0.29296875 C72.78765976 -0.30577881 73.59875702 -0.31858887 74.43443298 -0.33178711 C78.22927442 -0.29678553 80.43347767 0.01803107 83.66398621 2.08137512 C87.32191231 5.8792834 86.84872768 9.36839325 86.87524414 14.38696289 C86.88751038 15.66041565 86.88751038 15.66041565 86.90002441 16.95959473 C86.92489206 19.77684826 86.9413987 22.59405132 86.95581055 25.41137695 C86.96113422 26.37291939 86.9664579 27.33446182 86.9719429 28.32514191 C86.99868156 33.41540226 87.01805341 38.50563803 87.0324707 43.59594727 C87.04911237 48.85309056 87.09388413 54.10960621 87.14484215 59.3665123 C87.1785058 63.4088818 87.19004723 67.45110225 87.19569778 71.49359894 C87.20241363 73.43128501 87.21764437 75.36896116 87.24158859 77.30651093 C87.27322176 80.02134741 87.27327977 82.73449036 87.26586914 85.44946289 C87.28227448 86.24761414 87.29867981 87.04576538 87.31558228 87.86810303 C87.2709822 91.86677537 86.88369411 94.44835591 84.39590454 97.65997314 C79.81851884 101.90588358 75.73086589 101.32917988 69.7043457 101.33813477 C68.903853 101.34309967 68.10336029 101.34806458 67.27861023 101.35317993 C64.63454321 101.36776645 61.99053617 101.37459729 59.34643555 101.38012695 C57.50564574 101.38588079 55.66485595 101.3916385 53.82406616 101.3973999 C49.96563437 101.40789955 46.10722336 101.41374916 42.2487793 101.41723633 C37.31022596 101.42272237 32.37194814 101.44675711 27.43348122 101.47520828 C23.63130902 101.4938511 19.82920302 101.49904111 16.02698898 101.5005722 C14.20656196 101.50359496 12.386136 101.51161077 10.56575394 101.52475739 C8.01668687 101.54185422 5.46829094 101.53992902 2.91918945 101.53344727 C2.17093399 101.54266205 1.42267853 101.55187683 0.65174866 101.56137085 C-4.08084884 101.52376387 -7.37015964 100.82108704 -11.31762695 98.17700195 C-14.80102326 94.10074582 -14.75144805 89.94659925 -14.72167969 84.81005859 C-14.72854294 83.98015915 -14.73540619 83.1502597 -14.74247742 82.29521179 C-14.76073956 79.5590186 -14.75690876 76.82339911 -14.7512207 74.0871582 C-14.75578284 72.18053501 -14.76108851 70.27391347 -14.7671051 68.36729431 C-14.77603509 64.37353836 -14.77361439 60.37998238 -14.76367188 56.38623047 C-14.75218329 51.27381054 -14.77239257 46.16208142 -14.80158901 41.04975224 C-14.8199547 37.11286551 -14.81965779 33.17614421 -14.81395149 29.23922539 C-14.81379832 27.35460885 -14.81983946 25.46998107 -14.83224297 23.58540535 C-14.84715793 20.94761221 -14.83647261 18.31109371 -14.81933594 15.67333984 C-14.82900391 14.89860321 -14.83867188 14.12386658 -14.84863281 13.32565308 C-14.77828059 8.14167043 -13.61326404 5.16184318 -10.31762695 1.17700195 C-7.08736165 -0.4381307 -3.54994271 0.01168111 0 0 Z M23.68237305 11.17700195 C20.1994592 17.71436813 17.69537841 24.39095678 15.27612305 31.3840332 C14.86954468 32.54521164 14.46296631 33.70639008 14.04406738 34.90275574 C12.7518281 38.59661101 11.46689101 42.29295541 10.18237305 45.98950195 C8.89624046 49.6747572 7.6086183 53.35948909 6.32067871 57.04411316 C5.52231841 59.32984765 4.72527838 61.61604388 3.92980957 63.90278625 C3.37903748 65.4844886 3.37903748 65.4844886 2.81713867 67.09814453 C2.46627197 68.11123688 2.11540527 69.12432922 1.75390625 70.16812134 C1.0263036 72.21124002 0.26843963 74.24378275 -0.51611328 76.26571655 C-1.08011841 77.72553452 -1.08011841 77.72553452 -1.65551758 79.21484375 C-2.17015564 80.50602364 -2.17015564 80.50602364 -2.69519043 81.82328796 C-3.37370789 84.38906933 -3.19996307 85.70792781 -2.31762695 88.17700195 C-0.36632873 88.04960419 -0.36632873 88.04960419 1.68237305 87.17700195 C2.97660527 85.03511458 2.97660527 85.03511458 3.82299805 82.3371582 C4.17104492 81.35682617 4.5190918 80.37649414 4.87768555 79.36645508 C5.22573242 78.33456055 5.5737793 77.30266602 5.93237305 76.23950195 C6.29588867 75.21147461 6.6594043 74.18344727 7.03393555 73.12426758 C8.92924385 68.26133588 8.92924385 68.26133588 9.68237305 63.17700195 C19.91237305 63.17700195 30.14237305 63.17700195 40.68237305 63.17700195 C41.17737305 66.14700195 41.17737305 66.14700195 41.68237305 69.17700195 C42.62813254 72.34164589 43.81511841 75.40532159 44.99487305 78.48950195 C45.29071289 79.31256836 45.58655273 80.13563477 45.89135742 80.98364258 C46.18977539 81.76545898 46.48819336 82.54727539 46.7956543 83.3527832 C47.061604 84.06345947 47.32755371 84.77413574 47.6015625 85.50634766 C48.57232931 87.3816428 48.57232931 87.3816428 50.80029297 87.91601562 C51.42137939 88.00214111 52.04246582 88.0882666 52.68237305 88.17700195 C53.90047978 84.52268176 53.34510796 83.52614645 52.05517578 79.96557617 C51.67405136 78.89951141 51.29292694 77.83344666 50.9002533 76.7350769 C50.47643875 75.57895905 50.05262421 74.42284119 49.6159668 73.23168945 C49.18486099 72.03327423 48.75375519 70.83485901 48.30958557 69.60012817 C47.15608296 66.39845703 45.99478504 63.19983828 44.82952881 60.00244141 C43.66949056 56.81415704 42.51883126 53.62249624 41.36791992 50.4309082 C40.03235456 46.72755659 38.69434679 43.02524316 37.34579468 39.32659912 C35.44497372 34.10850614 33.56507521 28.89172616 31.83129883 23.61547852 C31.56317886 22.81006622 31.2950589 22.00465393 31.01881409 21.17483521 C30.54366806 19.73417622 30.08155692 18.28911754 29.635849 16.83908081 C28.99636119 14.78223205 28.99636119 14.78223205 27.68237305 12.17700195 C25.65055214 11.46307847 25.65055214 11.46307847 23.68237305 11.17700195 Z M71.68237305 11.17700195 C70.21383304 14.11408196 70.55217756 17.070439 70.56884766 20.28881836 C70.56870163 21.0206282 70.5685556 21.75243805 70.56840515 22.50642395 C70.56910301 24.93050071 70.57688951 27.35450108 70.5847168 29.77856445 C70.58658143 31.4572241 70.58800512 33.13588429 70.58900452 34.81454468 C70.59282616 39.23687233 70.60265346 43.65916724 70.6137085 48.08148193 C70.62393018 52.5924841 70.62850376 57.10349155 70.63354492 61.61450195 C70.64427602 70.46868302 70.66134824 79.32283977 70.68237305 88.17700195 C72.00237305 88.83700195 73.32237305 89.49700195 74.68237305 90.17700195 C76.37905511 88.48031989 75.80206297 86.36568177 75.80679321 84.1026001 C75.80319794 83.37683777 75.79960266 82.65107544 75.79589844 81.90332031 C75.79611748 80.76193352 75.79611748 80.76193352 75.79634094 79.5974884 C75.79564166 77.07057897 75.78784859 74.54374233 75.7800293 72.0168457 C75.77816517 70.26949606 75.77674124 68.52214589 75.77574158 66.77479553 C75.77191597 62.16668261 75.76208533 57.558601 75.7510376 52.95050049 C75.74082438 48.25191675 75.73624415 43.55332796 75.73120117 38.85473633 C75.7204631 29.62881108 75.70338618 20.40290912 75.68237305 11.17700195 C74.36237305 11.17700195 73.04237305 11.17700195 71.68237305 11.17700195 Z " fill="#D8CFBB" transform="translate(94.317626953125,77.822998046875)"/>
<path d="M0 0 C0.76957031 0.06445312 1.53914063 0.12890625 2.33203125 0.1953125 C3.109375 2.28125 3.109375 2.28125 3.33203125 5.1953125 C1.9457547 7.62054793 0.59577177 9.63823356 -1.10546875 11.8203125 C-1.51990234 12.37332031 -1.93433594 12.92632812 -2.36132812 13.49609375 C-3.26504593 14.7019541 -4.19501275 15.88841116 -5.14477539 17.05834961 C-6.79359731 19.22836099 -6.79359731 19.22836099 -7.98608398 22.08422852 C-9.88569219 25.72526652 -11.33880714 27.74548641 -14.66796875 30.1953125 C-22.14637632 32.01657371 -30.2334306 31.19224554 -37.85546875 30.8828125 C-41.03202282 30.77038728 -44.20514429 30.67474386 -47.38337708 30.62812805 C-49.35434468 30.59799423 -51.32519371 30.52971787 -53.29325867 30.41862488 C-55.97564802 30.37039431 -58.10284881 30.40142853 -60.66796875 31.1953125 C-62.4656021 33.10803488 -63.53744564 34.9051378 -64.66059875 37.27156067 C-66.30403878 40.41000114 -68.37680131 41.16278938 -71.66796875 42.1953125 C-77.06422938 42.95230297 -81.03789625 42.24695119 -85.66796875 39.1953125 C-90.11224013 34.27057935 -91.02969711 31.24136567 -90.9453125 24.734375 C-90.39426592 19.68958235 -87.66285631 17.09544886 -84.04296875 13.8203125 C-79.47301078 11.61996237 -75.65497503 11.38441717 -70.66796875 12.1953125 C-66.74017251 14.19491786 -63.89629632 16.35763724 -61.66796875 20.1953125 C-61.66796875 21.1853125 -61.66796875 22.1753125 -61.66796875 23.1953125 C-55.72569134 23.39979608 -49.79144232 23.51024031 -43.84570312 23.53710938 C-41.82801773 23.55905477 -39.81043328 23.60582583 -37.79394531 23.67871094 C-26.78981077 24.45288298 -26.78981077 24.45288298 -16.78372192 20.83306885 C-13.18899672 17.0984925 -10.95739857 12.80577718 -8.66796875 8.1953125 C-7.59056861 6.55244368 -6.49359061 4.92171428 -5.35546875 3.3203125 C-4.74251953 2.39605469 -4.74251953 2.39605469 -4.1171875 1.453125 C-2.66796875 0.1953125 -2.66796875 0.1953125 0 0 Z M-81.54296875 21.3203125 C-83.8687901 24.02659917 -83.8687901 24.02659917 -84.23046875 27.2578125 C-83.5315219 30.90786829 -82.6859483 32.05095861 -79.66796875 34.1953125 C-76.76445751 35.35980131 -76.76445751 35.35980131 -73.66796875 35.1953125 C-70.21112913 33.27484604 -68.94635961 32.01308566 -67.66796875 28.2578125 C-67.66796875 24.62289956 -68.46835461 23.04666417 -70.66796875 20.1953125 C-74.87337951 18.09260712 -77.8234462 18.57110018 -81.54296875 21.3203125 Z " fill="#D8CFBB" transform="translate(101.66796875,190.8046875)"/>
<path d="M0 0 C3.85913506 3.08889617 5.10510596 4.8506357 5.9609375 9.76953125 C6.52390533 9.75398697 7.08687317 9.73844269 7.66690063 9.72242737 C13.53917257 9.56727068 19.41086042 9.46186907 25.28466797 9.38500977 C27.4750128 9.34985928 29.66519399 9.30212803 31.85498047 9.24145508 C35.00789772 9.15629912 38.15864062 9.1167888 41.3125 9.0859375 C42.28772614 9.0498085 43.26295227 9.0136795 44.26773071 8.97645569 C50.93141834 8.9726282 50.93141834 8.9726282 53.83247375 11.21820068 C55.3749919 12.99421757 56.67945425 14.79908976 57.9609375 16.76953125 C58.58476318 17.55086426 59.20858887 18.33219727 59.85131836 19.13720703 C61.54957354 21.37819813 63.22761609 23.6330154 64.8984375 25.89453125 C65.49978516 26.67957031 66.10113281 27.46460937 66.72070312 28.2734375 C67.28337891 29.03785156 67.84605469 29.80226562 68.42578125 30.58984375 C68.9374585 31.27320801 69.44913574 31.95657227 69.97631836 32.66064453 C71.25290085 35.39486708 70.79582191 36.93086233 69.9609375 39.76953125 C68.6409375 40.09953125 67.3209375 40.42953125 65.9609375 40.76953125 C48.9609375 20.42462384 48.9609375 20.42462384 48.9609375 16.76953125 C34.7709375 16.76953125 20.5809375 16.76953125 5.9609375 16.76953125 C5.6309375 18.41953125 5.3009375 20.06953125 4.9609375 21.76953125 C3.09929733 24.54692968 0.92995578 26.24967666 -2.0390625 27.76953125 C-7.67474231 28.77159731 -12.3833225 28.52478108 -17.6015625 26.14453125 C-21.57547396 22.27251495 -23.18629452 18.83775938 -23.4765625 13.33203125 C-23.29570619 8.45713156 -21.93456841 5.68237708 -19.0390625 1.76953125 C-13.30683614 -2.52963852 -6.39681298 -3.86014576 0 0 Z M-14.0390625 7.76953125 C-16.31114953 9.63665154 -16.31114953 9.63665154 -16.4140625 12.58203125 C-15.94251003 16.59022728 -15.07800509 18.12019669 -12.0390625 20.76953125 C-7.59834424 21.57693457 -5.77116194 21.27284961 -2.0390625 18.70703125 C0.30095705 15.86241375 0.30095705 15.86241375 -0.0390625 12.14453125 C-1.12970907 8.23781509 -1.12970907 8.23781509 -4.0390625 5.76953125 C-8.39295643 4.16546507 -10.37501517 5.09576698 -14.0390625 7.76953125 Z " fill="#D8CFBC" transform="translate(34.0390625,25.23046875)"/>
<path d="M0 0 C3.14850978 1.65148249 4.16559258 2.82291009 5.375 6.125 C6.15647695 8.09074004 6.15647695 8.09074004 7.8125 9.4375 C11.01162346 9.6698884 11.01162346 9.6698884 14.6875 9.5 C20.93477413 9.38209782 24.27392421 10.95652829 28.81689453 15.25561523 C37.83003053 24.56401319 37.83003053 24.56401319 37.8125 29.4375 C37.1525 30.0975 36.4925 30.7575 35.8125 31.4375 C32.0001251 31.4375 30.84265095 30.46760719 28.12109375 27.75 C27.16223882 26.64741664 26.20528221 25.54318021 25.25 24.4375 C21.15311956 19.96794061 18.377636 17.63591202 12.0625 17.1875 C10.31072429 17.2144504 8.55708371 17.27665186 6.8125 17.4375 C6.70808594 18.20578125 6.60367188 18.9740625 6.49609375 19.765625 C5.43760222 23.90281477 3.20079701 24.94813893 -0.1875 27.4375 C-3.902108 29.294804 -8.13343118 28.88032906 -12.1875 28.4375 C-17.02513525 26.10826821 -19.82369663 23.25602225 -22.1875 18.4375 C-23.0896605 12.79139441 -22.42929585 8.24430074 -19.1875 3.4375 C-13.39604989 -1.91959135 -7.3620976 -3.21405007 0 0 Z M-13.1875 7.4375 C-15.53299674 10.95574511 -15.76741403 12.29525694 -15.1875 16.4375 C-12.73155875 19.76024404 -11.2618356 21.21368008 -7.1875 22.0625 C-3.07460733 21.20564736 -1.59063068 19.86014067 0.8125 16.4375 C1.1434316 12.83719811 1.1434316 12.83719811 -0.1875 9.4375 C-2.37248756 6.90558501 -2.37248756 6.90558501 -5.1875 5.4375 C-8.96899076 5.4375 -10.151849 5.51492103 -13.1875 7.4375 Z " fill="#D8CFBB" transform="translate(32.1875,79.5625)"/>
<path d="M0 0 C2.125 0.9375 2.125 0.9375 4 2 C3.81524536 7.69479014 -0.0801107 10.56464491 -3.9375 14.25 C-4.58396484 14.88679687 -5.23042969 15.52359375 -5.89648438 16.1796875 C-10.90019964 21.06389555 -12.90532346 22.12813342 -20.125 22.0625 C-21.40632813 22.05347656 -22.68765625 22.04445312 -24.0078125 22.03515625 C-24.99523437 22.02355469 -25.98265625 22.01195312 -27 22 C-27.10570313 22.76828125 -27.21140625 23.5365625 -27.3203125 24.328125 C-28.32905146 28.29351262 -30.75920657 29.66662873 -34 32 C-39.36950705 33.78983568 -44.19735333 33.88431724 -49.3125 31.375 C-52.82504268 28.27089251 -55.58118706 25.62111018 -56.34765625 20.82421875 C-56.54020605 15.84303913 -55.84263704 12.21494457 -53 8 C-48.60394798 3.93365188 -45.16926404 2.61545471 -39.125 2.7265625 C-35.47640416 3.19605093 -32.75411565 4.5805617 -30 7 C-28.35127461 9.27125297 -27.22487727 11.45225528 -26 14 C-22.06086955 14.92360373 -18.93254808 15.02264844 -15 14 C-11.0501675 11.1802524 -7.87935299 7.53727321 -4.65234375 3.94140625 C-2 1 -2 1 0 0 Z M-46.9375 12.0625 C-49.17147653 14.83235609 -49.17147653 14.83235609 -49.625 18 C-48.77618008 22.0743356 -47.32274404 23.54405875 -44 26 C-41 26.83333333 -41 26.83333333 -38 26 C-34.91666667 24.08333333 -34.91666667 24.08333333 -33 21 C-33 17.47866855 -33.30558577 15.15735706 -35.125 12.125 C-39.47831607 9.51301036 -42.76479281 9.13272686 -46.9375 12.0625 Z " fill="#D8CFBC" transform="translate(66,145)"/>
<path d="M0 0 C3.76932608 1.90091014 4.84510173 2.75630534 6.375 6.9453125 C7.31285287 8.90820033 7.31285287 8.90820033 9.0625 10.3515625 C13.79552337 11.41621786 18.47821357 11.32974709 23.3125 11.2890625 C24.62992188 11.30517578 25.94734375 11.32128906 27.3046875 11.33789062 C30.55834203 11.37325644 33.80884045 11.37659553 37.0625 11.3515625 C37.6875 13.7265625 37.6875 13.7265625 38.0625 16.3515625 C36.0625 18.3515625 36.0625 18.3515625 33.26513672 18.57861328 C32.10256348 18.56813965 30.93999023 18.55766602 29.7421875 18.546875 C27.85693359 18.53720703 27.85693359 18.53720703 25.93359375 18.52734375 C24.61488281 18.51058594 23.29617187 18.49382812 21.9375 18.4765625 C20.59766279 18.46653233 19.25781848 18.45740654 17.91796875 18.44921875 C14.63263427 18.42558325 11.34765535 18.39263484 8.0625 18.3515625 C7.92513428 19.1446582 7.78776855 19.93775391 7.64624023 20.75488281 C6.72301637 24.86170381 4.39126697 25.90593779 1.0625 28.3515625 C-2.652108 30.2088665 -6.88343118 29.79439156 -10.9375 29.3515625 C-15.77513525 27.02233071 -18.57369663 24.17008475 -20.9375 19.3515625 C-21.8396605 13.70545691 -21.17929585 9.15836324 -17.9375 4.3515625 C-12.74535874 -0.45116816 -6.87980011 -2.30251375 0 0 Z M-11.9375 8.3515625 C-14.28299674 11.86980761 -14.51741403 13.20931944 -13.9375 17.3515625 C-11.48155875 20.67430654 -10.0118356 22.12774258 -5.9375 22.9765625 C-1.82460733 22.11970986 -0.34063068 20.77420317 2.0625 17.3515625 C2.3934316 13.75126061 2.3934316 13.75126061 1.0625 10.3515625 C-1.12248756 7.81964751 -1.12248756 7.81964751 -3.9375 6.3515625 C-7.71899076 6.3515625 -8.901849 6.42898353 -11.9375 8.3515625 Z " fill="#D8CFBC" transform="translate(30.9375,113.6484375)"/>
<path d="M0 0 C3.97973579 2.6014328 6.02748845 5.93971021 7.25 10.5 C7.56888992 15.21159851 6.66834574 18.66330852 4.5625 22.875 C2.00918852 25.77335357 -0.28708687 26.87986828 -3.75 28.5 C-3.76981934 29.27714355 -3.78963867 30.05428711 -3.81005859 30.85498047 C-3.90507009 34.36200691 -4.01484559 37.86841794 -4.125 41.375 C-4.1559375 42.59832031 -4.186875 43.82164063 -4.21875 45.08203125 C-4.25742188 46.24863281 -4.29609375 47.41523437 -4.3359375 48.6171875 C-4.3673584 49.69597168 -4.3987793 50.77475586 -4.43115234 51.88623047 C-4.75 54.5 -4.75 54.5 -6.75 56.5 C-10.28571429 55.96428571 -10.28571429 55.96428571 -11.75 54.5 C-11.83494582 52.62007936 -11.85819003 50.73730562 -11.85546875 48.85546875 C-11.87029297 47.70369141 -11.88511719 46.55191406 -11.90039062 45.36523438 C-11.92501077 42.92524886 -11.93040744 40.48498916 -11.91601562 38.04492188 C-11.97646432 34.76054302 -12.08888894 31.71876301 -12.75 28.5 C-15.45445476 25.67971829 -15.45445476 25.67971829 -18.75 24.5 C-21.49019675 22.12035546 -22.61237035 20.52526359 -23.09765625 16.91015625 C-23.25748887 11.73296905 -23.31156552 7.55281594 -19.75 3.5 C-13.97748853 -1.69526033 -7.19958284 -3.52220971 0 0 Z M-15.75 10.5 C-16.58345815 14.04295504 -16.58345815 14.04295504 -15.75 17.5 C-13.81873898 20.17838573 -13.81873898 20.17838573 -10.75 21.5 C-7.2258443 21.43923869 -4.83383034 21.22255356 -1.875 19.25 C-0.36536655 16.9016813 0.11663055 15.30075852 0.25 12.5 C-1.37155629 9.01365399 -2.51453292 7.65697806 -5.75 5.5 C-10.74454624 4.57995201 -12.82345937 6.57007401 -15.75 10.5 Z " fill="#D8CFBC" transform="translate(138.75,9.5)"/>
<path d="M0 0 C2.5 0.125 2.5 0.125 3.5 1.125 C3.58758003 3.12464982 3.60696576 5.1273611 3.59765625 7.12890625 C3.59443359 8.34384766 3.59121094 9.55878906 3.58789062 10.81054688 C3.57951172 12.08994141 3.57113281 13.36933594 3.5625 14.6875 C3.55798828 15.97076172 3.55347656 17.25402344 3.54882812 18.57617188 C3.53699545 21.75916022 3.52051068 24.94205762 3.5 28.125 C4.28858398 28.26292969 5.07716797 28.40085938 5.88964844 28.54296875 C9.60813361 29.37208104 10.9572998 31.12077617 13.2578125 34.03515625 C15.40922254 37.65466686 15.92238198 40.95845233 15.5 45.125 C14.21883492 49.57370819 12.21537251 52.44369284 8.875 55.625 C3.74999862 57.90277839 -1.23880928 58.26276617 -6.59375 56.39453125 C-10.52157341 54.35572461 -13.00033091 52.27114396 -14.5 48.125 C-15.02405501 43.23135955 -15.17304168 38.78989258 -13.3125 34.1875 C-11.21090667 31.79603172 -9.14134861 29.90791031 -6.5 28.125 C-5.51 28.125 -4.52 28.125 -3.5 28.125 C-3.50523682 27.31232666 -3.51047363 26.49965332 -3.51586914 25.66235352 C-3.53656994 22.00407678 -3.54963803 18.34581233 -3.5625 14.6875 C-3.57506836 12.7684082 -3.57506836 12.7684082 -3.58789062 10.81054688 C-3.59272461 8.98813477 -3.59272461 8.98813477 -3.59765625 7.12890625 C-3.60289307 6.00299072 -3.60812988 4.8770752 -3.61352539 3.71704102 C-3.46314571 0.28353325 -3.42370175 0.17118509 0 0 Z M-6.5 37.125 C-8.04586876 40.21673752 -7.79359521 42.71929552 -7.5 46.125 C-6.08333333 48.70833333 -6.08333333 48.70833333 -3.5 50.125 C-0.04295504 50.95845815 -0.04295504 50.95845815 3.5 50.125 C6.65336625 47.64100203 6.65336625 47.64100203 8.5 44.125 C8.83550847 40.97127591 8.83550847 40.97127591 7.5 38.125 C5.29511741 35.66083866 5.29511741 35.66083866 2.5 34.125 C-1.79387011 34.125 -3.08866484 34.72784556 -6.5 37.125 Z " fill="#D8CFBC" transform="translate(130.5,190.875)"/>
<path d="M0 0 C0.66 0 1.32 0 2 0 C3.44030165 3.81144735 4.8767239 7.62434581 6.3125 11.4375 C6.91868164 13.04141602 6.91868164 13.04141602 7.53710938 14.67773438 C14 31.85956555 14 31.85956555 14 36 C5.42 36 -3.16 36 -12 36 C-8.625 24.75 -8.625 24.75 -6.73828125 19.3359375 C-6.34189453 18.19511719 -5.94550781 17.05429688 -5.53710938 15.87890625 C-5.13298828 14.72261719 -4.72886719 13.56632812 -4.3125 12.375 C-3.68891602 10.58255859 -3.68891602 10.58255859 -3.05273438 8.75390625 C-2.03704961 5.83527186 -1.01943395 2.91732651 0 0 Z " fill="#D8CFBC" transform="translate(118,100)"/>
</svg>
