<?xml version="1.0" encoding="UTF-8"?>
<svg version="1.1" xmlns="http://www.w3.org/2000/svg" width="256" height="256">
<path d="M0 0 C0.99070244 -0.00525696 0.99070244 -0.00525696 2.00141907 -0.01062012 C4.18326341 -0.01941864 6.36478325 -0.01359577 8.54663086 -0.00683594 C10.06212934 -0.00818297 11.57762739 -0.01012382 13.09312439 -0.01263428 C16.2681795 -0.01558285 19.44312204 -0.01129592 22.61816406 -0.00195312 C26.69281739 0.00945106 30.76720753 0.00287427 34.84185123 -0.00909805 C37.97047418 -0.0163156 41.09903442 -0.0140294 44.22765923 -0.00884247 C45.73040231 -0.00750618 47.23315104 -0.00915297 48.73588753 -0.01380157 C50.83319367 -0.01886623 52.93006974 -0.01115836 55.02734375 0 C56.22186661 0.00159119 57.41638947 0.00318237 58.64710999 0.00482178 C61.44897461 0.25878906 61.44897461 0.25878906 63.44897461 2.25878906 C63.69897461 5.25878906 63.69897461 5.25878906 63.44897461 8.25878906 C61.44897461 10.25878906 61.44897461 10.25878906 58.81674194 10.4992981 C57.70199493 10.49485687 56.58724792 10.49041565 55.4387207 10.48583984 C54.15989014 10.48559814 52.88105957 10.48535645 51.56347656 10.48510742 C50.19978644 10.47503544 48.83609822 10.46470222 47.47241211 10.45410156 C46.23595947 10.4520874 44.99950684 10.45007324 43.72558594 10.44799805 C39.09167794 10.43750704 34.45782268 10.40958466 29.82397461 10.38378906 C14.29334961 10.32191406 14.29334961 10.32191406 -1.55102539 10.25878906 C-1.55102539 32.69878906 -1.55102539 55.13878906 -1.55102539 78.25878906 C9.87753577 78.17963647 9.87753577 78.17963647 21.3059082 78.07861328 C22.73640648 78.07277322 24.16690807 78.06767652 25.59741211 78.06347656 C26.71563354 78.04812866 26.71563354 78.04812866 27.85644531 78.0324707 C29.72214745 78.03183589 31.58732315 78.13591214 33.44897461 78.25878906 C35.44897461 80.25878906 35.44897461 80.25878906 35.69897461 83.25878906 C35.44897461 86.25878906 35.44897461 86.25878906 33.44897461 88.25878906 C21.89897461 88.25878906 10.34897461 88.25878906 -1.55102539 88.25878906 C-1.55102539 114.65878906 -1.55102539 141.05878906 -1.55102539 168.25878906 C9.99897461 168.25878906 21.54897461 168.25878906 33.44897461 168.25878906 C35.44897461 170.25878906 35.44897461 170.25878906 35.69897461 173.25878906 C35.44897461 176.25878906 35.44897461 176.25878906 33.44897461 178.25878906 C30.79703034 178.43382868 28.24825307 178.49048509 25.59741211 178.45410156 C24.91138916 178.4520874 24.22536621 178.45007324 23.51855469 178.44799805 C20.95362674 178.43752664 18.38879402 178.40960403 15.82397461 178.38378906 C7.22334961 178.32191406 7.22334961 178.32191406 -1.55102539 178.25878906 C-1.55102539 200.69878906 -1.55102539 223.13878906 -1.55102539 246.25878906 C52.56897461 246.25878906 106.68897461 246.25878906 162.44897461 246.25878906 C162.44897461 223.81878906 162.44897461 201.37878906 162.44897461 178.25878906 C151.02041345 178.33794165 151.02041345 178.33794165 139.59204102 178.43896484 C138.16154274 178.4448049 136.73104114 178.44990161 135.30053711 178.45410156 C134.55505615 178.4643335 133.8095752 178.47456543 133.04150391 178.48510742 C131.17580177 178.48574223 129.31062607 178.38166599 127.44897461 178.25878906 C125.44897461 176.25878906 125.44897461 176.25878906 125.19897461 173.25878906 C125.44897461 170.25878906 125.44897461 170.25878906 127.44897461 168.25878906 C138.99897461 168.25878906 150.54897461 168.25878906 162.44897461 168.25878906 C162.44897461 141.85878906 162.44897461 115.45878906 162.44897461 88.25878906 C150.89897461 88.25878906 139.34897461 88.25878906 127.44897461 88.25878906 C125.44897461 86.25878906 125.44897461 86.25878906 125.19897461 83.25878906 C125.44897461 80.25878906 125.44897461 80.25878906 127.44897461 78.25878906 C130.10091888 78.08374945 132.64969615 78.02709303 135.30053711 78.06347656 C135.98656006 78.06549072 136.67258301 78.06750488 137.37939453 78.06958008 C139.94432248 78.08005148 142.50915519 78.1079741 145.07397461 78.13378906 C153.67459961 78.19566406 153.67459961 78.19566406 162.44897461 78.25878906 C162.44897461 55.81878906 162.44897461 33.37878906 162.44897461 10.25878906 C141.80561206 10.33798641 141.80561206 10.33798641 121.16235352 10.43896484 C118.58341639 10.44480347 116.00447743 10.44990051 113.42553711 10.45410156 C112.7531601 10.45932831 112.08078308 10.46455505 111.38803101 10.46994019 C109.4118103 10.48453622 107.43550308 10.48546633 105.45922852 10.48583984 C103.787108 10.49250168 103.787108 10.49250168 102.08120728 10.4992981 C99.44897461 10.25878906 99.44897461 10.25878906 97.44897461 8.25878906 C97.19897461 5.25878906 97.19897461 5.25878906 97.44897461 2.25878906 C100.2340339 -0.52627022 101.93689358 -0.00670899 105.83886719 -0.03173828 C106.49437057 -0.03845551 107.14987396 -0.04517273 107.82524109 -0.05209351 C109.99807261 -0.071132 112.17059605 -0.07500095 114.34350586 -0.07714844 C115.85324735 -0.08357371 117.36298759 -0.09030187 118.87272644 -0.09732056 C122.04115687 -0.10930892 125.20947817 -0.11299993 128.37792969 -0.11181641 C132.43345773 -0.11161344 136.48828321 -0.13888435 140.54364491 -0.17336082 C143.66382544 -0.19562903 146.78383711 -0.19965394 149.90408897 -0.19859695 C151.39879458 -0.20095424 152.89350475 -0.2097851 154.3881321 -0.22526169 C156.48288281 -0.24491607 158.57612203 -0.23908725 160.67089844 -0.22705078 C161.86177567 -0.22990082 163.05265289 -0.23275085 164.27961731 -0.23568726 C168.10032669 0.36041161 169.74830765 1.5350599 172.44897461 4.25878906 C173.60932966 7.7398542 173.56900165 10.44351236 173.5625 14.11694336 C173.56264603 14.80988495 173.56279205 15.50282654 173.5629425 16.21676636 C173.56224624 18.50554543 173.55446721 20.79424297 173.54663086 23.08300781 C173.54476566 24.67055721 173.54334224 26.25810717 173.54234314 27.84565735 C173.53852595 32.02301626 173.52870247 36.20034038 173.51763916 40.37768555 C173.50740789 44.64078297 173.50284184 48.90388602 173.49780273 53.16699219 C173.4870795 61.53094044 173.47001264 69.89486042 173.44897461 78.25878906 C174.4737793 78.20078125 175.49858398 78.14277344 176.55444336 78.08300781 C177.91507472 78.03608949 179.27575557 77.99059154 180.63647461 77.94628906 C181.31000977 77.90439453 181.98354492 77.8625 182.67749023 77.81933594 C186.6240409 77.7230786 188.26490877 78.11373602 191.39979553 80.58418274 C193.94171694 83.90192064 194.05673248 85.65754589 194.00756836 89.80175781 C194.00047852 91.03990234 193.99338867 92.27804688 193.98608398 93.55371094 C193.93677734 95.48053711 193.93677734 95.48053711 193.88647461 97.44628906 C193.87777344 99.39051758 193.87777344 99.39051758 193.86889648 101.37402344 C193.74370014 110.96406353 193.74370014 110.96406353 191.44897461 113.25878906 C188.44897461 113.50878906 188.44897461 113.50878906 185.44897461 113.25878906 C183.44897461 111.25878906 183.44897461 111.25878906 183.22192383 108.92041016 C183.23763428 107.49075928 183.23763428 107.49075928 183.25366211 106.03222656 C183.26333008 104.48535156 183.26333008 104.48535156 183.27319336 102.90722656 C183.29833008 101.286875 183.29833008 101.286875 183.32397461 99.63378906 C183.33299805 98.54582031 183.34202148 97.45785156 183.35131836 96.33691406 C183.37493943 93.64411257 183.41081128 90.95142371 183.44897461 88.25878906 C180.14897461 88.25878906 176.84897461 88.25878906 173.44897461 88.25878906 C173.44897461 114.65878906 173.44897461 141.05878906 173.44897461 168.25878906 C176.74897461 168.25878906 180.04897461 168.25878906 183.44897461 168.25878906 C183.42577148 166.62167969 183.40256836 164.98457031 183.37866211 163.29785156 C183.35990758 161.15983527 183.34170704 159.02181407 183.32397461 156.88378906 C183.3072168 155.80355469 183.29045898 154.72332031 183.27319336 153.61035156 C183.26674805 152.57910156 183.26030273 151.54785156 183.25366211 150.48535156 C183.24318848 149.53225098 183.23271484 148.57915039 183.22192383 147.59716797 C183.44897461 145.25878906 183.44897461 145.25878906 185.44897461 143.25878906 C188.44897461 143.00878906 188.44897461 143.00878906 191.44897461 143.25878906 C195.28850156 147.09831602 193.86330562 153.89430686 193.88647461 159.07128906 C193.9193457 160.35583984 193.9522168 161.64039063 193.98608398 162.96386719 C193.99317383 164.20201172 194.00026367 165.44015625 194.00756836 166.71582031 C194.02775024 168.41702026 194.02775024 168.41702026 194.04833984 170.15258789 C193.24063203 174.33852128 191.77747657 175.63576394 188.44897461 178.25878906 C185.61023451 178.62650151 183.4307731 178.7450971 180.63647461 178.57128906 C179.59716797 178.53745117 179.59716797 178.53745117 178.53686523 178.50292969 C176.83995888 178.44441568 175.144176 178.35474386 173.44897461 178.25878906 C173.45896736 179.57637459 173.45896736 179.57637459 173.46916199 180.920578 C173.52930766 189.20418027 173.57496661 197.48770906 173.60441113 205.77147961 C173.62005783 210.03012099 173.64127779 214.28858172 173.67529297 218.54711914 C173.70792213 222.65792424 173.72583512 226.76855574 173.73360634 230.87948036 C173.73914348 232.44675745 173.74995626 234.0140252 173.76616478 235.58122826 C173.78798689 237.77888799 173.79093962 239.9758331 173.78955078 242.17358398 C173.79954353 244.04889046 173.79954353 244.04889046 173.80973816 245.96208191 C173.41561431 249.56364009 172.63330606 251.39805639 170.44897461 254.25878906 C166.75530426 256.72123596 164.92635104 256.51461093 160.5161438 256.5262146 C159.80657024 256.53074571 159.09699669 256.53527683 158.3659209 256.53994524 C155.98224417 256.55263108 153.5987947 256.55096621 151.21508789 256.54931641 C149.50849106 256.55529906 147.80189694 256.562104 146.0953064 256.56967163 C141.45478603 256.58736582 136.81433938 256.59202845 132.17378855 256.5933032 C128.30195994 256.5952006 124.43014858 256.60255632 120.5583266 256.60964739 C111.42437359 256.62594201 102.29046001 256.63081537 93.15649414 256.62939453 C83.72985757 256.62819286 74.30344987 256.64929721 64.87687123 256.68088186 C56.7876166 256.70702126 48.69843683 256.71776281 40.60914028 256.71648371 C35.7760183 256.71597338 30.94309965 256.72169567 26.11001968 256.74283981 C21.56437975 256.76218286 17.01913789 256.76237375 12.47348404 256.74780655 C10.80496643 256.74571243 9.13642416 256.75045515 7.46794891 256.76252747 C5.19008707 256.77794168 2.91360438 256.76869875 0.63577271 256.75326538 C-1.27617291 256.75489968 -1.27617291 256.75489968 -3.2267437 256.756567 C-7.14979198 256.16912975 -8.79722019 255.06897814 -11.55102539 252.25878906 C-12.71138044 248.77772392 -12.67105243 246.07406577 -12.66455078 242.40063477 C-12.66469681 241.70769318 -12.66484283 241.01475159 -12.66499329 240.30081177 C-12.66429702 238.01203269 -12.65651799 235.72333516 -12.64868164 233.43457031 C-12.64681645 231.84702092 -12.64539302 230.25947095 -12.64439392 228.67192078 C-12.64057673 224.49456186 -12.63075325 220.31723775 -12.61968994 216.13989258 C-12.60945867 211.87679515 -12.60489262 207.6136921 -12.59985352 203.35058594 C-12.58913028 194.98663768 -12.57206342 186.6227177 -12.55102539 178.25878906 C-14.08823242 178.34580078 -14.08823242 178.34580078 -15.65649414 178.43457031 C-17.0171255 178.48148864 -18.37780635 178.52698658 -19.73852539 178.57128906 C-20.74882812 178.63413086 -20.74882812 178.63413086 -21.77954102 178.69824219 C-25.72609169 178.79449952 -27.36695955 178.4038421 -30.50184631 175.93339539 C-33.04376773 172.61565749 -33.15878327 170.86003224 -33.10961914 166.71582031 C-33.1025293 165.47767578 -33.09543945 164.23953125 -33.08813477 162.96386719 C-33.05526367 161.67931641 -33.02239258 160.39476562 -32.98852539 159.07128906 C-32.98272461 157.77513672 -32.97692383 156.47898438 -32.97094727 155.14355469 C-32.84575092 145.55351459 -32.84575092 145.55351459 -30.55102539 143.25878906 C-27.55102539 143.00878906 -27.55102539 143.00878906 -24.55102539 143.25878906 C-22.55102539 145.25878906 -22.55102539 145.25878906 -22.32397461 147.59716797 C-22.33968506 149.02681885 -22.33968506 149.02681885 -22.35571289 150.48535156 C-22.36538086 152.03222656 -22.36538086 152.03222656 -22.37524414 153.61035156 C-22.39200195 154.69058594 -22.40875977 155.77082031 -22.42602539 156.88378906 C-22.43504883 157.97175781 -22.44407227 159.05972656 -22.45336914 160.18066406 C-22.47699021 162.87346555 -22.51286206 165.56615441 -22.55102539 168.25878906 C-19.25102539 168.25878906 -15.95102539 168.25878906 -12.55102539 168.25878906 C-12.55102539 141.85878906 -12.55102539 115.45878906 -12.55102539 88.25878906 C-15.85102539 88.25878906 -19.15102539 88.25878906 -22.55102539 88.25878906 C-22.52782227 89.89589844 -22.50461914 91.53300781 -22.48071289 93.21972656 C-22.46195836 95.35774285 -22.44375783 97.49576405 -22.42602539 99.63378906 C-22.40926758 100.71402344 -22.39250977 101.79425781 -22.37524414 102.90722656 C-22.36879883 103.93847656 -22.36235352 104.96972656 -22.35571289 106.03222656 C-22.34523926 106.98532715 -22.33476562 107.93842773 -22.32397461 108.92041016 C-22.55102539 111.25878906 -22.55102539 111.25878906 -24.55102539 113.25878906 C-27.55102539 113.50878906 -27.55102539 113.50878906 -30.55102539 113.25878906 C-34.39055234 109.41926211 -32.9653564 102.62327127 -32.98852539 97.44628906 C-33.02139648 96.16173828 -33.05426758 94.8771875 -33.08813477 93.55371094 C-33.09876953 91.69649414 -33.09876953 91.69649414 -33.10961914 89.80175781 C-33.12307373 88.66762451 -33.13652832 87.53349121 -33.15039062 86.36499023 C-32.34268281 82.17905684 -30.87952735 80.88181418 -27.55102539 78.25878906 C-24.71228529 77.89107661 -22.53282388 77.77248102 -19.73852539 77.94628906 C-19.0456543 77.96884766 -18.3527832 77.99140625 -17.63891602 78.01464844 C-15.94200966 78.07316245 -14.24622678 78.16283427 -12.55102539 78.25878906 C-12.55768723 77.38039871 -12.56434906 76.50200836 -12.57121277 75.59700012 C-12.63135844 67.31339785 -12.67701739 59.02986907 -12.70646191 50.74609852 C-12.72210861 46.48745714 -12.74332857 42.2289964 -12.77734375 37.97045898 C-12.80997291 33.85965388 -12.8278859 29.74902239 -12.83565712 25.63809776 C-12.84119426 24.07082067 -12.85200704 22.50355293 -12.86821556 20.93634987 C-12.89003767 18.73869014 -12.8929904 16.54174503 -12.89160156 14.34399414 C-12.8982634 13.09378983 -12.90492523 11.84358551 -12.91178894 10.55549622 C-12.51766509 6.95393804 -11.73535684 5.11952173 -9.55102539 2.25878906 C-5.94053179 -0.14820667 -4.2944297 0.00571667 0 0 Z " fill="#D7CFBB" transform="translate(47.551025390625,-0.2587890625)"/>
<path d="M0 0 C1.09225388 -0.00571014 2.18450775 -0.01142029 3.30986023 -0.01730347 C4.51355255 -0.01842133 5.71724487 -0.01953918 6.95741272 -0.02069092 C8.22085007 -0.02565582 9.48428741 -0.03062073 10.78601074 -0.03573608 C14.25705689 -0.0488664 17.72808369 -0.05530606 21.1991508 -0.05974674 C23.36642833 -0.06267595 25.53370055 -0.06678043 27.70097542 -0.07125092 C34.47822385 -0.08492641 41.25546018 -0.09459328 48.03272146 -0.09845281 C55.86316751 -0.10293633 63.69343923 -0.12049752 71.52383226 -0.1494534 C77.57228071 -0.17104574 83.62068003 -0.18115574 89.66916662 -0.18249393 C93.28379452 -0.18354356 96.89825858 -0.18948487 100.51284599 -0.20731354 C104.54265357 -0.22680363 108.57209457 -0.2225151 112.60194397 -0.21600342 C113.80361206 -0.2252182 115.00528015 -0.23443298 116.24336243 -0.243927 C117.88597298 -0.23557327 117.88597298 -0.23557327 119.56176758 -0.22705078 C120.51506927 -0.22851734 121.46837095 -0.2299839 122.45056057 -0.2314949 C124.84437561 0.14044189 124.84437561 0.14044189 126.68625736 1.43684769 C127.84437561 3.14044189 127.84437561 3.14044189 127.65687561 6.76544189 C127.38875061 7.87919189 127.12062561 8.99294189 126.84437561 10.14044189 C124.30499996 11.41012972 122.53244518 11.27200687 119.68875122 11.28088379 C118.59649734 11.28659393 117.50424347 11.29230408 116.37889099 11.29818726 C115.17519867 11.29930511 113.97150635 11.30042297 112.7313385 11.30157471 C111.46790115 11.30653961 110.20446381 11.31150452 108.90274048 11.31661987 C105.43169433 11.32975018 101.96066753 11.33618984 98.48960042 11.34063053 C96.32232289 11.34355974 94.15505067 11.34766422 91.9877758 11.3521347 C85.21052737 11.3658102 78.43329104 11.37547706 71.65602976 11.3793366 C63.82558371 11.38382012 55.99531199 11.40138131 48.16491896 11.43033719 C42.11647051 11.45192953 36.06807119 11.46203953 30.0195846 11.46337771 C26.4049567 11.46442735 22.79049265 11.47036866 19.17590523 11.48819733 C15.14609765 11.50768741 11.11665665 11.50339889 7.08680725 11.49688721 C5.88513916 11.50610199 4.68347107 11.51531677 3.44538879 11.52481079 C2.35031509 11.51924164 1.25524139 11.51367249 0.12698364 11.50793457 C-0.82631804 11.50940113 -1.77961973 11.51086769 -2.76180935 11.51237869 C-5.15562439 11.14044189 -5.15562439 11.14044189 -6.99750614 9.8440361 C-8.15562439 8.14044189 -8.15562439 8.14044189 -7.96812439 4.51544189 C-7.69999939 3.40169189 -7.43187439 2.28794189 -7.15562439 1.14044189 C-4.61624874 -0.12924593 -2.84369396 0.00887691 0 0 Z " fill="#D8CFBC" transform="translate(68.15562438964844,216.85955810546875)"/>
<path d="M0 0 C1.09225388 -0.00571014 2.18450775 -0.01142029 3.30986023 -0.01730347 C4.51355255 -0.01842133 5.71724487 -0.01953918 6.95741272 -0.02069092 C8.22085007 -0.02565582 9.48428741 -0.03062073 10.78601074 -0.03573608 C14.25705689 -0.0488664 17.72808369 -0.05530606 21.1991508 -0.05974674 C23.36642833 -0.06267595 25.53370055 -0.06678043 27.70097542 -0.07125092 C34.47822385 -0.08492641 41.25546018 -0.09459328 48.03272146 -0.09845281 C55.86316751 -0.10293633 63.69343923 -0.12049752 71.52383226 -0.1494534 C77.57228071 -0.17104574 83.62068003 -0.18115574 89.66916662 -0.18249393 C93.28379452 -0.18354356 96.89825858 -0.18948487 100.51284599 -0.20731354 C104.54265357 -0.22680363 108.57209457 -0.2225151 112.60194397 -0.21600342 C113.80361206 -0.2252182 115.00528015 -0.23443298 116.24336243 -0.243927 C117.88597298 -0.23557327 117.88597298 -0.23557327 119.56176758 -0.22705078 C120.51506927 -0.22851734 121.46837095 -0.2299839 122.45056057 -0.2314949 C124.84437561 0.14044189 124.84437561 0.14044189 126.68625736 1.43684769 C127.84437561 3.14044189 127.84437561 3.14044189 127.65687561 6.76544189 C127.38875061 7.87919189 127.12062561 8.99294189 126.84437561 10.14044189 C124.30499996 11.41012972 122.53244518 11.27200687 119.68875122 11.28088379 C118.59649734 11.28659393 117.50424347 11.29230408 116.37889099 11.29818726 C115.17519867 11.29930511 113.97150635 11.30042297 112.7313385 11.30157471 C111.46790115 11.30653961 110.20446381 11.31150452 108.90274048 11.31661987 C105.43169433 11.32975018 101.96066753 11.33618984 98.48960042 11.34063053 C96.32232289 11.34355974 94.15505067 11.34766422 91.9877758 11.3521347 C85.21052737 11.3658102 78.43329104 11.37547706 71.65602976 11.3793366 C63.82558371 11.38382012 55.99531199 11.40138131 48.16491896 11.43033719 C42.11647051 11.45192953 36.06807119 11.46203953 30.0195846 11.46337771 C26.4049567 11.46442735 22.79049265 11.47036866 19.17590523 11.48819733 C15.14609765 11.50768741 11.11665665 11.50339889 7.08680725 11.49688721 C5.88513916 11.50610199 4.68347107 11.51531677 3.44538879 11.52481079 C2.35031509 11.51924164 1.25524139 11.51367249 0.12698364 11.50793457 C-0.82631804 11.50940113 -1.77961973 11.51086769 -2.76180935 11.51237869 C-5.15562439 11.14044189 -5.15562439 11.14044189 -6.99750614 9.8440361 C-8.15562439 8.14044189 -8.15562439 8.14044189 -7.96812439 4.51544189 C-7.69999939 3.40169189 -7.43187439 2.28794189 -7.15562439 1.14044189 C-4.61624874 -0.12924593 -2.84369396 0.00887691 0 0 Z " fill="#D8CFBC" transform="translate(68.15562438964844,27.85955810546875)"/>
<path d="M0 0 C5.93253767 5.11648991 8.57127615 11.2027316 9.4375 18.875 C9.08569974 26.03765322 6.39224312 32.14646754 1.125 37 C-5.17864945 41.92472613 -11.16838086 42.7528068 -19 42 C-25.57639306 40.70125092 -29.89763905 37.19849444 -34 32 C-37.65534944 25.98636059 -37.79447184 19.84889519 -37 13 C-35.19154798 6.28939186 -30.55802784 1.91884385 -25 -2 C-16.91062295 -6.04468853 -7.44758916 -4.83665273 0 0 Z M-24.3125 12.1875 C-26.51764827 15.86274711 -27.00309658 18.88652645 -26 23 C-24.08753581 26.75997676 -21.82377236 29.33681005 -17.80859375 30.796875 C-13.66097454 31.49867182 -11.466449 31.22458656 -7.625 29.375 C-4.06487124 26.15393112 -2.27620178 23.85449767 -1.5625 19.0625 C-2.2642674 14.15012822 -4.52288702 11.16614182 -8.375 8.125 C-15.04857215 5.26489765 -19.33589894 7.4799044 -24.3125 12.1875 Z " fill="#D8CFBC" transform="translate(98,109)"/>
<path d="M0 0 C0.69931641 -0.00708984 1.39863281 -0.01417969 2.11914062 -0.02148438 C6.83347168 0.03584612 10.09594467 0.90000723 14.1875 3.4375 C18.38704484 8.09104968 19.54195086 10.96585937 19.47265625 17.11328125 C19.0340413 20.68829353 17.52914608 22.7706253 15.1875 25.4375 C12.9375 26.8125 12.9375 26.8125 11.1875 27.4375 C13.18129645 30.4994017 14.97886876 33.21759139 17.5 35.875 C19.1875 38.4375 19.1875 38.4375 18.9375 42.25 C18.69 43.301875 18.4425 44.35375 18.1875 45.4375 C15.1875 46.4375 15.1875 46.4375 11.1875 46.4375 C7.09192061 43.40809478 3.9996092 39.65566379 1.1875 35.4375 C0.5275 38.7375 -0.1325 42.0375 -0.8125 45.4375 C-4.2775 45.9325 -4.2775 45.9325 -7.8125 46.4375 C-10.94087203 43.33087435 -11.17487441 40.59892108 -11.2293396 36.29321289 C-11.22326691 35.49520264 -11.21719421 34.69719238 -11.2109375 33.875 C-11.21524277 32.63254517 -11.21524277 32.63254517 -11.21963501 31.36499023 C-11.22167318 29.61669225 -11.21616056 27.86837133 -11.20361328 26.12011719 C-11.18755554 23.44674607 -11.20346971 20.7748867 -11.22265625 18.1015625 C-11.22067377 16.40103834 -11.21683001 14.70051511 -11.2109375 13 C-11.21701019 12.20198975 -11.22308289 11.40397949 -11.2293396 10.58178711 C-11.18804286 7.31710136 -11.03001155 4.85615565 -9.51147461 1.93334961 C-6.7209957 -0.52350688 -3.5239327 -0.09904072 0 0 Z M0.1875 11.4375 C0.1875 13.7475 0.1875 16.0575 0.1875 18.4375 C3.10402174 18.60431109 3.10402174 18.60431109 6.1875 18.4375 C6.8475 17.7775 7.5075 17.1175 8.1875 16.4375 C7.78221099 13.65512345 7.78221099 13.65512345 6.1875 11.4375 C4.18791636 11.39669217 2.18704746 11.39495644 0.1875 11.4375 Z " fill="#D8CFBB" transform="translate(175.8125,104.5625)"/>
<path d="M0 0 C2.125 2.375 2.125 2.375 3 5 C2.33719617 7.43028072 1.7989028 9.2010972 0 11 C-3.10735546 10.61158057 -6.17871898 10.1579934 -9.25390625 9.56640625 C-13.48007916 8.87277042 -15.4559997 8.74283622 -19.4375 10.625 C-22.16405526 13.15205121 -23.24334249 14.38485854 -24 18 C-23.91982499 22.48980038 -23.49221191 24.41944237 -20.5625 27.875 C-17.80398803 30.16254651 -16.77074605 30.91241522 -13.25 31.3125 C-9.2195605 30.92495774 -7.3071077 29.2516478 -4 27 C-1.3125 26.5 -1.3125 26.5 1 27 C2.875 28.6875 2.875 28.6875 4 31 C4.0625 33.4375 4.0625 33.4375 3 36 C-1.90492539 40.79344982 -5.90061039 43.03515709 -12.6875 43.4375 C-19.2297627 43.29103143 -24.61711846 40.80018424 -29.6328125 36.6484375 C-33.88993634 32.08541254 -35.83573292 26.39163203 -36.1328125 20.2578125 C-35.76174677 12.37812266 -33.23906384 7.15382532 -27.625 1.6875 C-18.59007651 -4.1206651 -9.70448563 -4.93736988 0 0 Z " fill="#D8CFBB" transform="translate(152,108)"/>
<path d="M0 0 C0.77575882 -0.0049649 1.55151764 -0.00992981 2.3507843 -0.01504517 C4.92274861 -0.02967717 7.49465127 -0.03646996 10.06665039 -0.04199219 C11.85022484 -0.04774211 13.63379926 -0.05349987 15.41737366 -0.05926514 C19.15911142 -0.06977762 22.90082767 -0.07561889 26.64257812 -0.07910156 C31.44248354 -0.08459147 36.24210601 -0.10862895 41.04192257 -0.13707352 C44.72645404 -0.15567423 48.41091695 -0.16090409 52.09549141 -0.16243744 C53.86536776 -0.16546955 55.63524274 -0.17351679 57.40507317 -0.18662262 C59.87834247 -0.20363228 62.35091508 -0.20181576 64.82421875 -0.1953125 C65.55834991 -0.20452728 66.29248108 -0.21374207 67.04885864 -0.22323608 C69.95174521 -0.19926302 71.99724232 -0.151117 74.46681213 1.45684814 C76.20989042 4.39815286 75.24170564 6.98386005 74.47680664 10.16113281 C71.44080966 11.6791313 68.28472861 11.3172073 64.95361328 11.32226562 C64.17785446 11.32723053 63.40209564 11.33219543 62.60282898 11.33731079 C60.03086467 11.3519428 57.45896202 11.35873559 54.88696289 11.36425781 C53.10338844 11.37000774 51.31981402 11.37576549 49.53623962 11.38153076 C45.79450186 11.39204325 42.05278561 11.39788451 38.31103516 11.40136719 C33.51112974 11.40685709 28.71150727 11.43089457 23.91169071 11.45933914 C20.22715924 11.47793986 16.54269633 11.48316971 12.85812187 11.48470306 C11.08824552 11.48773517 9.31837054 11.49578242 7.54854012 11.50888824 C5.07527081 11.52589791 2.6026982 11.52408138 0.12939453 11.51757812 C-0.60473663 11.52679291 -1.3388678 11.53600769 -2.09524536 11.54550171 C-4.99813193 11.52152865 -7.04362904 11.47338263 -9.51319885 9.86541748 C-11.25627714 6.92411277 -10.28809236 4.33840558 -9.52319336 1.16113281 C-6.48719638 -0.35686568 -3.33111533 0.00505833 0 0 Z " fill="#D8CFBC" transform="translate(95.523193359375,195.8388671875)"/>
<path d="M0 0 C0.77575882 -0.0049649 1.55151764 -0.00992981 2.3507843 -0.01504517 C4.92274861 -0.02967717 7.49465127 -0.03646996 10.06665039 -0.04199219 C11.85022484 -0.04774211 13.63379926 -0.05349987 15.41737366 -0.05926514 C19.15911142 -0.06977762 22.90082767 -0.07561889 26.64257812 -0.07910156 C31.44248354 -0.08459147 36.24210601 -0.10862895 41.04192257 -0.13707352 C44.72645404 -0.15567423 48.41091695 -0.16090409 52.09549141 -0.16243744 C53.86536776 -0.16546955 55.63524274 -0.17351679 57.40507317 -0.18662262 C59.87834247 -0.20363228 62.35091508 -0.20181576 64.82421875 -0.1953125 C65.55834991 -0.20452728 66.29248108 -0.21374207 67.04885864 -0.22323608 C69.95174521 -0.19926302 71.99724232 -0.151117 74.46681213 1.45684814 C76.20989042 4.39815286 75.24170564 6.98386005 74.47680664 10.16113281 C71.44080966 11.6791313 68.28472861 11.3172073 64.95361328 11.32226562 C64.17785446 11.32723053 63.40209564 11.33219543 62.60282898 11.33731079 C60.03086467 11.3519428 57.45896202 11.35873559 54.88696289 11.36425781 C53.10338844 11.37000774 51.31981402 11.37576549 49.53623962 11.38153076 C45.79450186 11.39204325 42.05278561 11.39788451 38.31103516 11.40136719 C33.51112974 11.40685709 28.71150727 11.43089457 23.91169071 11.45933914 C20.22715924 11.47793986 16.54269633 11.48316971 12.85812187 11.48470306 C11.08824552 11.48773517 9.31837054 11.49578242 7.54854012 11.50888824 C5.07527081 11.52589791 2.6026982 11.52408138 0.12939453 11.51757812 C-0.60473663 11.52679291 -1.3388678 11.53600769 -2.09524536 11.54550171 C-4.99813193 11.52152865 -7.04362904 11.47338263 -9.51319885 9.86541748 C-11.25627714 6.92411277 -10.28809236 4.33840558 -9.52319336 1.16113281 C-6.48719638 -0.35686568 -3.33111533 0.00505833 0 0 Z " fill="#D8CFBC" transform="translate(95.523193359375,48.8388671875)"/>
<path d="M0 0 C3 0.25 3 0.25 5 2.25 C5.25 5.25 5.25 5.25 5 8.25 C3 10.25 3 10.25 0 10.5 C-3 10.25 -3 10.25 -5 8.25 C-5.25 5.25 -5.25 5.25 -5 2.25 C-3 0.25 -3 0.25 0 0 Z " fill="#D8CFBC" transform="translate(128,-0.25)"/>
</svg>
