<?xml version="1.0" encoding="UTF-8"?>
<svg version="1.1" xmlns="http://www.w3.org/2000/svg" width="256" height="256">
<path d="M0 0 C2.03150645 1.44609143 3.87779739 2.98126324 5.734375 4.64453125 C6.33894531 5.14597656 6.94351563 5.64742187 7.56640625 6.1640625 C14.94006228 12.76661725 18.89073864 22.05762218 20.734375 31.64453125 C21.63929688 31.70060547 21.63929688 31.70060547 22.5625 31.7578125 C23.36171875 31.82355469 24.1609375 31.88929687 24.984375 31.95703125 C26.16773438 32.04404297 26.16773438 32.04404297 27.375 32.1328125 C30.42688623 32.79472822 31.59876336 33.3155812 33.734375 35.64453125 C34.31263155 38.72850709 34.19826587 41.77853011 34.125 44.90625 C34.11934021 45.812043 34.11368042 46.717836 34.10784912 47.65107727 C34.08545116 50.54526536 34.03524892 53.43821715 33.984375 56.33203125 C33.9643144 58.29360192 33.94606286 60.25519198 33.9296875 62.21679688 C33.88557518 67.02651831 33.81652441 71.83531515 33.734375 76.64453125 C35.054375 76.97453125 36.374375 77.30453125 37.734375 77.64453125 C37.734375 85.23453125 37.734375 92.82453125 37.734375 100.64453125 C35.754375 101.63453125 35.754375 101.63453125 33.734375 102.64453125 C33.74484863 103.48226074 33.75532227 104.31999023 33.76611328 105.18310547 C33.80017519 108.28791289 33.82526411 111.39262517 33.84423828 114.49755859 C33.85925607 116.50364485 33.88466481 118.50964449 33.91015625 120.515625 C33.91660156 121.77246094 33.92304688 123.02929688 33.9296875 124.32421875 C33.94016113 125.48679199 33.95063477 126.64936523 33.96142578 127.84716797 C33.734375 130.64453125 33.734375 130.64453125 31.734375 132.64453125 C29.69621754 132.90180016 29.69621754 132.90180016 27.13716125 132.91195679 C26.16848618 132.92048676 25.1998111 132.92901672 24.20178223 132.93780518 C23.13528442 132.9368988 22.06878662 132.93599243 20.9699707 132.93505859 C19.28927742 132.94513443 19.28927742 132.94513443 17.57463074 132.95541382 C13.85309468 132.97448379 10.1317382 132.97832299 6.41015625 132.98046875 C3.82903467 132.98689194 1.24791384 132.99361994 -1.33320618 133.00064087 C-6.75300085 133.01263725 -12.17272397 133.01640487 -17.5925293 133.01513672 C-23.84780229 133.01393724 -30.10272915 133.03499639 -36.35791463 133.06662405 C-42.38072787 133.09598731 -48.40335418 133.1031111 -54.42624855 133.10191727 C-56.98548607 133.1042774 -59.54472615 133.11312399 -62.10391808 133.128582 C-65.68765205 133.14819551 -69.27049955 133.14242042 -72.85424805 133.13037109 C-73.91062469 133.14161011 -74.96700134 133.15284912 -76.0553894 133.16442871 C-83.27300069 133.10281906 -87.50353481 131.95109975 -93.02209473 127.10073853 C-97.8575337 120.14647324 -96.94823875 111.76852667 -96.859375 103.66796875 C-96.85766164 102.01225878 -96.85773187 100.3565461 -96.85949707 98.70083618 C-96.85784926 95.24267376 -96.83924806 91.78516386 -96.80761719 88.32714844 C-96.76787872 83.90425676 -96.76358251 79.48221572 -96.77108002 75.05917931 C-96.774155 71.64468655 -96.7620115 68.23038351 -96.74494934 64.81593704 C-96.7379415 63.18533137 -96.73479211 61.55470422 -96.73564148 59.92408371 C-96.73383548 57.64349507 -96.71238898 55.36391016 -96.68554688 53.08349609 C-96.67712769 51.78858246 -96.6687085 50.49366882 -96.66003418 49.15951538 C-96.05786181 43.7929407 -94.28581674 40.64205206 -90.453125 36.89453125 C-84.93957478 33.00261344 -80.01659293 32.35259795 -73.390625 32.51953125 C-72.35808594 32.53306641 -72.35808594 32.53306641 -71.3046875 32.546875 C-69.62484662 32.57020612 -67.94518754 32.60606799 -66.265625 32.64453125 C-66.19085938 32.05027344 -66.11609375 31.45601562 -66.0390625 30.84375 C-64.17989324 19.1236928 -58.17041578 9.17662188 -48.703125 2.01953125 C-34.35066016 -7.49952999 -15.07005237 -9.01604857 0 0 Z M-49.265625 16.64453125 C-56.17364994 25.62170517 -57.09102724 34.49561984 -56.265625 45.64453125 C-55.51270339 48.51694895 -54.47813777 50.91637752 -53.265625 53.64453125 C-53.015625 56.58203125 -53.015625 56.58203125 -53.265625 58.64453125 C-54.265625 59.64453125 -54.265625 59.64453125 -57.828125 59.70703125 C-58.9625 59.68640625 -60.096875 59.66578125 -61.265625 59.64453125 C-62.97258233 53.98881264 -64.65897198 48.32961117 -66.265625 42.64453125 C-67.255625 42.64453125 -68.245625 42.64453125 -69.265625 42.64453125 C-69.265625 69.37453125 -69.265625 96.10453125 -69.265625 123.64453125 C-38.575625 123.64453125 -7.885625 123.64453125 23.734375 123.64453125 C23.734375 116.71453125 23.734375 109.78453125 23.734375 102.64453125 C20.77213542 102.48177083 17.80989583 102.31901042 14.84765625 102.15625 C10.49429713 101.44070415 7.77391367 99.86330073 4.921875 96.51953125 C2.86989233 91.5515732 2.97622597 86.82420971 4.734375 81.76953125 C9.82742205 76.35816876 16.60917517 76.43622012 23.734375 75.64453125 C23.734375 64.75453125 23.734375 53.86453125 23.734375 42.64453125 C22.744375 42.64453125 21.754375 42.64453125 20.734375 42.64453125 C20.46625 43.59972656 20.198125 44.55492187 19.921875 45.5390625 C16.37167026 57.51032179 11.04832948 68.27678062 -0.265625 74.64453125 C-11.65691895 80.2261132 -21.86773096 81.71084692 -34.265625 79.64453125 C-33.935625 77.33453125 -33.605625 75.02453125 -33.265625 72.64453125 C-29.95634387 71.61967114 -27.14788618 71.66231599 -23.703125 71.83203125 C-14.23439921 71.87810777 -6.52946058 68.7498109 0.7265625 62.703125 C7.39078602 55.87035108 11.00182057 47.40234262 11.109375 37.89453125 C10.89894143 27.35070163 7.62704207 20.53831203 0.375 12.9140625 C-6.37345542 7.11398469 -15.02879594 3.1428331 -24.05859375 3.37890625 C-34.66318803 4.6552114 -42.22425465 8.67044207 -49.265625 16.64453125 Z M-86.265625 46.64453125 C-87.50937113 50.02420423 -87.40513874 53.39952818 -87.42675781 56.97021484 C-87.43636536 58.25189545 -87.4459729 59.53357605 -87.45587158 60.85409546 C-87.46071964 62.25038474 -87.46499845 63.64667609 -87.46875 65.04296875 C-87.47450611 66.4801941 -87.48026378 67.91741944 -87.48602295 69.35464478 C-87.49651515 72.36566524 -87.50236959 75.37665915 -87.50585938 78.38769531 C-87.51134325 82.23666808 -87.53537618 86.08528695 -87.56383133 89.93414879 C-87.5824987 92.90250663 -87.58766546 95.87077986 -87.58919525 98.83919144 C-87.5922126 100.25770631 -87.60021005 101.67622003 -87.61338043 103.09467697 C-87.63052637 105.0830657 -87.62670356 107.07160134 -87.62207031 109.06005859 C-87.62571594 110.18938812 -87.62936157 111.31871765 -87.63311768 112.48226929 C-87.2016726 116.19483949 -86.32367986 118.52510218 -84.265625 121.64453125 C-82.615625 122.30453125 -80.965625 122.96453125 -79.265625 123.64453125 C-79.265625 96.91453125 -79.265625 70.18453125 -79.265625 42.64453125 C-82.48766784 42.64453125 -83.97106069 44.52647188 -86.265625 46.64453125 Z M12.734375 86.64453125 C12.48406523 89.06072948 12.48406523 89.06072948 12.734375 91.64453125 C16.36632996 94.06583456 18.11786848 93.8547591 22.421875 93.76953125 C23.60136719 93.75148438 24.78085938 93.7334375 25.99609375 93.71484375 C26.89972656 93.69164062 27.80335938 93.6684375 28.734375 93.64453125 C28.734375 91.00453125 28.734375 88.36453125 28.734375 85.64453125 C26.44277181 85.61760641 24.15107954 85.59817001 21.859375 85.58203125 C19.94511719 85.56462891 19.94511719 85.56462891 17.9921875 85.546875 C14.84772848 85.41276556 14.84772848 85.41276556 12.734375 86.64453125 Z " fill="#D8CFBC" transform="translate(157.265625,64.35546875)"/>
<path d="M0 0 C0.92425781 -0.00386719 1.84851563 -0.00773438 2.80078125 -0.01171875 C4.24517578 0.00568359 4.24517578 0.00568359 5.71875 0.0234375 C6.68167969 0.01183594 7.64460938 0.00023437 8.63671875 -0.01171875 C9.56097656 -0.00785156 10.48523438 -0.00398437 11.4375 0 C12.28248047 0.00338379 13.12746094 0.00676758 13.99804688 0.01025391 C16.70042054 0.48263453 17.59011223 1.22367359 19.21875 3.3984375 C19.59375 5.9609375 19.59375 5.9609375 19.21875 8.3984375 C16.21875 10.3984375 16.21875 10.3984375 2.21875 10.3984375 C2.21875 29.8684375 2.21875 49.3384375 2.21875 69.3984375 C21.68875 69.3984375 41.15875 69.3984375 61.21875 69.3984375 C61.21875 64.7784375 61.21875 60.1584375 61.21875 55.3984375 C63.21875 53.3984375 63.21875 53.3984375 66.21875 53.0859375 C67.70375 53.240625 67.70375 53.240625 69.21875 53.3984375 C72.06674817 57.67043475 71.54893316 61.37642035 71.53125 66.3984375 C71.54736328 67.31367188 71.56347656 68.22890625 71.58007812 69.171875 C71.58072266 70.05101562 71.58136719 70.93015625 71.58203125 71.8359375 C71.58501221 72.63902344 71.58799316 73.44210938 71.59106445 74.26953125 C71.10469113 77.05062988 70.50434647 77.73701713 68.21875 79.3984375 C65.10681152 79.77938843 65.10681152 79.77938843 61.22460938 79.78662109 C60.1631646 79.79450653 60.1631646 79.79450653 59.08027649 79.80255127 C56.74079323 79.81575697 54.4019902 79.80701165 52.0625 79.796875 C50.43729522 79.79889558 48.81209132 79.80180689 47.18688965 79.80557251 C43.78059254 79.80999662 40.37453141 79.80356216 36.96826172 79.78955078 C32.59990404 79.77245867 28.23209929 79.78229941 23.8637619 79.80026817 C20.5077497 79.81110377 17.1518688 79.80766074 13.79585266 79.7998848 C12.18508336 79.79788216 10.57430218 79.8003443 8.96354675 79.80732346 C6.71300639 79.81493448 4.46336402 79.80333978 2.21289062 79.78662109 C0.93176392 79.78423431 -0.34936279 79.78184753 -1.66931152 79.77938843 C-4.78125 79.3984375 -4.78125 79.3984375 -6.69412231 78.31130981 C-8.37444399 75.35467385 -8.16313517 72.78503362 -8.16943359 69.40429688 C-8.17469055 68.69666702 -8.17994751 67.98903717 -8.18536377 67.25996399 C-8.19856947 64.92048073 -8.18982415 62.5816777 -8.1796875 60.2421875 C-8.18170808 58.61698272 -8.18461939 56.99177882 -8.18838501 55.36657715 C-8.19280912 51.96028004 -8.18637466 48.55421891 -8.17236328 45.14794922 C-8.15527117 40.77959154 -8.16511191 36.41178679 -8.18308067 32.0434494 C-8.19391627 28.6874372 -8.19047324 25.3315563 -8.1826973 21.97554016 C-8.18069466 20.36477086 -8.1831568 18.75398968 -8.19013596 17.14323425 C-8.19774698 14.89269389 -8.18615228 12.64305152 -8.16943359 10.39257812 C-8.16704681 9.11145142 -8.16466003 7.83032471 -8.16220093 6.51037598 C-7.78125 3.3984375 -7.78125 3.3984375 -6.39578247 1.48556519 C-4.19351142 0.00269019 -2.64295717 0.01058392 0 0 Z " fill="#D8CFBC" transform="translate(31.78125,152.6015625)"/>
<path d="M0 0 C5.71428571 0.71428571 5.71428571 0.71428571 7 2 C7.95636943 7.47112239 5.73933884 10.53679229 2.78320312 14.87695312 C2.21537109 15.68068359 1.64753906 16.48441406 1.0625 17.3125 C0.21655273 18.54709961 0.21655273 18.54709961 -0.64648438 19.80664062 C-4.71068948 25.71068948 -4.71068948 25.71068948 -6 27 C-10.50202682 26.66651653 -13.00746586 26.41479355 -16 23 C-16.51949219 23.85464844 -17.03898437 24.70929687 -17.57421875 25.58984375 C-18.27160156 26.69457031 -18.96898437 27.79929687 -19.6875 28.9375 C-20.71423828 30.59072266 -20.71423828 30.59072266 -21.76171875 32.27734375 C-24 35 -24 35 -26.46875 35.96875 C-29.26041174 36.00321496 -31.20297908 35.53620184 -33.8125 34.5625 C-34.99779297 34.13130859 -34.99779297 34.13130859 -36.20703125 33.69140625 C-36.79871094 33.46324219 -37.39039062 33.23507813 -38 33 C-38.268125 33.556875 -38.53625 34.11375 -38.8125 34.6875 C-40.10122405 37.19712052 -41.53947638 39.58713495 -43 42 C-42.41784225 42.00364563 -41.83568451 42.00729126 -41.23588562 42.01104736 C-35.18492494 42.05280891 -29.13472729 42.12210901 -23.08422852 42.20751953 C-20.82519151 42.2357717 -18.56605486 42.25696499 -16.30688477 42.27099609 C-13.06214224 42.29236652 -9.81860308 42.33898732 -6.57421875 42.390625 C-5.56163498 42.39185364 -4.54905121 42.39308228 -3.50578308 42.39434814 C-2.56503433 42.41406677 -1.62428558 42.4337854 -0.6550293 42.45410156 C0.17325882 42.46298401 1.00154694 42.47186646 1.85493469 42.48101807 C4 43 4 43 5.80265808 44.8661499 C7 47 7 47 6.8125 49.6875 C6 52 6 52 4 53 C2.1064772 53.10645059 0.2092169 53.14882848 -1.68725586 53.16113281 C-3.47437233 53.17554413 -3.47437233 53.17554413 -5.29759216 53.19024658 C-7.2366317 53.1966214 -7.2366317 53.1966214 -9.21484375 53.203125 C-10.55001325 53.20887633 -11.88518273 53.21463406 -13.22035217 53.22039795 C-16.0205219 53.23090584 -18.82066293 53.23675008 -21.62084961 53.24023438 C-25.21011373 53.24572301 -28.79899923 53.26975923 -32.38814449 53.29820633 C-35.14621595 53.31682213 -37.90419593 53.32203769 -40.66232491 53.32357025 C-42.62941497 53.32807252 -44.59645609 53.34672278 -46.5634613 53.36553955 C-47.75802444 53.36253845 -48.95258759 53.35953735 -50.18334961 53.35644531 C-51.76314857 53.36191376 -51.76314857 53.36191376 -53.37486267 53.36749268 C-56 53 -56 53 -57.86256409 51.64788818 C-59 50 -59 50 -59.015625 47.27734375 C-57.69042679 43.00103105 -55.47896915 40.06455833 -52.75 36.5625 C-51.78606103 35.29327039 -50.82251745 34.0237404 -49.859375 32.75390625 C-49.38693359 32.13789551 -48.91449219 31.52188477 -48.42773438 30.88720703 C-46.22062852 27.96981164 -44.11195998 24.98680471 -42 22 C-41.34805664 22.05752441 -40.69611328 22.11504883 -40.02441406 22.17431641 C-39.27385742 22.24054199 -38.52330078 22.30676758 -37.75 22.375 C-34.37071192 22.67317248 -31.96178773 23.32889958 -29 25 C-28.75507812 24.29488281 -28.51015625 23.58976562 -28.2578125 22.86328125 C-26.82532472 19.60236963 -25.00478131 17.03865885 -22.875 14.1875 C-22.15054688 13.21167969 -21.42609375 12.23585938 -20.6796875 11.23046875 C-19.84824219 10.12638672 -19.84824219 10.12638672 -19 9 C-11.90178571 9.66964286 -11.90178571 9.66964286 -9 13 C-8.43410156 12.14535156 -7.86820313 11.29070313 -7.28515625 10.41015625 C-6.54433159 9.2942305 -5.80344286 8.17834728 -5.0625 7.0625 C-4.68931641 6.49853516 -4.31613281 5.93457031 -3.93164062 5.35351562 C-1.11328125 1.11328125 -1.11328125 1.11328125 0 0 Z " fill="#D8CFBC" transform="translate(83,24)"/>
<path d="M0 0 C2.6875 -0.25 2.6875 -0.25 5 0 C5.66 1.32 6.32 2.64 7 4 C9.97851562 3.90234375 9.97851562 3.90234375 12.95703125 3.8046875 C15 4 15 4 18 6 C17.74438677 8.3431213 17.40729228 10.67843403 17 13 C13.70039859 14.6498007 10.00872116 14.38258361 6.375 14.5625 C5.57320312 14.60568359 4.77140625 14.64886719 3.9453125 14.69335938 C1.9637489 14.79951457 -0.01810271 14.90026855 -2 15 C-2 16.65 -2 18.3 -2 20 C-1.21496094 20.07476562 -0.42992187 20.14953125 0.37890625 20.2265625 C7.38441757 21.10332588 12.49757609 22.27361619 17 28 C18.24283781 31.72851342 18.5280726 35.12746761 18 39 C15.75345481 43.40988501 13.47912757 45.87830799 9 48 C8.34 48 7.68 48 7 48 C6.67 49.32 6.34 50.64 6 52 C3.69 52 1.38 52 -1 52 C-1.33 50.68 -1.66 49.36 -2 48 C-2.62648437 48.02320313 -3.25296875 48.04640625 -3.8984375 48.0703125 C-4.71570313 48.08835938 -5.53296875 48.10640625 -6.375 48.125 C-7.18710938 48.14820313 -7.99921875 48.17140625 -8.8359375 48.1953125 C-11 48 -11 48 -13 46 C-13.25 43.5 -13.25 43.5 -13 41 C-10.08520867 38.08520867 -6.91441455 38.57778933 -3 38.4375 C2.15744797 38.43198027 2.15744797 38.43198027 7 37 C6.505 34.525 6.505 34.525 6 32 C5.19175781 31.90203125 4.38351563 31.8040625 3.55078125 31.703125 C-7.30858901 30.18359913 -7.30858901 30.18359913 -11 26 C-13.51459409 21.72519005 -13.67406106 17.85323962 -13 13 C-10.54934767 7.91018362 -7.99613234 6.33861514 -3 4 C-2.484375 3.278125 -1.96875 2.55625 -1.4375 1.8125 C-0.7259375 0.9153125 -0.7259375 0.9153125 0 0 Z " fill="#D8CFBC" transform="translate(132,76)"/>
<path d="M0 0 C1.28753174 0.00136711 1.28753174 0.00136711 2.60107422 0.00276184 C3.48134277 -0.00152328 4.36161133 -0.00580841 5.26855469 -0.01022339 C7.1313389 -0.01597132 8.99414556 -0.01646355 10.85693359 -0.01213074 C13.71474263 -0.00896944 16.57151819 -0.03242828 19.42919922 -0.05778503 C21.23648957 -0.06005776 23.04378272 -0.06076165 24.85107422 -0.05973816 C25.70942871 -0.06894791 26.5677832 -0.07815765 27.45214844 -0.08764648 C29.85888672 -0.06877136 29.85888672 -0.06877136 33.72607422 0.30354309 C35.72607422 3.30354309 35.72607422 3.30354309 35.41357422 5.92854309 C34.72607422 8.30354309 34.72607422 8.30354309 33.72607422 9.30354309 C31.22776639 9.31517199 28.74960588 9.26913222 26.25341797 9.19807434 C23.88110941 9.17399296 21.50886521 9.16051904 19.13647461 9.14704895 C17.50003767 9.12653088 15.86371842 9.08645444 14.22827148 9.0259552 C6.35062727 8.65725566 6.35062727 8.65725566 -1.27392578 10.30354309 C-4.18255468 13.27330642 -5.82584452 15.95864627 -7.56860352 19.72029114 C-8.13135986 20.57276428 -8.69411621 21.42523743 -9.27392578 22.30354309 C-12.35229492 22.86140442 -12.35229492 22.86140442 -15.27392578 22.30354309 C-17.27392578 19.30354309 -17.27392578 19.30354309 -17.14501953 17.00276184 C-16.04613542 13.5976994 -14.36065676 11.06270844 -12.33642578 8.11604309 C-11.62615234 7.0706134 -10.91587891 6.02518372 -10.18408203 4.94807434 C-6.9418631 0.45935815 -5.53168464 0.06638947 0 0 Z " fill="#D8CEBB" transform="translate(196.27392578125,58.69645690917969)"/>
<path d="M0 0 C0.67293091 -0.00191345 1.34586182 -0.0038269 2.03918457 -0.00579834 C3.45793025 -0.00715564 4.87668854 -0.00349103 6.29541016 0.00488281 C8.46154799 0.0155894 10.62685658 0.00497273 12.79296875 -0.0078125 C14.17448099 -0.00649082 15.55599271 -0.00392826 16.9375 0 C18.18982422 0.00225586 19.44214844 0.00451172 20.73242188 0.00683594 C23.7551911 0.24854802 25.43726618 0.67037831 27.96875 2.265625 C28.09375 5.140625 28.09375 5.140625 27.96875 8.265625 C25.45170195 10.78267305 23.89202101 10.51232099 20.45715332 10.54351807 C19.33367493 10.53744537 19.33367493 10.53744537 18.1875 10.53125 C17.41821167 10.53316345 16.64892334 10.5350769 15.85632324 10.53704834 C14.2289192 10.53841008 12.6015043 10.53471439 10.97412109 10.52636719 C8.47859369 10.51566721 5.98378618 10.52626251 3.48828125 10.5390625 C1.90885257 10.5377409 0.32942434 10.5351785 -1.25 10.53125 C-1.9989856 10.53529846 -2.74797119 10.53934692 -3.51965332 10.54351807 C-8.80132757 10.49554743 -8.80132757 10.49554743 -11.03125 8.265625 C-11.15625 5.140625 -11.15625 5.140625 -11.03125 2.265625 C-7.37988953 -0.03532618 -4.25530066 0.00766524 0 0 Z " fill="#D7CFBC" transform="translate(199.03125,40.734375)"/>
<path d="M0 0 C1.45116211 -0.0309375 1.45116211 -0.0309375 2.93164062 -0.0625 C4.32479492 -0.07023437 4.32479492 -0.07023437 5.74609375 -0.078125 C7.02311157 -0.09214355 7.02311157 -0.09214355 8.32592773 -0.10644531 C10.5625 0.25 10.5625 0.25 12.37524414 1.57519531 C13.5625 3.25 13.5625 3.25 13.375 6.375 C13.106875 7.32375 12.83875 8.2725 12.5625 9.25 C8.80651541 11.1279923 4.25776018 10.43475762 0.125 10.4375 C-0.84244141 10.44974609 -1.80988281 10.46199219 -2.80664062 10.47460938 C-4.19979492 10.47750977 -4.19979492 10.47750977 -5.62109375 10.48046875 C-6.47243896 10.48457764 -7.32378418 10.48868652 -8.20092773 10.49291992 C-10.4375 10.25 -10.4375 10.25 -13.4375 8.25 C-13.18188677 5.9068787 -12.84479228 3.57156597 -12.4375 1.25 C-8.67595432 -0.63077284 -4.13926726 0.02197355 0 0 Z " fill="#D8CFBC" transform="translate(218.4375,23.75)"/>
<path d="M0 0 C1.46566406 -0.00386719 1.46566406 -0.00386719 2.9609375 -0.0078125 C3.98445313 -0.00007812 5.00796875 0.00765625 6.0625 0.015625 C7.08601563 0.00789062 8.10953125 0.00015625 9.1640625 -0.0078125 C10.14117187 -0.00523437 11.11828125 -0.00265625 12.125 0 C13.02347656 0.00225586 13.92195313 0.00451172 14.84765625 0.00683594 C17.0625 0.265625 17.0625 0.265625 19.0625 2.265625 C19.1875 5.390625 19.1875 5.390625 19.0625 8.265625 C16.20889988 9.87999316 14.14807787 10.52081669 10.875 10.53125 C9.70324219 10.53511719 9.70324219 10.53511719 8.5078125 10.5390625 C7.29738281 10.52746094 7.29738281 10.52746094 6.0625 10.515625 C5.25554687 10.52335938 4.44859375 10.53109375 3.6171875 10.5390625 C2.83601563 10.53648437 2.05484375 10.53390625 1.25 10.53125 C0.54230469 10.52899414 -0.16539063 10.52673828 -0.89453125 10.52441406 C-3.2473713 10.22637266 -4.88523951 9.42665102 -6.9375 8.265625 C-7.0625 5.390625 -7.0625 5.390625 -6.9375 2.265625 C-4.40695663 -0.26491837 -3.50201118 0.00879271 0 0 Z " fill="#D7CFBC" transform="translate(65.9375,204.734375)"/>
<path d="M0 0 C1.62463842 -0.05395478 3.24978541 -0.09277195 4.875 -0.125 C5.77992187 -0.14820313 6.68484375 -0.17140625 7.6171875 -0.1953125 C10 0 10 0 12 2 C12.1875 5.0625 12.1875 5.0625 12 8 C11 9 11 9 8.49609375 9.09765625 C6.98208984 9.08025391 6.98208984 9.08025391 5.4375 9.0625 C4.42558594 9.05347656 3.41367187 9.04445312 2.37109375 9.03515625 C1.58863281 9.02355469 0.80617187 9.01195312 0 9 C-1.125 6.75 -1.125 6.75 -2 4 C-1.125 1.6875 -1.125 1.6875 0 0 Z " fill="#D9CFBC" transform="translate(43,188)"/>
<path d="M0 0 C1.81242052 -0.02687279 3.62495233 -0.04633715 5.4375 -0.0625 C6.44683594 -0.07410156 7.45617187 -0.08570313 8.49609375 -0.09765625 C11 0 11 0 12 1 C12.1875 3.9375 12.1875 3.9375 12 7 C10 9 10 9 7.90625 9.23046875 C7.1121875 9.21628906 6.318125 9.20210937 5.5 9.1875 C4.30890625 9.17783203 4.30890625 9.17783203 3.09375 9.16796875 C1 9 1 9 -1 8 C-1.75 6.1875 -1.75 6.1875 -2 4 C-1.37624689 2.64605972 -0.71344607 1.30889913 0 0 Z " fill="#D8CEBB" transform="translate(43,171)"/>
<path d="M0 0 C1.32278481 5.41139241 1.32278481 5.41139241 -0.0625 7.9375 C-2.91093248 9.49954362 -4.93504903 8.74921024 -8 8 C-9.32278481 2.58860759 -9.32278481 2.58860759 -7.9375 0.0625 C-5.08906752 -1.49954362 -3.06495097 -0.74921024 0 0 Z " fill="#D8CFBE" transform="translate(231,223)"/>
<path d="M0 0 C2.31 0.33 4.62 0.66 7 1 C7.33 2.98 7.66 4.96 8 7 C6.3125 8.625 6.3125 8.625 4 10 C1.3125 9.5 1.3125 9.5 -1 8 C-1.9375 5.5625 -1.9375 5.5625 -2 3 C-1.34 2.01 -0.68 1.02 0 0 Z " fill="#DAD1BD" transform="translate(224,205)"/>
<path d="M0 0 C2.4375 0.9375 2.4375 0.9375 3.75 3.5 C4.0903125 4.7065625 4.0903125 4.7065625 4.4375 5.9375 C2.75 8 2.75 8 0.4375 9.9375 C-2.3125 9.6875 -2.3125 9.6875 -4.5625 8.9375 C-4.8925 6.6275 -5.2225 4.3175 -5.5625 1.9375 C-2.5625 -0.0625 -2.5625 -0.0625 0 0 Z " fill="#D9CFBC" transform="translate(210.5625,222.0625)"/>
<path d="M0 0 C2.5 0.25 2.5 0.25 4.5 2.25 C4.8125 5.25 4.8125 5.25 4.5 8.25 C1.5 10.25 1.5 10.25 -1.125 9.9375 C-3.5 9.25 -3.5 9.25 -4.5 8.25 C-4.6875 5.3125 -4.6875 5.3125 -4.5 2.25 C-2.5 0.25 -2.5 0.25 0 0 Z " fill="#D8D0BA" transform="translate(192.5,221.75)"/>
<path d="M0 0 C0.99 0.103125 1.98 0.20625 3 0.3125 C5 3.3125 5 3.3125 4.6875 5.9375 C4 8.3125 4 8.3125 3 9.3125 C0.0625 9.5 0.0625 9.5 -3 9.3125 C-5 7.3125 -5 7.3125 -5.25 4.8125 C-4.86676958 0.9801958 -3.75087075 0.3907157 0 0 Z " fill="#D8D0BC" transform="translate(227,187.6875)"/>
<path d="M0 0 C2.375 0.6875 2.375 0.6875 3.375 1.6875 C3.5625 4.625 3.5625 4.625 3.375 7.6875 C1.375 9.6875 1.375 9.6875 -1.125 9.9375 C-3.625 9.6875 -3.625 9.6875 -5.625 7.6875 C-5.9375 4.6875 -5.9375 4.6875 -5.625 1.6875 C-2.625 -0.3125 -2.625 -0.3125 0 0 Z " fill="#D9D0BC" transform="translate(193.625,24.3125)"/>
<path d="M0 0 C2.5 0.25 2.5 0.25 4.5 2.25 C4.625 5.375 4.625 5.375 4.5 8.25 C2.25 9.375 2.25 9.375 -0.5 10.25 C-2.8125 9.375 -2.8125 9.375 -4.5 8.25 C-4.625 5.375 -4.625 5.375 -4.5 2.25 C-2.5 0.25 -2.5 0.25 0 0 Z " fill="#D9CDBB" transform="translate(192.5,204.75)"/>
<path d="M0 0 C0.94875 0.04125 1.8975 0.0825 2.875 0.125 C4 2.375 4 2.375 4.875 5.125 C4 7.4375 4 7.4375 2.875 9.125 C0 9.25 0 9.25 -3.125 9.125 C-5.125 7.125 -5.125 7.125 -5.375 4.625 C-4.98192433 0.69424327 -3.8631953 0.15452781 0 0 Z " fill="#D8CEBB" transform="translate(210.125,187.875)"/>
<path d="M0 0 C2.5625 0.4375 2.5625 0.4375 4.5 2.6875 C5.5625 5.4375 5.5625 5.4375 5 7.6875 C3.5625 9.4375 3.5625 9.4375 1.6875 10.375 C-0.4375 10.4375 -0.4375 10.4375 -2.6875 9.3125 C-4.4375 7.4375 -4.4375 7.4375 -4.8125 4.875 C-4.29259075 1.49558989 -3.35625249 0.60240429 0 0 Z " fill="#D8CDBB" transform="translate(209.4375,204.5625)"/>
<path d="M0 0 C2.4375 0.375 2.4375 0.375 4.4375 2.375 C4.875 4.8125 4.875 4.8125 4.4375 7.375 C2.1875 9.3125 2.1875 9.3125 -0.5625 10.375 C-2.8125 9.8125 -2.8125 9.8125 -4.5625 8.375 C-5.5 6.5 -5.5 6.5 -5.5625 4.375 C-4.06845761 1.38691523 -3.35109018 0.49040344 0 0 Z " fill="#D8CDBB" transform="translate(46.5625,204.625)"/>
<path d="M0 0 C3.5 0.125 3.5 0.125 4.5 1.125 C4.6875 4.0625 4.6875 4.0625 4.5 7.125 C2.5 9.125 2.5 9.125 0 9.375 C-2.5 9.125 -2.5 9.125 -4.5 7.125 C-4.6875 4.0625 -4.6875 4.0625 -4.5 1.125 C-3.5 0.125 -3.5 0.125 0 0 Z " fill="#D9D0BB" transform="translate(111.5,128.875)"/>
</svg>
