<?xml version="1.0" encoding="UTF-8"?>
<svg version="1.1" xmlns="http://www.w3.org/2000/svg" width="256" height="256">
<path d="M0 0 C1.13135194 -0.00467997 1.13135194 -0.00467997 2.28555948 -0.00945449 C4.8082355 -0.01742025 7.33067004 -0.01111651 9.85334778 -0.00482178 C11.66362651 -0.0075322 13.47390415 -0.01109342 15.28417969 -0.01544189 C20.19711185 -0.02456007 25.10996003 -0.02102449 30.02289367 -0.01468372 C35.16025378 -0.00962313 40.29760665 -0.01431513 45.43496704 -0.01745605 C54.05914096 -0.02109453 62.68328062 -0.01629865 71.30744934 -0.0067749 C81.28852394 0.00411976 91.26951691 0.00057625 101.25058955 -0.01042771 C109.81371518 -0.01949161 118.37681617 -0.02079058 126.93994504 -0.01555037 C132.05736049 -0.01242706 137.1747375 -0.01203144 142.2921505 -0.01862335 C147.0995461 -0.02438352 151.90683592 -0.02042444 156.71422005 -0.00883484 C158.48235778 -0.00618155 160.25050435 -0.00696467 162.01863861 -0.01136017 C164.42408725 -0.01679056 166.82919263 -0.01001246 169.23461914 0 C170.29466645 -0.00669217 170.29466645 -0.00669217 171.37612885 -0.01351953 C176.19853322 0.0256664 176.19853322 0.0256664 178.42683411 2.25396729 C178.61433411 5.31646729 178.61433411 5.31646729 178.42683411 8.25396729 C176.76868629 9.9121151 174.76895334 9.38506188 172.55289429 9.39989752 C171.85038302 9.39951138 171.14787176 9.39912525 170.42407227 9.39872742 C169.68283357 9.40225426 168.94159488 9.40578111 168.17789441 9.40941483 C165.6751748 9.42015425 163.17249316 9.42379186 160.66975403 9.42755127 C158.88301429 9.43385254 157.09627615 9.44061786 155.30953979 9.44781494 C151.45226557 9.46251491 147.59499754 9.47422744 143.73770714 9.48376274 C137.64140323 9.49917514 131.54515187 9.52312414 125.44888306 9.54866028 C108.11010554 9.61996929 90.77129773 9.67966084 73.43244934 9.73077393 C63.86376922 9.75905707 54.29514116 9.79442861 44.72651559 9.83742768 C38.66369254 9.86424052 32.60092843 9.88212103 26.53805768 9.89346492 C22.76734533 9.90257857 18.99670463 9.91993479 15.22603416 9.93964386 C13.47487512 9.94712962 11.72369772 9.95120104 9.97252274 9.95163918 C7.58505465 9.95271901 5.19795257 9.96594246 2.81054688 9.98222351 C2.11472777 9.97960666 1.41890867 9.9769898 0.70200413 9.97429365 C-3.20193208 10.01598426 -4.94933141 10.44205005 -8.57316589 12.25396729 C-8.90316589 20.50396729 -9.23316589 28.75396729 -9.57316589 37.25396729 C-6.31723572 37.24349365 -3.06130554 37.23302002 0.29328918 37.222229 C11.03409685 37.18913404 21.77490674 37.16701553 32.51575184 37.15034294 C39.02984113 37.13989234 45.54387832 37.12570982 52.05793762 37.10308838 C58.34081219 37.08140557 64.62363655 37.06940829 70.90654564 37.0642128 C73.30719989 37.06050883 75.70785131 37.05327623 78.10848427 37.04250717 C81.46311574 37.02805298 84.81753798 37.02598681 88.17219543 37.0269165 C89.17128937 37.01972595 90.1703833 37.0125354 91.19975281 37.00512695 C92.11260544 37.00787628 93.02545807 37.01062561 93.9659729 37.01345825 C94.75963666 37.01161467 95.55330042 37.00977108 96.3710146 37.00787163 C98.42683411 37.25396729 98.42683411 37.25396729 101.42683411 39.25396729 C101.67683411 42.31646729 101.67683411 42.31646729 101.42683411 45.25396729 C100.42683411 46.25396729 100.42683411 46.25396729 98.58587551 46.37701511 C97.37049146 46.37563242 97.37049146 46.37563242 96.1305542 46.3742218 C95.20362259 46.37559647 94.27669098 46.37697113 93.32167053 46.37838745 C92.29668457 46.37479218 91.27169861 46.3711969 90.21565247 46.36749268 C88.60609428 46.36771172 88.60609428 46.36771172 86.96401978 46.36793518 C83.39821895 46.36723552 79.83246962 46.35944067 76.26667786 46.35162354 C73.80188017 46.34975954 71.33708212 46.34833555 68.87228394 46.34733582 C62.37029506 46.34350915 55.86832835 46.33367761 49.36634827 46.32263184 C42.73742594 46.31188476 36.10849718 46.30783888 29.47956848 46.30279541 C16.46198087 46.29205547 3.44440867 46.27516825 -9.57316589 46.25396729 C-9.46601694 61.47437831 -9.35327186 76.69474072 -9.23382664 91.91506004 C-9.17849986 98.98178823 -9.12501876 106.04852146 -9.07585144 113.11529541 C-9.02843362 119.92987541 -8.97591375 126.74440063 -8.92022514 133.558918 C-8.89978025 136.16412704 -8.88107078 138.76935027 -8.86409187 141.3745842 C-8.84009508 145.0120026 -8.81003408 148.6493225 -8.77848816 152.28668213 C-8.7727327 153.37352798 -8.76697723 154.46037384 -8.76104736 155.58015442 C-8.75125854 156.56735977 -8.74146973 157.55456512 -8.73138428 158.57168579 C-8.72493173 159.43264044 -8.71847918 160.29359509 -8.71183109 161.18063927 C-8.70317855 163.31605061 -8.70317855 163.31605061 -7.57316589 165.25396729 C22.09263316 165.27675733 51.75843179 165.29446529 81.42423775 165.30503261 C84.92290595 165.30628339 88.42157414 165.30757771 91.92024231 165.30889893 C92.61679324 165.30916124 93.31334417 165.30942355 94.03100271 165.30969381 C105.32411829 165.31405056 116.6172288 165.32193814 127.91034137 165.33112008 C139.48958323 165.34045646 151.06882151 165.34594796 162.64806706 165.34805578 C169.15553444 165.34936333 175.66299032 165.35245195 182.17045403 165.35969734 C188.2877037 165.36645349 194.40493705 165.36858508 200.52219009 165.36707497 C202.77451351 165.36735148 205.02683744 165.36935899 207.27915764 165.37317276 C210.33979174 165.37810368 213.40036316 165.37696781 216.46099854 165.3742218 C217.36467665 165.37713464 218.26835476 165.38004748 219.19941705 165.38304859 C223.12736824 165.76571853 223.12736824 165.76571853 226.42683411 164.25396729 C226.54158467 161.16526955 226.59170557 158.09803294 226.60041809 155.00836182 C226.61044861 153.55233551 226.61044861 153.55233551 226.62068176 152.06689453 C226.63476845 149.95138956 226.64665085 147.83586906 226.65662956 145.72034073 C226.67298209 142.37568793 226.69621726 139.03115021 226.7215271 135.68655396 C226.7924628 126.174415 226.85246839 116.66222875 226.90364075 107.14996338 C226.93538428 101.33918365 226.97664975 95.52853503 227.02383614 89.71786118 C227.03988629 87.49865955 227.05219385 85.27942768 227.06074333 83.06018448 C227.07286004 79.95944111 227.09699491 76.8590074 227.12385559 73.75836182 C227.12444473 72.83564484 227.12503387 71.91292786 227.12564087 70.96224976 C227.14021835 69.6961084 227.14021835 69.6961084 227.15509033 68.40438843 C227.15932227 67.67101824 227.16355421 66.93764805 227.16791439 66.18205452 C227.42683411 64.25396729 227.42683411 64.25396729 229.42683411 61.25396729 C232.42683411 60.87896729 232.42683411 60.87896729 235.42683411 61.25396729 C237.46062055 64.30464695 237.67773444 64.89886247 237.68753052 68.3260498 C237.69461533 69.15305893 237.70170013 69.98006805 237.70899963 70.83213806 C237.70652222 71.73607803 237.7040448 72.64001801 237.70149231 73.5713501 C237.70915871 75.00354637 237.70915871 75.00354637 237.71697998 76.4646759 C237.73090739 79.62887806 237.72991637 82.79286307 237.72761536 85.95709229 C237.7315015 88.15564047 237.73583601 90.35418791 237.74060059 92.55273438 C237.74807026 97.16622345 237.74776679 101.77963602 237.74250793 106.39312744 C237.7367225 112.29903804 237.75361843 118.20463409 237.77685261 124.11049271 C237.79160409 128.6538882 237.79245953 133.19720828 237.78934288 137.74062347 C237.78985571 139.91747407 237.79508633 142.09432894 237.8051548 144.27115631 C237.81752443 147.32064547 237.81072326 150.36952654 237.79914856 153.41900635 C237.8067923 154.3148494 237.81443604 155.21069244 237.8223114 156.13368225 C237.76814933 162.6066524 236.703126 167.3497328 232.61433411 172.56646729 C227.2733045 176.68669013 221.41767506 176.54240819 214.98275757 176.5146637 C213.56752529 176.52040202 213.56752529 176.52040202 212.12370247 176.52625626 C208.9663073 176.53656443 205.80909472 176.53259824 202.65168762 176.52862549 C200.3863254 176.53297314 198.12096464 176.53815647 195.85560608 176.54411316 C189.70484452 176.55750807 183.5541444 176.5580813 177.4033711 176.55554986 C172.26903664 176.55448056 167.13471463 176.55936243 162.00038284 176.56415528 C149.19600301 176.5758865 136.39166732 176.57502439 123.58728688 176.56859847 C112.47317006 176.56342905 101.35914087 176.57468618 90.24504138 176.59369669 C78.82602964 176.61307866 67.40707552 176.62103913 55.9880442 176.61757344 C49.57993539 176.61575947 43.17190685 176.61840826 36.76381111 176.63228798 C30.73833497 176.64485058 24.71303444 176.64293693 18.68756104 176.62987709 C16.47645445 176.62750842 14.26533557 176.63025637 12.05424309 176.63850021 C9.03525578 176.64894444 6.01686027 176.64088537 2.99789429 176.62818909 C2.12356784 176.63556337 1.24924139 176.64293766 0.3484202 176.6505354 C-6.42033662 176.59067622 -11.01664199 175.23608588 -16.46923828 171.0085907 C-20.35380045 165.79623195 -19.27482421 158.38512036 -19.23600769 152.17999268 C-19.24442556 150.63382229 -19.25495277 149.08766216 -19.26742554 147.54151917 C-19.29445182 143.351273 -19.28977876 139.16162277 -19.27772498 134.97132802 C-19.27058706 131.46981981 -19.27909746 127.96842136 -19.28763038 124.46692175 C-19.30757557 116.20483681 -19.30202165 107.94304127 -19.279953 99.68096924 C-19.25759149 91.16469256 -19.27518647 82.64917401 -19.31300229 74.13296896 C-19.34425793 66.81384452 -19.35214561 59.4949545 -19.34104854 52.17577165 C-19.33456758 47.8075657 -19.33653407 43.43979709 -19.36037254 39.07164192 C-19.38165265 34.96317931 -19.37361162 30.85578446 -19.34327888 26.74738884 C-19.33696088 25.24259053 -19.34078982 23.73770899 -19.35569 22.23297119 C-19.47180228 9.46923504 -19.47180228 9.46923504 -15.83813477 4.92875671 C-11.29011054 0.40575707 -6.14878337 -0.03918887 0 0 Z " fill="#D8CFBB" transform="translate(18.573165893554688,43.74603271484375)"/>
<path d="M0 0 C1 1 1 1 1.18920898 4.60620117 C1.13078164 8.77701039 0.25531909 12.31659001 -1.02734375 16.30078125 C-1.24762238 16.99500687 -1.467901 17.68923248 -1.69485474 18.40449524 C-2.43061494 20.71113748 -3.18350933 23.01175807 -3.9375 25.3125 C-4.46539598 26.94885172 -4.99264127 28.58541347 -5.51928711 30.22216797 C-6.99613526 34.7956542 -8.49184791 39.36278291 -9.99206543 43.9286499 C-11.06118426 47.18643897 -12.12515678 50.44588021 -13.18847656 53.70556641 C-15.09046444 59.53154813 -17.00326014 65.3538838 -18.92410278 71.17367554 C-19.68187582 73.47104642 -20.43764022 75.76908083 -21.19137573 78.06777954 C-22.25657609 81.31082594 -23.33189269 84.55033958 -24.41015625 87.7890625 C-24.72848419 88.76345779 -25.04681213 89.73785309 -25.37478638 90.74177551 C-25.67657806 91.6411937 -25.97836975 92.54061188 -26.28930664 93.46728516 C-26.67802696 94.64105209 -26.67802696 94.64105209 -27.07460022 95.83853149 C-28.11013662 98.25724756 -29.22809922 100.05306638 -31 102 C-36.90226123 102.81493906 -41.91977707 101.02542343 -47.43359375 99.15625 C-48.31153091 98.86770142 -49.18946808 98.57915283 -50.0940094 98.28186035 C-52.878482 97.36424213 -55.65793887 96.43237681 -58.4375 95.5 C-60.33236839 94.87274886 -62.22754786 94.24643663 -64.12304688 93.62109375 C-68.75236918 92.09157321 -73.37724932 90.54926331 -78 89 C-78.66 92.63 -79.32 96.26 -80 100 C-78.948125 98.824375 -77.89625 97.64875 -76.8125 96.4375 C-73.39766219 93.00883694 -73.39766219 93.00883694 -70.1875 92.9375 C-68 94 -68 94 -66 96 C-66.23686617 100.41903442 -68.01647933 102.55376735 -71 105.6875 C-71.80824219 106.54988281 -72.61648437 107.41226563 -73.44921875 108.30078125 C-74.29097656 109.19152344 -75.13273437 110.08226562 -76 111 C-77.60863475 112.78765611 -79.21297824 114.57918535 -80.8125 116.375 C-82.19870608 117.92532884 -83.59397583 119.46762184 -85 121 C-86.00933594 122.11568359 -86.00933594 122.11568359 -87.0390625 123.25390625 C-89 125 -89 125 -92.5625 125.5625 C-96 125 -96 125 -97.5871582 122.95141602 C-99.25814801 119.46073073 -100.19421497 115.96812155 -101.04296875 112.21484375 C-101.21629227 111.47673965 -101.38961578 110.73863556 -101.56819153 109.97816467 C-101.93099989 108.42511819 -102.28962627 106.87108943 -102.64428711 105.31616211 C-103.18705657 102.93944174 -103.74379776 100.56632393 -104.30273438 98.19335938 C-104.65447208 96.67987929 -105.00541104 95.16621329 -105.35546875 93.65234375 C-105.52104782 92.94496567 -105.68662689 92.23758759 -105.85722351 91.5087738 C-106.60370776 88.21362723 -107 85.40381208 -107 82 C-107.72960937 81.90203125 -108.45921875 81.8040625 -109.2109375 81.703125 C-116.09768218 80.71687515 -122.88893434 79.47077138 -129.6875 78 C-130.47753418 77.8340332 -131.26756836 77.66806641 -132.08154297 77.49707031 C-137.76194274 76.23805726 -137.76194274 76.23805726 -140 74 C-140.4375 70.625 -140.4375 70.625 -140 67 C-135.6293177 62.54149963 -129.66456335 60.19407167 -124.11328125 57.51953125 C-123.03556961 56.99389587 -121.95785797 56.4682605 -120.8474884 55.92669678 C-117.93991914 54.50955671 -115.02983375 53.09775142 -112.11862946 51.68809891 C-109.09418441 50.22186914 -106.07319241 48.74856815 -103.05224609 47.27514648 C-102.45204273 46.98240876 -101.85183937 46.68967104 -101.23344803 46.38806248 C-100.02354348 45.7979101 -98.81365752 45.20771962 -97.60379028 44.61749077 C-95.79358571 43.73467589 -93.98300345 42.85263946 -92.17236328 41.97071838 C-82.45608162 37.23442453 -72.78043738 32.42135602 -63.125 27.5625 C-53.09765861 22.52179681 -43.04083669 17.55677981 -32.88769531 12.77270508 C-28.32415006 10.61732435 -23.80606845 8.40296419 -19.328125 6.07421875 C-17.95213135 5.3635022 -17.95213135 5.3635022 -16.54833984 4.63842773 C-14.81834168 3.73993462 -13.09421945 2.82999654 -11.37744141 1.90649414 C-4.28563839 -1.76761739 -4.28563839 -1.76761739 0 0 Z M-15 22 C-15.8189978 22.82232872 -15.8189978 22.82232872 -16.65454102 23.66127014 C-21.82957947 28.85644166 -27.00709072 34.04913075 -32.18731689 39.23912907 C-34.84969364 41.90669882 -37.51114289 44.57517976 -40.17041016 47.24584961 C-42.74229913 49.82869589 -45.31670549 52.40900923 -47.89279175 54.98766899 C-48.86953656 55.96624512 -49.84540894 56.94569294 -50.82034302 57.92607307 C-55.84167055 62.97430213 -60.88018681 67.91696091 -66.33056641 72.50315857 C-68.8669204 74.77729499 -70.90676775 77.31804618 -73 80 C-65.45531542 83.16348795 -57.79700553 85.78201466 -50 88.25 C-48.86949219 88.61351563 -47.73898438 88.97703125 -46.57421875 89.3515625 C-41.38599768 91.22721816 -41.38599768 91.22721816 -36 92 C-33.82984499 85.369996 -31.66125291 78.73948216 -29.49365234 72.10864258 C-28.75897026 69.86178529 -28.02395474 67.615037 -27.28857422 65.3684082 C-25.18028002 58.92703731 -23.07926001 52.48337542 -20.9876709 46.03656006 C-20.03170972 43.09749043 -19.06734491 40.16127318 -18.10253906 37.22509766 C-17.53922534 35.49006728 -16.97637061 33.75488779 -16.4140625 32.01953125 C-16.15176849 31.22906906 -15.88947449 30.43860687 -15.61923218 29.62419128 C-14.12219152 25.78670571 -14.12219152 25.78670571 -15 22 Z M-32 23 C-34.77197582 24.11338238 -34.77197582 24.11338238 -37.94921875 25.796875 C-38.54902054 26.1009729 -39.14882233 26.4050708 -39.76679993 26.71838379 C-41.06363231 27.37676618 -42.35866711 28.03869853 -43.65209961 28.70373535 C-47.0972302 30.47464901 -50.5553747 32.21985395 -54.01171875 33.96875 C-54.70417694 34.32003967 -55.39663513 34.67132935 -56.1100769 35.03326416 C-61.69799756 37.86318968 -67.33321268 40.58148744 -73 43.25 C-89.81287327 51.1974195 -106.38458775 59.65008322 -123 68 C-122.67 68.66 -122.34 69.32 -122 70 C-119.54869706 70.67122529 -117.17728441 71.21469716 -114.6875 71.6875 C-113.67139648 71.90116211 -113.67139648 71.90116211 -112.63476562 72.11914062 C-107.71228471 73.16148889 -107.71228471 73.16148889 -103 72 C-100.80451886 70.40407637 -98.71695294 68.78383021 -96.625 67.0625 C-95.38064721 66.06553148 -94.13450029 65.07079883 -92.88671875 64.078125 C-92.24782715 63.56958984 -91.60893555 63.06105469 -90.95068359 62.53710938 C-87.82109464 60.07104028 -84.64861745 57.67118828 -81.4375 55.3125 C-80.58115967 54.66196655 -80.58115967 54.66196655 -79.70751953 53.99829102 C-76.36381561 51.56997183 -74.15460686 50.46616783 -70 51 C-69.5 53.5625 -69.5 53.5625 -70 57 C-71.48901367 58.62744141 -71.48901367 58.62744141 -73.48046875 60.2890625 C-74.20733887 60.89790283 -74.93420898 61.50674316 -75.68310547 62.1340332 C-79.34916856 65.08658539 -83.05837834 67.97288635 -86.8125 70.8125 C-87.93688477 71.67004883 -87.93688477 71.67004883 -89.08398438 72.54492188 C-92.01729244 74.77570397 -94.93241417 76.95494278 -98 79 C-97.38580826 87.59868438 -95.19092979 95.69484752 -93 104 C-92.34 104 -91.68 104 -91 104 C-90.93163437 103.36228668 -90.86326874 102.72457336 -90.79283142 102.0675354 C-87.72591775 78.61714719 -75.07843953 66.65776844 -58.48699951 51.18237305 C-55.24049037 48.13344886 -52.0498905 45.02707387 -48.85351562 41.92578125 C-42.62096954 35.89445292 -36.33150926 29.9273519 -30 24 C-30.99 23.505 -30.99 23.505 -32 23 Z " fill="#D8CFBB" transform="translate(255,37)"/>
<path d="M0 0 C4.8130279 0.90680236 7.04884395 4.27957794 9.83984375 8.0546875 C13.73450874 14.16953579 16.75459991 20.71690143 19.875 27.25 C25.23084461 38.44810092 30.24163242 47.80264441 42.3125 52.75 C50.49994052 55.30429899 57.43607099 55.15079535 65.296875 51.640625 C72.75645601 47.61697221 79.0085096 42.63342924 84.37109375 36.08203125 C86.38495336 33.62878409 88.59811523 31.45788826 90.875 29.25 C93.3125 29.9375 93.3125 29.9375 95.875 31.25 C97.0625 33.375 97.0625 33.375 96.875 36.25 C91.39778045 46.68279914 80.34359518 56.18788325 69.875 61.25 C69.194375 61.58773437 68.51375 61.92546875 67.8125 62.2734375 C59.13338193 65.85686125 47.73827836 65.58334884 38.9375 62.625 C22.53439983 55.59158673 16.13292041 43.72678226 8.96875 28.29833984 C5.54635333 20.94362468 2.27650993 14.86624766 -3.62109375 9.21484375 C-5.125 7.25 -5.125 7.25 -5.47265625 4.62890625 C-4.91483753 0.81192197 -3.76086514 0.30086921 0 0 Z " fill="#D8CFBC" transform="translate(56.125,134.75)"/>
<path d="M0 0 C9.07275216 2.05920892 9.07275216 2.05920892 13 4 C14.375 6.640625 14.375 6.640625 15 9 C13.62890625 11.10546875 13.62890625 11.10546875 11 13 C7.53834303 12.95376098 4.29105401 12.12526611 0.9375 11.3125 C-0.42858398 11.01182617 -0.42858398 11.01182617 -1.82226562 10.70507812 C-5.27880209 9.93327964 -8.63835661 9.1205478 -12 8 C-12.33 5.69 -12.66 3.38 -13 1 C-8.55429937 -1.96380042 -5.109886 -0.92541243 0 0 Z " fill="#D8CFBC" transform="translate(33,124)"/>
<path d="M0 0 C3.5 -0.3125 3.5 -0.3125 7 0 C9 2 9 2 9.3125 5.5 C9.1578125 7.2325 9.1578125 7.2325 9 9 C5.1496895 11.56687367 3.41430237 10.83288724 -1 10 C-2.25 3.375 -2.25 3.375 0 0 Z " fill="#D9D0BE" transform="translate(44,62)"/>
<path d="M0 0 C3.0625 0.375 3.0625 0.375 5 2.0625 C6.34483625 4.98949654 6.09365662 6.36084989 5.0625 9.375 C3.0625 11.375 3.0625 11.375 0.125 11.75 C-2.9375 11.375 -2.9375 11.375 -4.875 9.6875 C-6.21983625 6.76050346 -5.96865662 5.38915011 -4.9375 2.375 C-2.9375 0.375 -2.9375 0.375 0 0 Z " fill="#D8CEBB" transform="translate(67.9375,61.625)"/>
<path d="M0 0 C3.0625 0.3125 3.0625 0.3125 4.9375 1.5 C6.46909584 3.96757108 6.49072025 5.45769831 6.0625 8.3125 C4.9375 10.125 4.9375 10.125 3.0625 11.3125 C0 11.625 0 11.625 -2.9375 11.3125 C-4.9375 9.3125 -4.9375 9.3125 -5.1875 5.8125 C-4.87458101 1.43163414 -4.40975115 0.46912246 0 0 Z " fill="#D8CFBC" transform="translate(26.9375,61.6875)"/>
</svg>
